<svg width="17" height="22" viewBox="0 0 17 22" fill="none" xmlns="http://www.w3.org/2000/svg">
<path d="M8.37145 10.4369C9.71989 10.4369 10.8875 9.92261 11.8416 8.90798C12.7956 7.89352 13.2793 6.65226 13.2793 5.21827C13.2793 3.78476 12.7956 2.54334 11.8414 1.52855C10.8872 0.514256 9.71974 0 8.37145 0C7.02284 0 5.85551 0.514256 4.90146 1.52872C3.94741 2.54318 3.46362 3.7846 3.46362 5.21827C3.46362 6.65226 3.94741 7.89368 4.90161 8.90815C5.85582 9.92244 7.02331 10.4369 8.37145 10.4369V10.4369Z" fill="#CCCCCC"/>
<path d="M16.9588 16.6605C16.9313 16.2383 16.8756 15.7778 16.7937 15.2915C16.711 14.8015 16.6045 14.3383 16.477 13.915C16.3454 13.4774 16.1663 13.0453 15.9449 12.6313C15.7151 12.2015 15.4453 11.8272 15.1424 11.5193C14.8258 11.1971 14.438 10.9381 13.9897 10.7491C13.5429 10.5612 13.0478 10.466 12.5181 10.466C12.3101 10.466 12.109 10.5567 11.7205 10.8257C11.4814 10.9915 11.2017 11.1832 10.8896 11.3953C10.6226 11.5761 10.261 11.7456 9.8144 11.899C9.37865 12.0489 8.93622 12.1249 8.49953 12.1249C8.06285 12.1249 7.62057 12.0489 7.18436 11.899C6.73819 11.7457 6.37659 11.5763 6.10998 11.3955C5.80078 11.1854 5.52095 10.9936 5.27828 10.8255C4.89026 10.5566 4.68894 10.4658 4.48093 10.4658C3.95113 10.4658 3.45615 10.5612 3.00952 10.7493C2.56149 10.9379 2.17362 11.1969 1.85664 11.5194C1.55396 11.8276 1.28393 12.2016 1.05447 12.6313C0.833257 13.0453 0.654169 13.4773 0.52234 13.9152C0.39502 14.3385 0.288531 14.8015 0.205827 15.2915C0.1239 15.7771 0.0682463 16.2378 0.0407301 16.661C0.0136803 17.0756 0 17.5059 0 17.9405C0 19.0714 0.338122 19.9871 1.00488 20.6623C1.66341 21.3287 2.53475 21.6667 3.59435 21.6667H13.4056C14.4653 21.6667 15.3363 21.3288 15.995 20.6623C16.6619 19.9876 17 19.0718 17 17.9403C16.9998 17.5037 16.986 17.0731 16.9588 16.6605V16.6605Z" fill="#CCCCCC"/>
</svg>
