<svg width="488" height="323" viewBox="0 0 488 323" fill="none" xmlns="http://www.w3.org/2000/svg">
<path d="M358.447 307.732H347.963V205.699L371.79 205.222L358.447 307.732Z" fill="#FFB8B8"/>
<path d="M408.961 307.732H419.445V205.699L395.617 205.222L408.961 307.732Z" fill="#FFB8B8"/>
<path d="M353.527 321.924L331.22 321.719C330.152 321.983 329.038 322.001 327.962 321.77C326.886 321.54 325.877 321.067 325.01 320.389C324.144 319.71 323.443 318.843 322.961 317.853C322.48 316.864 322.229 315.777 322.229 314.676C322.229 313.31 322.615 311.972 323.341 310.815C324.068 309.659 325.106 308.731 326.337 308.139L331.425 305.69L347.963 294.382L359.876 297.719L362.158 307.993C362.822 310.982 362.291 314.113 360.678 316.717C359.065 319.32 356.499 321.189 353.527 321.924Z" fill="#2F2E41"/>
<path d="M413.572 321.797L391.265 321.593C390.197 321.857 389.082 321.874 388.006 321.644C386.931 321.413 385.921 320.941 385.055 320.262C384.189 319.584 383.488 318.717 383.006 317.727C382.524 316.737 382.274 315.651 382.274 314.55C382.274 313.184 382.659 311.845 383.386 310.689C384.113 309.532 385.151 308.604 386.382 308.012L391.47 305.563L408.007 294.255L419.921 297.593L422.203 307.866C422.867 310.856 422.336 313.987 420.723 316.59C419.11 319.193 416.544 321.062 413.572 321.797Z" fill="#2F2E41"/>
<path d="M422.293 222.422L389.447 219.488L385.122 180.941L375.437 218.236L342.233 215.27C343.457 192.433 346.091 173.383 352.24 163.777L421.816 151.38L422.293 222.422Z" fill="#2F2E41"/>
<path d="M389.098 43.9085C398.899 43.9085 406.845 35.9587 406.845 26.1521C406.845 16.3454 398.899 8.39558 389.098 8.39558C379.296 8.39558 371.35 16.3454 371.35 26.1521C371.35 35.9587 379.296 43.9085 389.098 43.9085Z" fill="#FFB8B8"/>
<path d="M403.231 63.1745L372.255 59.3602C376.196 50.9641 377.972 43.124 375.115 36.4743H398.942C395.258 43.0512 398.552 52.7985 403.231 63.1745Z" fill="#FFB8B8"/>
<path d="M421.816 152.334C400.02 168.324 376.233 173.779 350.334 168.068C366.048 132.174 363.804 96.7977 350.334 61.7442L375.115 51.2548C382.063 58.036 390.032 58.1835 398.942 52.2084L423.246 57.4531C418.8 92.4227 417.31 124.903 421.816 152.334Z" fill="#3F3D56"/>
<path d="M376.005 10.6522L373.008 9.45179C373.008 9.45179 379.274 2.54963 387.992 3.14982L385.54 0.448929C385.54 0.448929 391.534 -1.95181 396.983 4.35016C399.847 7.66298 403.161 11.557 405.227 15.9436H408.436L407.097 18.8945L411.785 21.8454L406.973 21.3154C407.429 23.863 407.273 26.4825 406.518 28.958L406.647 31.2904C406.647 31.2904 401.069 22.6559 401.069 21.4556V24.4565C401.069 24.4565 398.072 21.7557 398.072 19.9551L396.438 22.0557L395.62 18.7547L385.54 22.0557L387.175 19.3549L380.908 20.2552L383.361 16.9541C383.361 16.9541 376.277 20.8554 376.005 24.1565C375.732 27.4575 372.19 31.6588 372.19 31.6588L370.556 28.6579C370.556 28.6579 368.104 15.1536 376.005 10.6522Z" fill="#2F2E41"/>
<path d="M426.162 190.085H318.522C317.43 190.084 316.384 189.65 315.612 188.877C314.84 188.105 314.406 187.058 314.404 185.966V169.488C314.406 168.396 314.84 167.349 315.612 166.576C316.384 165.804 317.43 165.37 318.522 165.368H426.162C427.254 165.37 428.3 165.804 429.072 166.576C429.844 167.349 430.278 168.396 430.28 169.488V185.966C430.278 187.058 429.844 188.105 429.072 188.877C428.3 189.649 427.254 190.084 426.162 190.085Z" fill="#FFB8B8"/>
<path d="M334.615 174.227C333.697 174.243 332.823 174.618 332.179 175.273C331.536 175.927 331.175 176.809 331.175 177.727C331.175 178.645 331.536 179.526 332.179 180.181C332.823 180.835 333.697 181.211 334.615 181.226H409.955C410.88 181.238 411.773 180.883 412.437 180.238C413.102 179.593 413.483 178.71 413.499 177.784C413.514 176.858 413.161 175.963 412.519 175.297C411.876 174.63 410.995 174.246 410.069 174.227C410.031 174.227 409.993 174.227 409.955 174.227H334.615Z" fill="#161616"/>
<path d="M361.295 161.393L366.766 171.151C367.414 172.307 367.789 173.596 367.861 174.918C367.933 176.241 367.701 177.563 367.182 178.782C366.664 180.002 365.873 181.086 364.871 181.951C363.868 182.817 362.68 183.44 361.399 183.775C360.105 184.113 358.75 184.146 357.441 183.872C356.131 183.598 354.903 183.025 353.853 182.196C352.802 181.368 351.957 180.307 351.385 179.098C350.813 177.888 350.528 176.562 350.554 175.224L350.811 161.87C346.7 138.132 343.364 115.657 344.139 99.8873H363.201L359.389 118.005L361.295 161.393Z" fill="#FFB8B8"/>
<path d="M424.199 163.777L420.191 170.46C419.535 171.554 418.619 172.468 417.523 173.121C416.428 173.773 415.188 174.145 413.915 174.201C412.641 174.257 411.373 173.997 410.225 173.443C409.076 172.89 408.082 172.06 407.332 171.029C406.733 170.204 406.303 169.269 406.067 168.277C405.83 167.285 405.793 166.257 405.956 165.25C406.119 164.244 406.48 163.28 407.018 162.414C407.555 161.548 408.259 160.797 409.088 160.204L416.098 155.195L426.105 113.714L419.91 96.5498L437.066 93.689C445.121 112.315 437.007 137.145 424.199 163.777Z" fill="#FFB8B8"/>
<path d="M367.49 103.702L342.233 102.271L343.968 75.1945C343.881 71.3617 345.086 67.6111 347.389 64.5467C349.691 61.4823 352.958 59.2825 356.662 58.3014L359.865 57.4531L367.49 103.702Z" fill="#3F3D56"/>
<path d="M438.972 95.1194L415.621 100.841V56.0227L416.585 55.9605C420.423 55.7128 424.222 56.8537 427.289 59.1753C430.357 61.4969 432.488 64.8443 433.293 68.6069L438.972 95.1194Z" fill="#3F3D56"/>
<path d="M488 321.823H131.495V323H488V321.823Z" fill="#E6E6E6"/>
<path d="M15.6681 287.091C15.9873 299.019 17.9842 310.842 21.6 322.212C21.6826 322.476 21.7693 322.736 21.8558 323H43.9932C43.9695 322.764 43.9459 322.5 43.9223 322.212C42.4462 305.235 33.9361 201.903 44.1112 184.233C43.2216 185.666 13.9519 233.145 15.6681 287.091Z" fill="#E6E6E6"/>
<path d="M17.3292 322.212C17.5142 322.476 17.7071 322.74 17.9038 323H34.5108C34.3848 322.776 34.2392 322.512 34.0699 322.212C31.3264 317.258 23.206 302.446 15.6681 287.091C7.56738 270.59 0.135802 253.463 0.761669 247.264C0.568776 248.662 -5.0364 291.281 17.3292 322.212Z" fill="#E6E6E6"/>
<path d="M224.623 132.011H44.046C42.9543 132.01 41.9078 131.576 41.1359 130.804C40.364 130.031 39.9298 128.984 39.9286 127.892V27.2586C39.9298 26.1665 40.364 25.1194 41.1359 24.3471C41.9078 23.5748 42.9543 23.1404 44.046 23.1391H224.623C225.715 23.1405 226.761 23.5749 227.533 24.3472C228.305 25.1194 228.739 26.1665 228.74 27.2586V127.892C228.739 128.984 228.305 130.031 227.533 130.803C226.761 131.576 225.715 132.01 224.623 132.011Z" fill="#FFB8B8"/>
<path d="M226.857 323H41.574C40.7943 322.999 40.0468 322.689 39.4955 322.137C38.9441 321.586 38.634 320.838 38.633 320.058V25.8223C38.634 25.0422 38.9441 24.2943 39.4955 23.7426C40.0468 23.191 40.7943 22.8807 41.574 22.8798H226.857C227.637 22.8807 228.384 23.191 228.936 23.7426C229.487 24.2943 229.797 25.0422 229.798 25.8223V320.058C229.797 320.838 229.487 321.586 228.936 322.137C228.384 322.689 227.637 322.999 226.857 323ZM41.574 24.0568C41.1062 24.0573 40.6577 24.2435 40.3268 24.5744C39.996 24.9054 39.81 25.3542 39.8094 25.8223V320.058C39.81 320.526 39.996 320.974 40.3268 321.305C40.6577 321.636 41.1062 321.822 41.574 321.823H226.857C227.325 321.822 227.773 321.636 228.104 321.305C228.435 320.974 228.621 320.526 228.622 320.058V25.8223C228.621 25.3542 228.435 24.9054 228.104 24.5744C227.773 24.2435 227.325 24.0573 226.857 24.0568H41.574Z" fill="#E6E6E6"/>
<path d="M63.4565 186.742C67.0299 186.742 69.9267 183.844 69.9267 180.268C69.9267 176.693 67.0299 173.795 63.4565 173.795C59.8831 173.795 56.9863 176.693 56.9863 180.268C56.9863 183.844 59.8831 186.742 63.4565 186.742Z" fill="#E6E6E6"/>
<path d="M199.919 192.627H92.2783C91.1867 192.626 90.1401 192.191 89.3682 191.419C88.5964 190.647 88.1622 189.6 88.1609 188.507V172.029C88.1622 170.937 88.5964 169.89 89.3682 169.118C90.1401 168.346 91.1867 167.911 92.2783 167.91H199.919C201.01 167.911 202.057 168.346 202.829 169.118C203.601 169.89 204.035 170.937 204.036 172.029V188.507C204.035 189.6 203.601 190.647 202.829 191.419C202.057 192.191 201.01 192.626 199.919 192.627Z" fill="#E6E6E6"/>
<path d="M204.036 193.215H88.1609C88.0049 193.215 87.8553 193.153 87.745 193.043C87.6347 192.933 87.5727 192.783 87.5727 192.627C87.5727 192.471 87.6347 192.321 87.745 192.211C87.8553 192.1 88.0049 192.038 88.1609 192.038H204.036C204.192 192.038 204.342 192.1 204.452 192.211C204.562 192.321 204.624 192.471 204.624 192.627C204.624 192.783 204.562 192.933 204.452 193.043C204.342 193.153 204.192 193.215 204.036 193.215Z" fill="#3F3D56"/>
<path d="M63.4565 225.583C67.0299 225.583 69.9267 222.685 69.9267 219.109C69.9267 215.534 67.0299 212.636 63.4565 212.636C59.8831 212.636 56.9863 215.534 56.9863 219.109C56.9863 222.685 59.8831 225.583 63.4565 225.583Z" fill="#E6E6E6"/>
<path d="M199.919 231.468H92.2783C91.1867 231.467 90.1401 231.032 89.3682 230.26C88.5964 229.488 88.1622 228.441 88.1609 227.348V210.87C88.1622 209.778 88.5964 208.731 89.3682 207.959C90.1401 207.187 91.1867 206.752 92.2783 206.751H199.919C201.01 206.752 202.057 207.187 202.829 207.959C203.601 208.731 204.035 209.778 204.036 210.87V227.348C204.035 228.441 203.601 229.488 202.829 230.26C202.057 231.032 201.01 231.467 199.919 231.468Z" fill="#E6E6E6"/>
<path d="M204.036 232.056H88.1609C88.0049 232.056 87.8553 231.994 87.745 231.884C87.6347 231.774 87.5727 231.624 87.5727 231.468C87.5727 231.312 87.6347 231.162 87.745 231.052C87.8553 230.941 88.0049 230.879 88.1609 230.879H204.036C204.192 230.879 204.342 230.941 204.452 231.052C204.562 231.162 204.624 231.312 204.624 231.468C204.624 231.624 204.562 231.774 204.452 231.884C204.342 231.994 204.192 232.056 204.036 232.056Z" fill="#3F3D56"/>
<path d="M63.4565 264.424C67.0299 264.424 69.9267 261.526 69.9267 257.95C69.9267 254.375 67.0299 251.477 63.4565 251.477C59.8831 251.477 56.9863 254.375 56.9863 257.95C56.9863 261.526 59.8831 264.424 63.4565 264.424Z" fill="#E6E6E6"/>
<path d="M136.981 270.309H92.2783C91.1867 270.308 90.1401 269.873 89.3682 269.101C88.5964 268.329 88.1622 267.281 88.1609 266.189V249.711C88.1622 248.619 88.5964 247.572 89.3682 246.8C90.1401 246.028 91.1867 245.593 92.2783 245.592H136.981C138.073 245.593 139.119 246.028 139.891 246.8C140.663 247.572 141.097 248.619 141.099 249.711V266.189C141.097 267.281 140.663 268.329 139.891 269.101C139.119 269.873 138.073 270.307 136.981 270.309Z" fill="#E6E6E6"/>
<path d="M141.099 270.897H88.1609C88.0049 270.897 87.8553 270.835 87.745 270.725C87.6347 270.615 87.5727 270.465 87.5727 270.309C87.5727 270.153 87.6347 270.003 87.745 269.893C87.8553 269.782 88.0049 269.72 88.1609 269.72H141.099C141.255 269.72 141.404 269.782 141.515 269.893C141.625 270.003 141.687 270.153 141.687 270.309C141.687 270.465 141.625 270.615 141.515 270.725C141.404 270.835 141.255 270.897 141.099 270.897Z" fill="#3F3D56"/>
<path d="M199.919 270.309H155.216C154.124 270.308 153.077 269.873 152.306 269.101C151.534 268.329 151.099 267.281 151.098 266.189V249.711C151.099 248.619 151.534 247.572 152.306 246.8C153.077 246.028 154.124 245.593 155.216 245.592H199.919C201.01 245.593 202.057 246.028 202.829 246.8C203.601 247.572 204.035 248.619 204.036 249.711V266.189C204.035 267.281 203.601 268.329 202.829 269.101C202.057 269.873 201.01 270.307 199.919 270.309Z" fill="#E6E6E6"/>
<path d="M204.036 270.897H151.098C150.942 270.897 150.793 270.835 150.682 270.725C150.572 270.615 150.51 270.465 150.51 270.309C150.51 270.153 150.572 270.003 150.682 269.893C150.793 269.782 150.942 269.72 151.098 269.72H204.036C204.192 269.72 204.342 269.782 204.452 269.893C204.562 270.003 204.624 270.153 204.624 270.309C204.624 270.465 204.562 270.615 204.452 270.725C204.342 270.835 204.192 270.897 204.036 270.897Z" fill="#3F3D56"/>
<path d="M63.668 54.6556C62.7504 54.6707 61.8755 55.046 61.2319 55.7006C60.5883 56.3552 60.2276 57.2366 60.2276 58.1549C60.2276 59.0731 60.5883 59.9545 61.2319 60.6091C61.8755 61.2637 62.7504 61.639 63.668 61.6541H204.886C205.346 61.6621 205.802 61.5795 206.23 61.4108C206.658 61.2422 207.048 60.9909 207.379 60.6712C207.709 60.3516 207.973 59.9699 208.156 59.548C208.339 59.1261 208.437 58.6722 208.445 58.2124C208.452 57.7525 208.369 57.2957 208.2 56.868C208.031 56.4403 207.78 56.0501 207.46 55.7198C207.14 55.3895 206.758 55.1255 206.336 54.9429C205.914 54.7603 205.461 54.6627 205.001 54.6556C204.963 54.655 204.924 54.655 204.886 54.6556H63.668Z" fill="#161616"/>
<path d="M63.668 74.0761C62.7504 74.0912 61.8755 74.4665 61.2319 75.1211C60.5883 75.7757 60.2276 76.6571 60.2276 77.5753C60.2276 78.4935 60.5883 79.375 61.2319 80.0295C61.8755 80.6841 62.7504 81.0594 63.668 81.0746H204.886C205.813 81.0888 206.708 80.7342 207.374 80.0889C208.039 79.4435 208.422 78.5601 208.437 77.6327C208.452 76.7053 208.099 75.8098 207.455 75.1429C206.81 74.4761 205.928 74.0924 205.001 74.0761C204.963 74.0755 204.924 74.0755 204.886 74.0761H63.668Z" fill="#161616"/>
<path d="M63.668 93.4966C62.7504 93.5117 61.8755 93.887 61.2319 94.5416C60.5883 95.1962 60.2276 96.0776 60.2276 96.9958C60.2276 97.914 60.5883 98.7954 61.2319 99.45C61.8755 100.105 62.7504 100.48 63.668 100.495H204.886C205.813 100.509 206.708 100.155 207.374 99.5094C208.039 98.864 208.422 97.9806 208.437 97.0532C208.452 96.1258 208.099 95.2303 207.455 94.5634C206.81 93.8965 205.928 93.5128 205.001 93.4966C204.963 93.4959 204.924 93.4959 204.886 93.4966H63.668Z" fill="#161616"/>
<path d="M198.623 299.32L197.143 297.839C197.111 297.807 197.073 297.782 197.031 297.765C196.989 297.747 196.945 297.738 196.9 297.738H196.179C196.111 297.738 196.045 297.759 195.988 297.796C195.932 297.834 195.888 297.888 195.862 297.951C195.836 298.014 195.829 298.083 195.842 298.15C195.855 298.216 195.888 298.278 195.936 298.326L196.756 299.145H190.213C190.057 299.145 189.908 299.207 189.797 299.318C189.687 299.428 189.625 299.578 189.625 299.734C189.625 299.89 189.687 300.04 189.797 300.15C189.908 300.26 190.057 300.322 190.213 300.322H196.756L196.02 301.058C195.965 301.113 195.927 301.183 195.912 301.259C195.897 301.336 195.905 301.415 195.935 301.486C195.964 301.558 196.015 301.62 196.079 301.663C196.144 301.706 196.22 301.729 196.298 301.729H196.879C196.931 301.729 196.982 301.719 197.03 301.699C197.077 301.679 197.121 301.651 197.157 301.614L198.623 300.147C198.677 300.093 198.72 300.029 198.75 299.958C198.779 299.887 198.794 299.811 198.794 299.734C198.794 299.657 198.779 299.581 198.75 299.51C198.72 299.439 198.677 299.375 198.623 299.32Z" fill="#FFB8B8"/>
<path d="M194.625 309.15C192.764 309.15 190.944 308.598 189.396 307.563C187.849 306.529 186.643 305.058 185.93 303.337C185.218 301.617 185.032 299.724 185.395 297.897C185.758 296.071 186.654 294.393 187.97 293.076C189.287 291.759 190.963 290.862 192.789 290.499C194.615 290.136 196.507 290.322 198.227 291.035C199.946 291.747 201.416 292.954 202.45 294.503C203.484 296.051 204.036 297.872 204.036 299.734C204.033 302.23 203.041 304.624 201.277 306.389C199.512 308.154 197.12 309.147 194.625 309.15ZM194.625 291.495C192.996 291.495 191.404 291.978 190.05 292.884C188.696 293.789 187.64 295.076 187.017 296.581C186.394 298.087 186.231 299.743 186.548 301.341C186.866 302.94 187.651 304.408 188.802 305.56C189.954 306.712 191.421 307.497 193.019 307.815C194.616 308.133 196.272 307.969 197.776 307.346C199.281 306.722 200.567 305.666 201.472 304.311C202.377 302.956 202.86 301.364 202.86 299.734C202.857 297.55 201.989 295.455 200.445 293.911C198.901 292.366 196.808 291.498 194.625 291.495Z" fill="#3F3D56"/>
</svg>
