<svg width="21" height="20" viewBox="0 0 21 20" fill="none" xmlns="http://www.w3.org/2000/svg">
<path d="M2.35777 0.0125122C2.37944 0.0108337 2.39777 0 2.42042 0H11.7809C13.2211 0 14.3931 1.12167 14.3931 2.5V3.33328C14.3931 3.79334 14.0031 4.16672 13.5224 4.16672C13.0417 4.16672 12.6517 3.79334 12.6517 3.33328V2.5C12.6517 2.04086 12.2608 1.66672 11.7809 1.66672H7.72412L7.98975 1.75171C8.69498 1.98502 9.16865 2.62085 9.16865 3.33328V15.8333H11.7809C12.2608 15.8333 12.6517 15.4591 12.6517 15V13.3333C12.6517 12.8734 13.0417 12.5 13.5224 12.5C14.0031 12.5 14.3931 12.8734 14.3931 13.3333V15C14.3931 16.3783 13.2211 17.5 11.7809 17.5H9.16865V18.3333C9.16865 19.2525 8.38771 20 7.42727 20C7.2409 20 7.06408 19.9742 6.87257 19.9175L1.64107 18.2483C0.934912 18.015 0.46124 17.3791 0.46124 16.6667V1.66672C0.46124 0.695039 1.33638 -0.0666809 2.35777 0.0125122Z" fill="#CCCCCC"/>
<path d="M12.5436 7.59695H15.1828C15.2686 7.59695 15.3381 7.53043 15.3381 7.4484V4.92258C15.3381 4.5123 15.6856 4.17969 16.1143 4.17969C16.543 4.17969 16.8906 4.5123 16.8906 4.92258V7.4484C16.8906 7.53043 16.9601 7.59695 17.0458 7.59695H19.685C20.1137 7.59695 20.4612 7.92957 20.4612 8.33984C20.4612 8.75012 20.1137 9.08273 19.685 9.08273H17.0458C16.9601 9.08273 16.8906 9.14926 16.8906 9.23129V11.7571C16.8906 12.1674 16.543 12.5 16.1143 12.5C15.6856 12.5 15.3381 12.1674 15.3381 11.7571V9.23129C15.3381 9.14926 15.2686 9.08273 15.1828 9.08273H12.5436C12.1149 9.08273 11.7674 8.75012 11.7674 8.33984C11.7674 7.92957 12.1149 7.59695 12.5436 7.59695Z" fill="#CCCCCC"/>
</svg>
