<svg height="384pt" viewBox="0 0 384 384" width="384pt" xmlns="http://www.w3.org/2000/svg"><path d="m351.925781 0h-192c-17.648437 0-32 14.351562-32 32v144h-80.910156l21.925781-30.703125c5.136719-7.183594 3.472656-17.175781-3.71875-22.320313-7.183594-5.121093-17.175781-3.472656-22.320312 3.726563l-40 56c-.320313.449219-.535156.9375-.800782 1.402344-.117187.207031-.292968.359375-.398437.574219-.054687.113281-.0625.230468-.121094.335937-.582031 1.199219-1.03125 2.433594-1.292969 3.703125-.042968.183594-.035156.359375-.066406.546875-.191406 1.109375-.253906 2.230469-.207031 3.34375.015625.351563.0390625.695313.0703125 1.054687.1210935 1.167969.3515625 2.3125.7226565 3.425782.039062.117187.054687.246094.09375.367187.449218 1.230469 1.089844 2.398438 1.832031 3.503907.074219.101562.105469.230468.175781.335937l40 56c3.121094 4.375 8.03125 6.703125 13.023438 6.703125 3.21875 0 6.472656-.96875 9.289062-2.976562 7.191406-5.144532 8.855469-15.136719 3.71875-22.320313l-21.925781-30.703125h80.910156v144c0 17.648438 14.351563 32 32 32h192c17.648438 0 32-14.351562 32-32v-320c0-17.648438-14.351562-32-32-32zm-192 352v-144h96c8.832031 0 16-7.167969 16-16s-7.167969-16-16-16h-96v-144h192l.015625 320zm0 0"/></svg>