<svg width="1268" height="1022" viewBox="0 0 1268 1022" fill="none" xmlns="http://www.w3.org/2000/svg">
<path fill-rule="evenodd" clip-rule="evenodd" d="M568.453 3.09547C561.789 4.37616 554.373 6.12225 551.972 6.97255C549.574 7.82635 545.209 9.36597 542.276 10.3947C530.551 14.5132 514.147 23.8315 501.109 33.7762C497.315 36.6735 480.47 53.4695 477.043 57.777C471.076 65.2722 469.767 67.1232 468.129 70.3774C467.188 72.2425 465.858 74.426 465.172 75.2238C463.187 77.5368 456.379 90.935 455.602 94.0598C454.58 98.1678 450.279 105.145 448.032 106.349C446.821 106.996 430.126 107.693 403.295 108.214C330.264 109.635 328.381 109.922 317.17 121.266C307.066 131.494 307.657 127.736 304.098 204.14C301.7 255.574 301.186 382.265 303.195 426.11C304.038 444.501 305.169 470.892 305.704 484.752C306.898 515.524 307.087 517.029 310.678 524.086C316.936 536.407 326.697 542.461 343.522 544.462C354.568 545.778 356.129 547.373 356.129 557.36C356.129 573.505 360.43 572.473 295.344 571.945C39.5645 569.873 0.311963 570.307 0.311963 575.195C0.311963 580.063 -14.661 579.646 202.622 580.846C643.171 583.285 1264.63 584.472 1266.22 582.876C1268.07 581.028 1267.12 577.743 1264.27 576.109C1262.61 575.16 1233.39 574.845 1129.33 574.66C978.478 574.387 948.7 574.128 946.397 573.068C943.891 571.917 942.694 567.151 942.694 558.329C942.694 547.475 944.216 545.624 953.841 544.77C970.862 543.265 981.089 537.387 987.809 525.255C992.117 517.473 991.302 527.46 996.132 423.202C997.392 395.926 997.392 256.925 996.128 230.797C995.589 219.603 994.672 199.756 994.091 186.693C991.557 129.548 991.442 129.023 978.8 118.218C968.272 109.215 962.91 108.84 823.414 107.28C733.32 106.272 738.217 106.716 735.361 99.2736C730.503 86.6171 725.592 76.7669 719.943 68.3374C718.211 65.755 716.793 63.3616 716.793 63.0222C716.793 62.2979 712.685 57.0981 708.551 52.5842C706.952 50.8381 704.081 47.6643 702.17 45.5334C696.08 38.7345 680.883 26.3019 675.101 23.3941C673.236 22.4529 670.835 20.9307 669.771 20.0069C668.704 19.0867 665.868 17.575 663.467 16.6477C661.07 15.724 658.452 14.4013 657.65 13.7084C656.852 13.0191 654.014 11.7909 651.351 10.9826C648.684 10.1743 644.319 8.63465 641.655 7.55691C624.635 0.681046 591.525 -1.33448 568.453 3.09547ZM629.048 13.4565C641.088 16.6337 648.883 19.3701 655.229 22.6418C656.828 23.4676 659.446 24.7973 661.045 25.5951C665.42 27.7786 676.62 35.2598 678.003 36.9254C678.671 37.7337 679.756 38.3916 680.418 38.3916C681.986 38.3916 699.819 56.1358 704.19 62.0459C706.056 64.5688 708.723 68.019 710.119 69.7161C711.512 71.4132 713.587 74.545 714.732 76.6795C715.876 78.8104 717.22 81.2109 717.721 82.0087C720.388 86.2812 724.129 95.0256 726.219 101.88C734.72 129.762 734.346 120.755 734.031 289.922L733.758 436.289L731.518 440.834C727.188 449.624 715.393 450.999 708.621 443.504C706.717 441.398 705.121 439.351 705.072 438.952C705.026 438.553 704.68 431.467 704.302 423.202C703.269 400.45 698.009 393.963 680.075 393.298C655.866 392.402 651.813 398.046 650.952 433.864C650.297 461.077 649.681 463.568 642.625 467.522C629.346 474.965 615.962 465.412 615.962 448.497C615.962 437.94 613.085 432.937 603.946 427.576C597.842 424 583.916 423.303 578.634 426.313C577.035 427.226 574.634 428.458 573.3 429.053C571.97 429.647 569.363 432.17 567.508 434.665L564.138 439.197L563.63 456.724L563.122 474.251L559.822 478.048C555.3 483.248 554.526 483.58 546.707 483.668C531.304 483.842 529.715 480.672 529.375 449.127C529.078 421.473 528.129 417.418 520.517 411.182C502.565 396.475 482.906 408.824 481.271 435.83C480.333 451.37 470.072 458.886 459.372 451.878C452.53 447.399 453.089 461.682 453.082 290.72C453.079 132.939 453.223 126.669 456.95 118.176C457.934 115.944 459.26 111.584 459.9 108.483C460.541 105.383 461.878 101.324 462.868 99.4555C463.859 97.5905 465.571 94.1018 466.673 91.7014C469.407 85.7423 474.341 77.1239 477.586 72.6414C488.065 58.1584 491.519 54.3373 502.04 45.5543C507.374 41.1034 512.516 36.7819 513.472 35.9491C514.427 35.1198 516.824 33.5382 518.805 32.4395C520.783 31.3407 523.054 29.9166 523.856 29.2797C528.766 25.3607 551.429 15.9619 560.253 14.1878C563.431 13.5475 568.211 12.4277 570.878 11.6999C584.287 8.03279 611.629 8.85859 629.048 13.4565ZM843.801 117.91C973.067 119.989 969.836 119.583 978.611 134.916L981.677 140.273L982.996 172.448C983.724 190.147 984.767 213.784 985.313 224.981C987.963 279.138 987.494 391.237 984.375 449.859C983.836 459.989 983.01 478.608 982.541 491.236L981.684 514.198L978.625 519.545C971.66 531.715 966.322 533.604 935.907 534.668C844.134 537.87 457.562 537.915 362.915 534.734C321.44 533.342 317.982 529.871 316.418 488.07C315.893 473.985 315.224 457.879 314.934 452.28C312.305 401.742 311.497 286.461 313.436 238.785C313.971 225.586 315.088 198.122 315.914 177.746C318.203 121.381 318.332 121.234 367.763 119.807C453.873 117.319 445.05 116.042 443.895 130.826C442.642 146.817 445.214 145.949 393.18 147.943L368.662 148.885L362.639 151.985C348.866 159.071 344.05 168.015 342.468 189.458C341.891 197.268 340.557 213.906 339.504 226.433C335.405 275.079 334.936 386.622 338.699 417.386C339.189 421.386 340.253 434.469 341.061 446.464C343.445 481.781 344.768 487.412 352.545 495.418C360.028 503.119 365.323 504.852 384.244 505.789C393.575 506.251 416.262 507.539 434.658 508.652C499.643 512.588 663.17 512.273 734.727 508.078C748.594 507.262 767.354 506.227 776.419 505.775C812.021 504.001 816.711 496.684 820.05 437.741C820.365 432.146 821.359 420.151 822.259 411.088C824.677 386.667 824.677 269.91 822.259 243.884C821.342 234.019 820.117 217.881 819.54 208.017C817.209 168.305 814.146 160.38 797.976 152.177L791.42 148.853L770.613 148.031C743.544 146.964 744.048 147.3 742.494 129.338C741.273 115.254 733.474 116.136 843.801 117.91ZM495.544 130.36C493.57 130.78 490.2 132.285 488.051 133.705C485.906 135.126 483.809 136.298 483.399 136.305C481.67 136.344 474.562 144.99 471.457 150.83C462.553 167.577 470.995 194.822 487.06 201.194C488.901 201.925 491.215 203.213 492.205 204.06C496.034 207.331 515.512 206.201 522.922 202.275C546.834 189.608 551.772 159.743 533.152 140.417C530.971 138.156 528.889 136.302 528.525 136.298C528.161 136.295 525.693 134.944 523.044 133.296C517.85 130.066 503.927 128.583 495.544 130.36ZM596.761 130.476C586.314 132.694 576.954 141.383 570.826 154.56C568.719 159.092 568.708 176.458 570.808 180.99C581.217 203.426 603.512 212.622 623.168 202.579C665.375 181.025 643.245 120.604 596.761 130.476ZM518.631 139.297C544.314 152.825 543.61 185.465 517.395 196.522C491.803 207.317 465.619 180.048 477.687 155.166C485.786 138.457 503.787 131.483 518.631 139.297ZM620.092 139.531C645.31 152.216 644.704 184.559 619.021 196.449C594.136 207.968 566.503 179.604 578.722 155.082C587.171 138.132 604.419 131.648 620.092 139.531ZM508.736 153.465C494.774 155.204 492.367 176.959 505.408 183.544C517.98 189.895 530.614 179.299 527.555 164.97C526.474 159.904 520.496 153.738 516.66 153.738C515.372 153.738 513.737 153.591 513.027 153.413C512.316 153.234 510.384 153.259 508.736 153.465ZM610.162 153.812C605.199 154.903 599.806 161.083 598.973 166.629C595.987 186.532 623.858 193.058 629.895 173.872L631.611 168.417L628.877 162.783C625.076 154.952 618.758 151.922 610.162 153.812ZM517.538 255.903C513.373 258.976 517.108 259.304 557.953 259.444C598.455 259.581 603.278 259.234 599.876 256.411C597.345 254.308 520.342 253.832 517.538 255.903ZM894.702 359.811C892.567 360.619 888.86 361.977 886.459 362.831C867.027 369.752 852.061 399.656 858.918 417.873C859.723 420.004 861.036 423.842 861.837 426.404C862.695 429.14 865.375 433.503 868.333 436.989C895.244 468.653 944.563 456.829 952.588 416.788L954.632 406.591L952.536 396.836C949.116 380.963 938.294 367.481 925.239 362.831C922.842 361.977 919.132 360.619 917 359.811C914.795 358.978 909.986 358.345 905.849 358.345C901.712 358.345 896.907 358.978 894.702 359.811ZM911.19 368.923C915.24 370.466 914.365 371.607 891.825 394.145C867.213 418.758 867.486 418.643 867.644 404.338C867.784 391.958 873.817 381.418 885.147 373.773C892.297 368.947 905.023 366.578 911.19 368.923ZM933.79 379.196C938.165 384.134 938.196 384.232 936.327 387.139C934.168 390.495 889.739 434.9 886.281 437.153C883.281 439.109 881.696 438.556 877.415 434.06C872.62 429.018 873.051 428.395 900.386 400.916C928.361 372.789 928.207 372.891 933.79 379.196ZM943.663 400.422C948.192 405.881 941.938 426.719 933.296 434.966C924.658 443.21 906.539 448.977 900.102 445.534C896.711 443.718 897.477 442.741 919.863 420.305C942.459 397.658 941.815 398.197 943.663 400.422ZM860.017 481.432C851.732 488.258 858.323 501.363 868.673 498.637C874.752 497.034 877.321 489.389 873.733 483.584C870.139 477.768 865.372 477.019 860.017 481.432ZM896.931 481.617C893.589 484.542 892.83 486.47 893.141 491.247C893.53 497.223 904.628 501.03 908.821 496.628C914.529 490.638 914.617 487.776 909.276 481.949C905.142 477.439 901.814 477.348 896.931 481.617ZM933.552 482.086C927.206 488.78 931 498.808 939.876 498.808C948.84 498.808 953.043 488.57 946.684 482.215C941.63 477.163 938.252 477.131 933.552 482.086ZM521.917 548.273C634.946 549.084 826.301 548.486 912.289 547.048C931.637 546.726 932.029 546.925 932.029 557.038C932.029 565.055 931.571 566.346 928.081 568.148C925.691 569.383 889.637 569.565 649.047 569.565H372.757L369.775 567.056C367.024 564.743 366.793 564.075 366.793 558.413C366.793 547.779 369.058 546.033 381.819 546.831C386.085 547.1 449.131 547.748 521.917 548.273Z" fill="#21212B"/>
<path fill-rule="evenodd" clip-rule="evenodd" d="M748.367 120.114C745.154 121.185 744.643 124.53 746.281 133.75C748.286 145.028 747.359 144.598 772.45 145.928C787.08 146.704 794.623 147.495 796.688 148.478C813.491 156.453 819.084 166.363 820.575 190.776C821.135 199.993 822.504 215.166 823.613 224.494C827.642 258.401 827.25 397.406 823.022 434.35C822.227 441.278 821.121 454.488 820.565 463.704C818.654 495.344 808.469 506.412 779.811 507.993C773.679 508.333 760.62 509.257 750.792 510.044C693.823 514.614 468.874 514.617 409.815 510.051C399.749 509.271 386.715 508.35 380.849 508C351.53 506.265 342.451 496.296 340.057 463.186C339.297 452.658 338.237 441.667 337.701 438.762C333.13 413.894 333.148 242.736 337.722 215.288C338.258 212.09 339.311 201.074 340.067 190.811C342.619 156.184 351.141 147.926 386.26 146.04C432.912 143.531 439.912 142.421 440.85 137.376C442.477 128.607 442.509 125.429 440.979 123.096L439.404 120.695L423.703 121.29C415.065 121.619 392.074 122.242 372.61 122.679C334.845 123.526 333.911 123.655 328.101 128.747C320.478 135.427 319.421 140.161 318.353 172.294C313.94 305.185 313.94 349.285 318.353 482.162C319.417 514.274 319.984 516.958 327.313 524.649C333.498 531.144 323.785 530.388 445.323 533.831C498.166 535.329 799.984 535.339 853.496 533.845C943.054 531.347 960.792 530.692 964.023 529.772C972.895 527.246 979.013 517.21 979.948 503.654C984.68 434.987 984.683 214.802 979.958 150.343C978.492 130.363 970.998 123.872 948.524 123.13C876.144 120.734 752.108 118.865 748.367 120.114ZM926.443 360.577C950.408 371.907 962.213 398.074 954.111 421.889C945.375 447.563 916.143 464.621 894.702 456.552C892.567 455.751 888.811 454.463 886.354 453.69C876.379 450.558 866.296 440.526 859.6 427.079C854.998 417.827 854.102 398.077 857.952 390.729C859.068 388.598 860.541 385.159 861.22 383.087C862.911 377.94 877.061 363.796 882.206 362.11C884.278 361.427 886.966 360.227 888.181 359.44C895.258 354.835 915.579 355.44 926.443 360.577ZM872.347 478.051C879.582 485.284 880.309 489.64 875.371 496.107C867.356 506.601 851.641 499.536 854.07 486.536C855.596 478.369 867.251 472.956 872.347 478.051ZM911.467 480.668C922.656 492.069 906.871 508.392 894.856 497.846C886.473 490.487 891.765 476.606 902.983 476.539C906.903 476.515 907.834 476.97 911.467 480.668ZM947.905 479.724C956.823 487.264 951.759 500.747 940.006 500.747C934.994 500.747 934.388 500.484 930.909 496.827C920.185 485.56 935.998 469.649 947.905 479.724ZM371.707 550.046C369.219 551.747 369.093 562.174 371.532 564.61L373.58 566.657H649.194C897.078 566.657 925.026 566.506 926.965 565.149C929.663 563.259 930.171 552.261 927.654 550.172C926.492 549.207 911.172 549.133 852.757 549.812C760.893 550.879 545.314 550.918 447.262 549.882C399.221 549.374 372.607 549.434 371.707 550.046Z" fill="#FFB8B8"/>
<path d="M213.716 648.727V688H218.165V658.162H218.548L230.821 688H235.116L247.389 658.162H247.772V688H252.221V648.727H246.545L233.199 681.327H232.738L219.392 648.727H213.716ZM261.143 688H265.669V658.545H261.143V688ZM263.444 653.636C265.208 653.636 266.666 652.256 266.666 650.568C266.666 648.881 265.208 647.5 263.444 647.5C261.68 647.5 260.223 648.881 260.223 650.568C260.223 652.256 261.68 653.636 263.444 653.636ZM273.957 688H278.483V669.361C278.483 665.372 281.628 662.457 285.923 662.457C287.131 662.457 288.378 662.688 288.685 662.764V658.162C288.167 658.124 286.978 658.085 286.307 658.085C282.778 658.085 279.71 660.08 278.636 662.994H278.33V658.545H273.957V688ZM302.717 688.69C307.856 688.69 310.541 685.929 311.461 684.011H311.691V688H316.217V668.594C316.217 659.236 309.083 658.162 305.325 658.162C300.876 658.162 295.813 659.696 293.512 665.065L297.808 666.599C298.805 664.452 301.164 662.151 305.478 662.151C309.639 662.151 311.691 664.356 311.691 668.134V668.287C311.691 670.473 309.467 670.281 304.098 670.972C298.632 671.681 292.669 672.889 292.669 679.639C292.669 685.392 297.117 688.69 302.717 688.69ZM303.407 684.625C299.802 684.625 297.194 683.014 297.194 679.869C297.194 676.418 300.339 675.344 303.867 674.884C305.785 674.653 310.924 674.116 311.691 673.196V677.338C311.691 681.02 308.777 684.625 303.407 684.625ZM344.19 648.727H339.665V688H344.19V648.727ZM364.445 688.614C372.422 688.614 377.791 682.554 377.791 673.426C377.791 664.222 372.422 658.162 364.445 658.162C356.468 658.162 351.098 664.222 351.098 673.426C351.098 682.554 356.468 688.614 364.445 688.614ZM364.445 684.548C358.385 684.548 355.624 679.332 355.624 673.426C355.624 667.52 358.385 662.227 364.445 662.227C370.505 662.227 373.266 667.52 373.266 673.426C373.266 679.332 370.505 684.548 364.445 684.548ZM424.509 699.045V658.545H420.137V663.224H419.6C418.603 661.69 416.839 658.162 411.086 658.162C403.646 658.162 398.506 664.068 398.506 673.349C398.506 682.707 403.646 688.614 411.009 688.614C416.685 688.614 418.603 685.085 419.6 683.474H419.984V699.045H424.509ZM420.06 673.273C420.06 679.946 417.069 684.548 411.623 684.548C405.947 684.548 403.032 679.562 403.032 673.273C403.032 667.06 405.87 662.227 411.623 662.227C417.146 662.227 420.06 666.676 420.06 673.273ZM451.356 675.957C451.356 681.48 447.137 684.011 443.762 684.011C440.004 684.011 437.319 681.25 437.319 676.955V658.545H432.793V677.261C432.793 684.778 436.782 688.384 442.305 688.384C446.754 688.384 449.668 686.006 451.049 683.014H451.356V688H455.881V658.545H451.356V675.957ZM476.52 688.614C482.503 688.614 486.875 685.622 488.256 681.173L483.883 679.946C482.733 683.014 480.067 684.548 476.52 684.548C471.208 684.548 467.545 681.116 467.334 674.807H488.716V672.889C488.716 661.92 482.196 658.162 476.06 658.162C468.082 658.162 462.79 664.452 462.79 673.503C462.79 682.554 468.006 688.614 476.52 688.614ZM467.334 670.895C467.641 666.312 470.882 662.227 476.06 662.227C480.969 662.227 484.114 665.909 484.114 670.895H467.334ZM522.753 688.614C529.273 688.614 533.569 684.625 534.336 679.409H529.81C528.967 682.631 526.282 684.548 522.753 684.548C517.384 684.548 513.932 680.099 513.932 673.273C513.932 666.599 517.461 662.227 522.753 662.227C526.742 662.227 529.12 664.682 529.81 667.366H534.336C533.569 661.844 528.89 658.162 522.677 658.162C514.699 658.162 509.407 664.452 509.407 673.426C509.407 682.247 514.469 688.614 522.753 688.614ZM552.918 688.614C560.895 688.614 566.264 682.554 566.264 673.426C566.264 664.222 560.895 658.162 552.918 658.162C544.94 658.162 539.571 664.222 539.571 673.426C539.571 682.554 544.94 688.614 552.918 688.614ZM552.918 684.548C546.858 684.548 544.097 679.332 544.097 673.426C544.097 667.52 546.858 662.227 552.918 662.227C558.977 662.227 561.739 667.52 561.739 673.426C561.739 679.332 558.977 684.548 552.918 684.548ZM573.172 688H577.698V669.591C577.698 665.276 580.843 662.227 584.371 662.227C587.804 662.227 590.201 664.471 590.201 667.827V688H594.803V668.824C594.803 665.027 597.181 662.227 601.323 662.227C604.544 662.227 607.306 663.934 607.306 668.287V688H611.831V668.287C611.831 661.364 608.111 658.162 602.857 658.162C598.638 658.162 595.551 660.099 594.036 663.148H593.729C592.272 660.003 589.702 658.162 585.829 658.162C581.993 658.162 579.155 660.003 577.928 663.148H577.544V658.545H573.172V688ZM620.106 699.045H624.631V683.474H625.015C626.012 685.085 627.93 688.614 633.606 688.614C640.97 688.614 646.109 682.707 646.109 673.349C646.109 664.068 640.97 658.162 633.529 658.162C627.776 658.162 626.012 661.69 625.015 663.224H624.478V658.545H620.106V699.045ZM624.555 673.273C624.555 666.676 627.47 662.227 632.992 662.227C638.745 662.227 641.583 667.06 641.583 673.273C641.583 679.562 638.668 684.548 632.992 684.548C627.546 684.548 624.555 679.946 624.555 673.273ZM661.68 688.69C666.819 688.69 669.504 685.929 670.424 684.011H670.654V688H675.18V668.594C675.18 659.236 668.046 658.162 664.288 658.162C659.839 658.162 654.776 659.696 652.475 665.065L656.771 666.599C657.768 664.452 660.127 662.151 664.441 662.151C668.602 662.151 670.654 664.356 670.654 668.134V668.287C670.654 670.473 668.43 670.281 663.06 670.972C657.595 671.681 651.631 672.889 651.631 679.639C651.631 685.392 656.08 688.69 661.68 688.69ZM662.37 684.625C658.765 684.625 656.157 683.014 656.157 679.869C656.157 676.418 659.302 675.344 662.83 674.884C664.748 674.653 669.887 674.116 670.654 673.196V677.338C670.654 681.02 667.739 684.625 662.37 684.625ZM683.44 688H687.965V669.361C687.965 665.372 691.11 662.457 695.406 662.457C696.614 662.457 697.86 662.688 698.167 662.764V658.162C697.649 658.124 696.46 658.085 695.789 658.085C692.261 658.085 689.193 660.08 688.119 662.994H687.812V658.545H683.44V688ZM718.187 658.545H711.897V651.489H707.372V658.545H702.923V662.381H707.372V680.79C707.372 685.929 711.514 688.384 715.349 688.384C717.036 688.384 718.11 688.077 718.724 687.847L717.804 683.781C717.42 683.858 716.806 684.011 715.809 684.011C713.815 684.011 711.897 683.398 711.897 679.562V662.381H718.187V658.545ZM737.028 688.614C743.011 688.614 747.383 685.622 748.763 681.173L744.391 679.946C743.241 683.014 740.575 684.548 737.028 684.548C731.716 684.548 728.053 681.116 727.842 674.807H749.224V672.889C749.224 661.92 742.704 658.162 736.567 658.162C728.59 658.162 723.297 664.452 723.297 673.503C723.297 682.554 728.513 688.614 737.028 688.614ZM727.842 670.895C728.149 666.312 731.39 662.227 736.567 662.227C741.476 662.227 744.621 665.909 744.621 670.895H727.842ZM760.633 670.281C760.633 665.142 763.817 662.227 768.15 662.227C772.35 662.227 774.9 664.969 774.9 669.591V688H779.426V669.284C779.426 661.767 775.418 658.162 769.454 658.162C765.006 658.162 762.244 660.156 760.864 663.148H760.48V658.545H756.108V688H760.633V670.281ZM815.233 688.614C821.216 688.614 825.588 685.622 826.968 681.173L822.596 679.946C821.446 683.014 818.78 684.548 815.233 684.548C809.921 684.548 806.258 681.116 806.047 674.807H827.429V672.889C827.429 661.92 820.909 658.162 814.772 658.162C806.795 658.162 801.503 664.452 801.503 673.503C801.503 682.554 806.718 688.614 815.233 688.614ZM806.047 670.895C806.354 666.312 809.595 662.227 814.772 662.227C819.682 662.227 822.826 665.909 822.826 670.895H806.047ZM838.839 670.281C838.839 665.142 842.022 662.227 846.356 662.227C850.555 662.227 853.106 664.969 853.106 669.591V688H857.631V669.284C857.631 661.767 853.623 658.162 847.66 658.162C843.211 658.162 840.449 660.156 839.069 663.148H838.685V658.545H834.313V688H838.839V670.281ZM893.898 658.545H887.608V651.489H883.083V658.545H878.634V662.381H883.083V680.79C883.083 685.929 887.225 688.384 891.06 688.384C892.747 688.384 893.821 688.077 894.435 687.847L893.514 683.781C893.131 683.858 892.517 684.011 891.52 684.011C889.526 684.011 887.608 683.398 887.608 679.562V662.381H893.898V658.545ZM919.268 675.957C919.268 681.48 915.049 684.011 911.674 684.011C907.916 684.011 905.231 681.25 905.231 676.955V658.545H900.706V677.261C900.706 684.778 904.694 688.384 910.217 688.384C914.666 688.384 917.581 686.006 918.961 683.014H919.268V688H923.794V658.545H919.268V675.957ZM968.134 665.142C966.715 660.962 963.531 658.162 957.702 658.162C951.489 658.162 946.886 661.69 946.886 666.676C946.886 670.741 949.303 673.464 954.71 674.73L959.619 675.881C962.592 676.571 963.992 677.99 963.992 680.023C963.992 682.554 961.307 684.625 957.088 684.625C953.387 684.625 951.067 683.033 950.261 679.869L945.966 680.943C947.021 685.948 951.144 688.614 957.165 688.614C964.011 688.614 968.671 684.874 968.671 679.793C968.671 675.689 966.101 673.1 960.847 671.815L956.475 670.741C952.984 669.879 951.412 668.709 951.412 666.446C951.412 663.915 954.097 662.074 957.702 662.074C961.652 662.074 963.282 664.26 964.068 666.293L968.134 665.142ZM984.15 688.69C989.29 688.69 991.974 685.929 992.895 684.011H993.125V688H997.65V668.594C997.65 659.236 990.517 658.162 986.758 658.162C982.31 658.162 977.247 659.696 974.946 665.065L979.241 666.599C980.239 664.452 982.597 662.151 986.912 662.151C991.073 662.151 993.125 664.356 993.125 668.134V668.287C993.125 670.473 990.9 670.281 985.531 670.972C980.066 671.681 974.102 672.889 974.102 679.639C974.102 685.392 978.551 688.69 984.15 688.69ZM984.841 684.625C981.236 684.625 978.628 683.014 978.628 679.869C978.628 676.418 981.773 675.344 985.301 674.884C987.219 674.653 992.358 674.116 993.125 673.196V677.338C993.125 681.02 990.21 684.625 984.841 684.625ZM1010.44 648.727H1005.91V688H1010.44V648.727ZM1027.39 688.69C1032.53 688.69 1035.22 685.929 1036.14 684.011H1036.37V688H1040.89V668.594C1040.89 659.236 1033.76 658.162 1030 658.162C1025.55 658.162 1020.49 659.696 1018.19 665.065L1022.48 666.599C1023.48 664.452 1025.84 662.151 1030.15 662.151C1034.32 662.151 1036.37 664.356 1036.37 668.134V668.287C1036.37 670.473 1034.14 670.281 1028.77 670.972C1023.31 671.681 1017.34 672.889 1017.34 679.639C1017.34 685.392 1021.79 688.69 1027.39 688.69ZM1028.08 684.625C1024.48 684.625 1021.87 683.014 1021.87 679.869C1021.87 676.418 1025.01 675.344 1028.54 674.884C1030.46 674.653 1035.6 674.116 1036.37 673.196V677.338C1036.37 681.02 1033.45 684.625 1028.08 684.625ZM1055.14 648.727H1049.92L1050.3 676.955H1054.75L1055.14 648.727ZM1052.53 688.307C1054.43 688.307 1055.98 686.754 1055.98 684.855C1055.98 682.957 1054.43 681.403 1052.53 681.403C1050.63 681.403 1049.08 682.957 1049.08 684.855C1049.08 686.754 1050.63 688.307 1052.53 688.307Z" fill="#B9BBBE"/>
<path d="M765 137.5C765 139.004 764.198 140.461 762.73 141.624C761.262 142.786 759.22 143.582 756.951 143.875C754.682 144.168 752.326 143.941 750.286 143.232C748.246 142.524 746.647 141.377 745.761 139.987C744.876 138.598 744.759 137.052 745.431 135.613C746.102 134.174 747.521 132.931 749.444 132.095C751.368 131.26 753.678 130.884 755.98 131.031C758.283 131.179 760.435 131.84 762.071 132.904L755 137.5H765Z" fill="#FFB8B8"/>
<path d="M780 125.5C780 127.004 779.198 128.461 777.73 129.624C776.262 130.786 774.22 131.582 771.951 131.875C769.682 132.168 767.326 131.941 765.286 131.232C763.246 130.524 761.647 129.377 760.761 127.987C759.876 126.598 759.759 125.052 760.431 123.613C761.102 122.174 762.521 120.931 764.444 120.095C766.368 119.26 768.678 118.884 770.98 119.031C773.283 119.179 775.435 119.84 777.071 120.904L770 125.5H780Z" fill="#FFB8B8"/>
<rect x="431.943" y="120.956" width="339" height="21" transform="rotate(-0.323076 431.943 120.956)" fill="#FFB8B8"/>
<path d="M719.608 795.601L722.593 798.264L726.145 794.283L721.328 791.989L719.608 795.601ZM652.978 870.261L649.993 867.598L646.02 872.05L651.648 874.034L652.978 870.261ZM750.916 904.779L753.662 907.688L758.432 903.187L752.246 901.007L750.916 904.779ZM693.919 958.566L691.174 955.657L689.812 956.942L689.927 958.812L693.919 958.566ZM694.481 1013.74C696.136 1015.21 698.664 1015.05 700.127 1013.4L723.971 986.424C725.435 984.769 725.279 982.241 723.624 980.778C721.969 979.315 719.441 979.471 717.978 981.126L696.783 1005.1L672.808 983.905C671.153 982.442 668.625 982.598 667.162 984.253C665.699 985.908 665.855 988.436 667.51 989.899L694.481 1013.74ZM633.597 759.08L717.889 799.212L721.328 791.989L637.036 751.857L633.597 759.08ZM716.624 792.937L649.993 867.598L655.962 872.925L722.593 798.264L716.624 792.937ZM651.648 874.034L749.587 908.552L752.246 901.007L654.307 866.489L651.648 874.034ZM748.171 901.87L691.174 955.657L696.665 961.475L753.662 907.688L748.171 901.87ZM689.927 958.812L693.138 1010.99L701.123 1010.5L697.912 958.32L689.927 958.812Z" fill="#B9BBBE"/>
</svg>
