<svg width="20" height="20" viewBox="0 0 20 20" fill="none" xmlns="http://www.w3.org/2000/svg">
<path d="M1.815 0.0125122C1.83575 0.0108337 1.8533 0 1.87497 0H10.8333C12.2116 0 13.3333 1.12167 13.3333 2.5V3.33328C13.3333 3.79333 12.96 4.16672 12.5 4.16672C12.0399 4.16672 11.6667 3.79333 11.6667 3.33328V2.5C11.6667 2.04086 11.2925 1.66672 10.8333 1.66672H6.9508L7.20502 1.75171C7.87991 1.98502 8.33325 2.62085 8.33325 3.33328V15.8333H10.8333C11.2925 15.8333 11.6667 15.4591 11.6667 15V13.3333C11.6667 12.8734 12.0399 12.5 12.5 12.5C12.96 12.5 13.3333 12.8734 13.3333 13.3333V15C13.3333 16.3783 12.2116 17.5 10.8333 17.5H8.33325V18.3333C8.33325 19.2525 7.58588 20 6.66669 20C6.48831 20 6.31909 19.9742 6.13583 19.9174L1.12912 18.2483C0.453305 18.015 -3.33786e-05 17.3792 -3.33786e-05 16.6667V1.66672C-3.33786e-05 0.695038 0.837523 -0.0666809 1.815 0.0125122Z" fill="#CCCCCC"/>
<path d="M11.0776 7.74415L14.4109 4.41087C14.6492 4.17252 15.0075 4.10081 15.3192 4.23005C15.63 4.35914 15.8333 4.6634 15.8333 5.00001V7.50001H19.1667C19.6266 7.50001 20 7.87339 20 8.33329C20 8.79334 19.6266 9.16673 19.1667 9.16673H15.8333V11.6667C15.8333 12.0033 15.63 12.3074 15.3192 12.4367C15.0075 12.5658 14.6492 12.4942 14.4109 12.2559L11.0776 8.92243C10.7516 8.59666 10.7516 8.07008 11.0776 7.74415Z" fill="#CCCCCC"/>
</svg>
