<svg width="560" height="560" viewBox="0 0 560 560" fill="none" xmlns="http://www.w3.org/2000/svg">
<path d="M4.7759 307.635L116.145 218.479C119.231 216.039 123.353 214.667 127.66 214.667C131.968 214.667 136.104 216.038 139.161 218.479L158.575 234.032C164.91 239.123 164.91 247.36 158.575 252.449L78.1473 316.842L158.575 381.28C164.91 386.371 164.93 394.607 158.575 399.697L139.161 415.254C136.102 417.696 131.968 419.067 127.66 419.067C123.353 419.067 119.231 417.696 116.145 415.254L4.7759 326.05C1.70866 323.611 0.000172536 320.291 0.000172536 316.842C0.000172536 313.393 1.71048 310.073 4.7759 307.635Z" fill="black"/>
<path d="M239.386 205.469L285.96 221.392L320.677 179.86V173.535C320.677 148.334 343.411 127.896 371.447 127.896H393.143C409.958 127.896 424.774 135.342 434.016 146.685L497.852 175.768C502.791 178.027 506.771 181.684 509.178 186.174L546.176 255.406C552.198 266.697 546.906 280.237 534.352 285.667C530.852 287.18 527.12 287.907 523.462 287.907C514.064 287.907 505.045 283.168 500.707 275.048L467.411 212.74L443.902 202.034V338.312L437.841 406.022L542.532 456.898C558.705 464.76 564.738 482.913 555.983 497.454C549.982 507.471 538.508 513.155 526.694 513.155C521.328 513.155 515.911 511.993 510.887 509.552L386.484 449.093C374.562 443.302 367.723 431.587 369.217 419.48L374.855 373.616L338.763 432.036V530.079C338.763 546.6 323.842 560 305.464 560C287.083 560 272.177 546.602 272.177 530.079V424.28C272.177 419.196 273.632 414.192 276.373 409.749L320.677 338.31V255.323L314.885 262.257C310.015 268.085 302.497 271.316 294.733 271.316C291.711 271.316 288.682 270.839 285.763 269.839L221.467 247.85C208.441 243.394 201.899 230.298 206.869 218.601C211.804 206.905 226.352 200.981 239.386 205.469Z" fill="black"/>
<path d="M377.137 123.328C341.41 123.328 312.43 95.7293 312.43 61.6665C312.43 27.5986 341.41 0 377.137 0C412.901 0 441.882 27.5986 441.882 61.6678C441.882 95.7306 412.902 123.328 377.137 123.328Z" fill="black"/>
</svg>
