<svg width="20" height="21" viewBox="0 0 20 21" fill="none" xmlns="http://www.w3.org/2000/svg">
<path d="M9.9668 18.3666H2.49168C2.0332 18.3666 1.66113 17.9932 1.66113 17.5333V2.53323C1.66113 2.07322 2.03324 1.69991 2.49168 1.69991H9.9668C10.4261 1.69991 10.7973 1.32742 10.7973 0.866597C10.7973 0.405769 10.4261 0.0332031 9.9668 0.0332031H2.49168C1.11793 0.0332031 0 1.1549 0 2.53323V17.5332C0 18.9115 1.11793 20.0332 2.49168 20.0332H9.9668C10.4261 20.0332 10.7973 19.6607 10.7973 19.1999C10.7973 18.7391 10.4261 18.3666 9.9668 18.3666Z" fill="#CCCCCC"/>
<path d="M19.7525 9.43987L14.7027 4.43986C14.3771 4.11652 13.8505 4.12072 13.5282 4.44821C13.206 4.7757 13.2093 5.3032 13.5366 5.62654L17.1454 9.19986H7.47508C7.01578 9.19986 6.64453 9.57234 6.64453 10.0332C6.64453 10.494 7.01578 10.8665 7.47508 10.8665H17.1454L13.5366 14.4398C13.2093 14.7632 13.2068 15.2907 13.5282 15.6182C13.691 15.7832 13.9053 15.8665 14.1196 15.8665C14.3306 15.8665 14.5415 15.7865 14.7027 15.6265L19.7525 10.6265C19.9103 10.4698 20 10.2565 20 10.0331C20 9.80989 19.9111 9.59739 19.7525 9.43987Z" fill="#CCCCCC"/>
</svg>
