<svg width="1400" height="1400" viewBox="0 0 1400 1400" fill="none" xmlns="http://www.w3.org/2000/svg">
<rect width="1400" height="1400" fill="#FFB8B8"/>
<path fill-rule="evenodd" clip-rule="evenodd" d="M637.688 180.417C477.599 203.356 336.764 358.156 305.221 545.866C254.939 845.042 491.57 1174.39 788.067 1217.92L806.633 1220.64L828.311 1209.98C958.292 1146.09 1049.01 1058.77 1081.67 966.117C1106.61 895.365 1108.37 819.903 1088.33 679.398L1083.52 645.656L1086.49 634.887C1093.34 610.122 1090.21 574.513 1079.19 551.609L1074.01 540.84L1073.95 487.714C1073.88 431.694 1073.44 426.33 1066.54 398.693C1049.52 330.531 1004.17 274.24 959.096 265.315C857.862 245.277 760.653 280.679 711.055 355.658C691.048 385.902 673.964 429.839 677.111 442.957C679.063 451.101 678.093 465.804 675.129 472.891L673.137 477.664L683.318 477.704C695.751 477.756 702.711 481 711.261 490.707L717.159 497.415L722.614 492.481C750.494 467.291 784.392 456.597 876.548 443.939C944.194 434.64 979.534 424.509 1006.62 406.642L1011.07 403.707L1015.6 413.539C1026.65 437.529 1031.6 458.883 1031.6 482.666C1031.6 506.472 1031.36 507.098 1022.34 507.098C992.764 507.098 967.176 531.95 956.966 570.585L953.738 582.818L948.518 581.606C945.653 580.94 939.663 580.377 935.207 580.36L927.116 580.326L926.174 575.323C924.566 566.76 912.961 545.538 905.007 536.642C859.636 485.865 777.099 504.692 756.018 570.637C753.928 577.178 756.133 577.104 720.421 571.837C704.824 569.534 690.089 567.977 687.671 568.368L683.272 569.086L688.354 574.169L693.431 579.246L721.466 583.335C736.879 585.587 750.04 587.442 750.712 587.465C751.384 587.488 751.493 591.267 750.959 595.867C746.928 630.609 768.91 672.173 799.874 688.352C858.786 719.142 925.704 677.112 929.287 607.072L930.091 591.456L939.732 592.145C952.395 593.053 952.636 593.271 952.636 603.913C952.636 649.688 980.246 693.188 1012.07 697.547C1020.04 698.644 1019.96 697.886 1014.48 720.354C994.2 803.402 954.301 863.127 916.492 867.033C884.788 870.301 820.001 852.41 749.495 820.902C727.943 811.271 665.103 779.665 661.382 776.581C659.78 775.26 659.504 769.029 659.941 744.045C660.233 727.045 660.314 703.032 660.124 690.684L659.768 668.222L654.365 666.062C637.694 659.388 618.238 637.432 613.587 620.041C612.249 615.033 610.871 613.068 607.822 611.805C590.807 604.758 581.808 574.554 590.204 552.683C591.013 550.564 590.301 550.167 585.627 550.144C555.444 549.972 543.213 504.353 566.303 478.054C574.957 468.193 590.6 464.115 601.269 468.939C603.452 469.927 603.779 469.244 603.779 463.719C603.779 456.54 607.247 443.462 610.498 438.379C611.692 436.518 614.196 427.473 616.074 418.278C637.832 311.486 700.351 243.479 799.742 218.484C817.17 214.102 843.448 209.961 855.272 209.737L862.909 209.588L849.989 205.401C788.016 185.305 686.752 173.393 637.688 180.417ZM713.564 300.798C686.299 322.404 665.511 353.137 653.314 389.877C646.027 411.828 645.722 414.613 650.483 415.808C655.519 417.071 655.071 417.858 658.993 400.657C668.767 357.749 690.255 321.29 720.065 297.036C723.619 294.147 726.186 291.769 725.767 291.752C725.353 291.735 719.864 295.807 713.564 300.798ZM679.448 796.131C709.292 820.104 743.488 843.749 781.216 866.504L797.146 876.113L797.956 942.512C798.501 987.453 798.283 1009.21 797.284 1009.83C786.155 1016.71 722.189 1014.85 690.634 1006.75C667.021 1000.67 628.185 982.56 628.185 977.621C628.185 976.903 630.166 970.413 632.595 963.188C644.218 928.544 653.101 876.952 656.851 822.264C658.918 792.117 659.883 781.342 660.509 781.342C660.796 781.342 669.312 787.999 679.448 796.131Z" fill="#16496E"/>
<path fill-rule="evenodd" clip-rule="evenodd" d="M842.247 211.523C723.148 223.975 641.409 298.041 617.474 415.205C616.262 421.126 614.896 427.576 614.436 429.54C613.678 432.802 614.052 432.647 618.806 427.748C624.899 421.471 629.556 418.858 638.75 416.543C644.205 415.165 645.589 414.159 646.238 411.081C657.35 358.329 691.799 309.562 735.138 285.227C744.171 280.156 742.282 282.074 729.395 291.045C694.929 315.047 668.967 356.571 659.096 403.494C656.161 417.456 656.15 417.382 662.019 421.006C664.833 422.752 668.806 426.691 670.839 429.764L674.543 435.358L680.802 416.623C708.217 334.603 768.33 279.984 848.122 264.592C884.282 257.619 937.291 257.998 963.402 265.419C969.047 267.021 959.658 258.756 944.222 248.533C925.841 236.357 903.422 224.796 881.773 216.33C864.338 209.513 863.012 209.352 842.247 211.523ZM1005.49 408.118C983.518 424.526 945.715 435.094 872.24 445.375C803.91 454.931 776.49 461.594 750.304 474.976C735.506 482.545 717.773 496.186 718.209 499.672C718.376 500.993 719.49 506.271 720.69 511.406C725.249 530.898 717.02 551.971 700.608 562.849C696.824 565.353 694.648 567.42 695.773 567.443C696.893 567.466 710.083 569.35 725.089 571.624C740.094 573.899 752.773 575.329 753.267 574.812C753.761 574.289 755.265 570.482 756.603 566.341C782.807 485.561 898.529 488.501 925.456 570.637L928.632 580.326L938.124 580.343C943.338 580.354 948.903 580.705 950.482 581.124C953.014 581.79 953.646 580.641 955.834 571.412C964.976 532.794 999.856 500.16 1025.19 506.524C1037.44 509.596 1032.07 454.908 1016.48 417.72C1010.66 403.845 1010.92 404.068 1005.49 408.118ZM643.258 560.712C598.501 575.536 603.25 640.286 650.758 663.024L659.475 667.194L660.434 677.244C660.968 682.775 661.192 707.144 660.945 731.398L660.485 775.501L686.327 789.119C800.407 849.229 898.788 877.922 933.254 861.146C965.481 845.461 1000.23 782.416 1015.77 711.446L1018.35 699.695L1012.41 698.719C980.268 693.435 952.681 651.899 952.647 608.732C952.635 594.655 952.055 593.822 941.868 593.196C929.832 592.461 930.406 591.841 930.199 605.82C929.2 674.206 860.474 719.728 802.446 690.431C769.369 673.735 750.31 641.389 750.235 601.817L750.212 588.131L721.982 584.156L693.746 580.182L686.143 573.227C672.769 561.005 656.609 556.29 643.258 560.712ZM953.491 655.506C959.228 672.529 948.311 688.013 930.567 688.013H924.899L933.714 683.608C949.77 675.585 952.222 667.751 946.031 644.22C944.492 638.368 951.062 648.309 953.491 655.506ZM929.028 733.989C931.744 735.022 934.248 734.965 937.498 733.787C953.542 727.987 968.163 745.062 955.966 755.354L951.544 759.087L954.513 763.021C957.355 766.789 957.378 767.179 955.116 771.935C947.254 788.412 909.101 785.943 879.78 767.053C866.48 758.49 865.918 757.634 872.803 756.52C879.625 755.411 899.178 746.17 905.621 741.007C915.211 733.322 921.953 731.301 929.028 733.989ZM659.17 801.26C655.868 866.246 644.01 937.997 631.204 970.499L628.282 977.908L638.739 984.427C673.165 1005.89 724.974 1016.87 771.775 1012.63C797.398 1010.31 798.328 1009.97 798.202 1003.06C798.139 999.968 797.57 970.16 796.933 936.82L795.767 876.205L785.551 870.157C749.994 849.096 708.55 820.541 678.281 796.235L660.17 781.698L659.17 801.26Z" fill="white"/>
<path fill-rule="evenodd" clip-rule="evenodd" d="M638.498 416.739C620.013 420.38 603.778 442.296 603.778 463.61C603.778 469.244 603.457 469.928 601.269 468.94C590.599 464.115 574.957 468.193 566.303 478.054C543.212 504.353 555.444 549.972 585.626 550.145C590.301 550.168 591.013 550.564 590.203 552.683C581.406 575.611 594.585 613.597 611.244 613.344C611.479 613.339 611.686 608.33 611.703 602.214C611.778 569.402 646.526 548.341 674.463 564.176C684.306 569.753 686.528 569.885 695.348 565.393C736.235 544.579 727.087 477.888 683.318 477.704L673.136 477.664L675.341 472.638C681.538 458.544 677.989 438.322 667.222 426.382C658.499 416.704 651.171 414.246 638.498 416.739ZM947.582 647.81C952.331 666.643 949.098 675.522 934.656 683.304C925.45 688.266 927.322 689.691 938.606 686.308C951.452 682.46 957.413 670.893 953.497 657.419C951.165 649.413 945.779 640.654 947.582 647.81ZM917.462 734.224C915.097 735.069 909.796 738.319 905.69 741.438C898.162 747.17 877.891 756.882 873.4 756.916C868.111 756.956 869.702 759.926 878.063 765.606C904.553 783.594 938.388 788.344 951.561 775.915C956.018 771.711 956.936 764.216 953.353 761.241C950.401 758.794 950.654 757.301 954.197 756.175C958.418 754.837 961.289 747.434 959.544 742.414C956.816 734.598 951.958 733.081 933.254 734.224C930.888 734.368 927.334 734.081 925.358 733.587C923.383 733.093 919.828 733.38 917.462 734.224Z" fill="#EA655B"/>
<path fill-rule="evenodd" clip-rule="evenodd" d="M951.826 847.753L947.611 852.416L952.28 848.201C954.841 845.88 956.942 843.778 956.942 843.531C956.942 842.423 955.759 843.399 951.826 847.753Z" fill="#6C8CA4"/>
</svg>
