<svg id="Capa_1" enable-background="new 0 0 524.236 524.236" height="512" viewBox="0 0 524.236 524.236" width="512" xmlns="http://www.w3.org/2000/svg"><path d="m196.589 278.5v16.382h131.059v-16.382c0-63.226 51.435-114.676 114.676-114.676 3.984 0 7.979.37 11.971.78-14.374-56.769-65.475-99.074-126.647-99.074h-131.059c-61.172 0-112.273 42.306-126.647 99.074 3.992-.41 7.987-.78 11.971-.78 63.241 0 114.676 51.45 114.676 114.676z"/><path d="m520.938 255.033c-7.523-26.801-29.639-48.543-56.577-55.57-54.734-14.281-103.95 26.629-103.95 79.038v49.147h-196.587v-49.148c0-52.409-49.215-93.318-103.95-79.038-26.937 7.027-49.053 28.769-56.576 55.57-7.837 27.919-1.134 54.163 14.057 73.509 9.489 12.087 15.41 26.535 15.41 41.9v55.5h65.529v32.765h65.529v-32.765h196.588v32.765h65.529v-32.765h65.529v-55.5c0-15.364 5.921-29.813 15.41-41.9 15.193-19.346 21.896-45.589 14.059-73.508zm-439.027 39.85c-9.047 0-16.382-7.335-16.382-16.382 0-9.049 7.335-16.382 16.382-16.382s16.382 7.333 16.382 16.382c0 9.046-7.335 16.382-16.382 16.382zm360.412 0c-9.047 0-16.382-7.335-16.382-16.382 0-9.049 7.335-16.382 16.382-16.382s16.382 7.333 16.382 16.382c0 9.046-7.335 16.382-16.382 16.382z"/></svg>