<svg width="806" height="979" viewBox="0 0 806 979" fill="none" xmlns="http://www.w3.org/2000/svg">
<path d="M119 256C119 181.442 179.442 121 254 121H587V491H119V256Z" fill="#72767D"/>
<path d="M363.668 765.923C378.18 753.659 386.995 734.284 384.683 715.422C382.372 696.56 368.054 679.221 349.481 675.216C330.909 671.21 309.738 682.298 304.097 700.443C300.993 665.459 297.415 629.009 278.819 599.216C261.98 572.24 232.815 552.937 201.207 549.484C169.599 546.03 136.32 559.073 116.608 584.025C96.8948 608.978 92.0682 645.254 105.875 673.902C116.045 695.006 134.783 710.711 154.416 723.489C217.856 764.429 293.944 781.078 368.68 770.372" fill="#B9BBBE"/>
<path d="M147.864 559.796C173.945 581.043 197.871 604.806 219.296 630.742C252.827 671.192 279.961 716.544 299.752 765.218C301.201 768.769 295.436 770.314 294.004 766.803C281.418 736.029 265.847 706.562 247.514 678.826C218.926 635.499 183.902 596.783 143.649 564.012C140.672 561.588 144.912 557.392 147.864 559.796V559.796Z" fill="#3E4148"/>
<path d="M373.692 765.923C359.18 753.659 350.365 734.284 352.677 715.422C354.988 696.56 369.306 679.221 387.878 675.216C406.451 671.21 427.622 682.298 433.263 700.443C436.367 665.459 439.945 629.009 458.541 599.216C475.38 572.24 504.544 552.937 536.152 549.484C567.76 546.03 601.039 559.073 620.752 584.025C640.465 608.978 645.291 645.254 631.485 673.902C621.315 695.006 602.577 710.711 582.944 723.489C519.504 764.429 443.416 781.078 368.68 770.372" fill="#B9BBBE"/>
<path d="M589.496 559.796C563.415 581.043 539.489 604.806 518.063 630.742C484.532 671.192 457.399 716.544 437.608 765.218C436.159 768.769 441.924 770.314 443.356 766.803C475.738 687.698 527.432 617.975 593.711 564.012C596.687 561.588 592.447 557.392 589.496 559.796V559.796Z" fill="#3E4148"/>
<path d="M416.755 348.182C443.602 348.182 465.366 326.414 465.366 299.562C465.366 272.71 443.602 250.942 416.755 250.942C389.908 250.942 368.145 272.71 368.145 299.562C368.145 326.414 389.908 348.182 416.755 348.182Z" fill="#B9BBBE"/>
<path d="M266.876 131.961H601.789V150.288H309.63C292.452 150.288 275.443 153.672 259.572 160.247C243.702 166.822 229.282 176.459 217.135 188.608C204.989 200.757 195.354 215.179 188.78 231.053C182.206 246.926 178.823 263.939 178.823 281.12V489.337H142.176C140.556 489.337 139.002 488.694 137.857 487.548C136.712 486.402 136.068 484.849 136.068 483.228V262.793C136.068 245.612 139.451 228.599 146.025 212.726C152.599 196.852 162.234 182.429 174.381 170.281C186.527 158.132 200.947 148.495 216.818 141.92C232.688 135.345 249.698 131.961 266.876 131.961V131.961Z" fill="#B9BBBE"/>
<path d="M331.295 766.942V488.553H412.835V766.942C412.833 768.813 412.089 770.607 410.766 771.931C409.443 773.254 407.649 773.998 405.779 774H338.351C336.48 773.998 334.687 773.254 333.364 771.931C332.041 770.607 331.297 768.813 331.295 766.942Z" fill="#3E4148"/>
<path d="M118.819 483.064V256.691C118.86 220.654 133.191 186.105 158.668 160.623C184.145 135.141 218.688 120.807 254.718 120.766H600.221V490.906H126.66C124.581 490.903 122.588 490.076 121.118 488.606C119.648 487.136 118.821 485.143 118.819 483.064V483.064ZM597.085 123.903H254.718C219.519 123.943 185.774 137.946 160.884 162.84C135.995 187.734 121.995 221.486 121.955 256.691V483.064C121.957 484.311 122.453 485.507 123.335 486.389C124.217 487.272 125.412 487.768 126.66 487.769H597.085V123.903Z" fill="#3E4148"/>
<path d="M416.755 324.657C409.272 324.648 402.098 321.671 396.806 316.379C391.515 311.086 388.538 303.91 388.53 296.426V94.1033C388.528 92.8559 388.032 91.6599 387.15 90.7778C386.268 89.8957 385.073 89.3995 383.825 89.3982H274.06C271.981 89.3958 269.988 88.5688 268.518 87.0987C267.048 85.6285 266.222 83.6353 266.219 81.5562V7.84195C266.222 5.76287 267.048 3.76963 268.518 2.2995C269.988 0.829375 271.981 0.00240754 274.06 0H437.14C439.219 0.00237854 441.212 0.829344 442.682 2.29948C444.152 3.76961 444.978 5.76286 444.981 7.84195V296.426C444.972 303.91 441.996 311.086 436.704 316.379C431.413 321.671 424.239 324.648 416.755 324.657Z" fill="#3E4148"/>
<path d="M523 205C523 155.847 562.847 116 612 116V116C661.153 116 701 155.847 701 205V489H523V205Z" fill="#3E4148"/>
<path d="M416.755 307.404C422.818 307.404 427.732 302.489 427.732 296.426C427.732 290.362 422.818 285.447 416.755 285.447C410.693 285.447 405.779 290.362 405.779 296.426C405.779 302.489 410.693 307.404 416.755 307.404Z" fill="#3E4148"/>
<path d="M603 464H779C793.912 464 806 476.088 806 491V491H603V464Z" fill="#3E4148"/>
<path d="M308.649 831.727H303.663L318.083 871H322.992L337.413 831.727H332.427L320.768 864.787H320.308L308.649 831.727ZM348.842 871.69C353.981 871.69 356.666 868.929 357.586 867.011H357.816V871H362.342V851.594C362.342 842.236 355.208 841.162 351.45 841.162C347.001 841.162 341.938 842.696 339.637 848.065L343.933 849.599C344.93 847.452 347.289 845.151 351.603 845.151C355.764 845.151 357.816 847.356 357.816 851.134V851.287C357.816 853.473 355.592 853.281 350.223 853.972C344.757 854.681 338.794 855.889 338.794 862.639C338.794 868.392 343.242 871.69 348.842 871.69ZM349.532 867.625C345.927 867.625 343.319 866.014 343.319 862.869C343.319 859.418 346.464 858.344 349.992 857.884C351.91 857.653 357.049 857.116 357.816 856.196V860.338C357.816 864.02 354.902 867.625 349.532 867.625ZM382.568 871.614C389.088 871.614 393.383 867.625 394.15 862.409H389.625C388.781 865.631 386.096 867.548 382.568 867.548C377.199 867.548 373.747 863.099 373.747 856.273C373.747 849.599 377.275 845.227 382.568 845.227C386.557 845.227 388.934 847.682 389.625 850.366H394.15C393.383 844.844 388.704 841.162 382.491 841.162C374.514 841.162 369.221 847.452 369.221 856.426C369.221 865.247 374.284 871.614 382.568 871.614ZM400.766 871H405.292V841.545H400.766V871ZM403.067 836.636C404.831 836.636 406.289 835.256 406.289 833.568C406.289 831.881 404.831 830.5 403.067 830.5C401.303 830.5 399.846 831.881 399.846 833.568C399.846 835.256 401.303 836.636 403.067 836.636ZM425.546 871.614C433.524 871.614 438.893 865.554 438.893 856.426C438.893 847.222 433.524 841.162 425.546 841.162C417.569 841.162 412.2 847.222 412.2 856.426C412.2 865.554 417.569 871.614 425.546 871.614ZM425.546 867.548C419.487 867.548 416.725 862.332 416.725 856.426C416.725 850.52 419.487 845.227 425.546 845.227C431.606 845.227 434.367 850.52 434.367 856.426C434.367 862.332 431.606 867.548 425.546 867.548ZM449.1 871.307C450.998 871.307 452.551 869.754 452.551 867.855C452.551 865.957 450.998 864.403 449.1 864.403C447.201 864.403 445.648 865.957 445.648 867.855C445.648 869.754 447.201 871.307 449.1 871.307ZM146.872 909C145.414 900.946 138.971 896.19 131.07 896.19C121.022 896.19 113.735 903.938 113.735 916.364C113.735 928.79 121.022 936.537 131.07 936.537C138.971 936.537 145.414 931.781 146.872 923.727H142.116C140.965 929.173 136.286 932.088 131.07 932.088C123.937 932.088 118.338 926.565 118.338 916.364C118.338 906.162 123.937 900.639 131.07 900.639C136.286 900.639 140.965 903.554 142.116 909H146.872ZM165.909 936.614C173.886 936.614 179.255 930.554 179.255 921.426C179.255 912.222 173.886 906.162 165.909 906.162C157.931 906.162 152.562 912.222 152.562 921.426C152.562 930.554 157.931 936.614 165.909 936.614ZM165.909 932.548C159.849 932.548 157.088 927.332 157.088 921.426C157.088 915.52 159.849 910.227 165.909 910.227C171.968 910.227 174.73 915.52 174.73 921.426C174.73 927.332 171.968 932.548 165.909 932.548ZM186.164 936H190.689V917.591C190.689 913.276 193.834 910.227 197.362 910.227C200.795 910.227 203.192 912.471 203.192 915.827V936H207.794V916.824C207.794 913.027 210.172 910.227 214.314 910.227C217.536 910.227 220.297 911.934 220.297 916.287V936H224.823V916.287C224.823 909.364 221.102 906.162 215.848 906.162C211.629 906.162 208.542 908.099 207.027 911.148H206.72C205.263 908.003 202.693 906.162 198.82 906.162C194.985 906.162 192.146 908.003 190.919 911.148H190.536V906.545H186.164V936ZM245.063 936.614C253.04 936.614 258.41 930.554 258.41 921.426C258.41 912.222 253.04 906.162 245.063 906.162C237.086 906.162 231.716 912.222 231.716 921.426C231.716 930.554 237.086 936.614 245.063 936.614ZM245.063 932.548C239.003 932.548 236.242 927.332 236.242 921.426C236.242 915.52 239.003 910.227 245.063 910.227C251.123 910.227 253.884 915.52 253.884 921.426C253.884 927.332 251.123 932.548 245.063 932.548ZM280.505 936H285.031V917.591C285.031 913.276 288.176 910.227 291.704 910.227C295.137 910.227 297.534 912.471 297.534 915.827V936H302.136V916.824C302.136 913.027 304.514 910.227 308.656 910.227C311.877 910.227 314.639 911.934 314.639 916.287V936H319.164V916.287C319.164 909.364 315.444 906.162 310.19 906.162C305.971 906.162 302.884 908.099 301.369 911.148H301.062C299.605 908.003 297.035 906.162 293.162 906.162C289.326 906.162 286.488 908.003 285.261 911.148H284.877V906.545H280.505V936ZM327.439 936H331.964V906.545H327.439V936ZM329.74 901.636C331.504 901.636 332.962 900.256 332.962 898.568C332.962 896.881 331.504 895.5 329.74 895.5C327.976 895.5 326.518 896.881 326.518 898.568C326.518 900.256 327.976 901.636 329.74 901.636ZM379.526 906.545H374.617L366.486 930.017H366.18L358.049 906.545H353.14L364.032 936H368.634L379.526 906.545ZM385.499 936H390.025V906.545H385.499V936ZM387.801 901.636C389.565 901.636 391.022 900.256 391.022 898.568C391.022 896.881 389.565 895.5 387.801 895.5C386.036 895.5 384.579 896.881 384.579 898.568C384.579 900.256 386.036 901.636 387.801 901.636ZM409.436 936.614C415.112 936.614 417.03 933.085 418.027 931.474H418.564V936H422.936V896.727H418.411V911.224H418.027C417.03 909.69 415.266 906.162 409.513 906.162C402.072 906.162 396.933 912.068 396.933 921.349C396.933 930.707 402.072 936.614 409.436 936.614ZM410.05 932.548C404.374 932.548 401.459 927.562 401.459 921.273C401.459 915.06 404.297 910.227 410.05 910.227C415.572 910.227 418.487 914.676 418.487 921.273C418.487 927.946 415.496 932.548 410.05 932.548ZM440.521 936.69C445.66 936.69 448.344 933.929 449.265 932.011H449.495V936H454.021V916.594C454.021 907.236 446.887 906.162 443.129 906.162C438.68 906.162 433.617 907.696 431.316 913.065L435.612 914.599C436.609 912.452 438.967 910.151 443.282 910.151C447.443 910.151 449.495 912.356 449.495 916.134V916.287C449.495 918.473 447.271 918.281 441.901 918.972C436.436 919.681 430.472 920.889 430.472 927.639C430.472 933.392 434.921 936.69 440.521 936.69ZM441.211 932.625C437.606 932.625 434.998 931.014 434.998 927.869C434.998 924.418 438.143 923.344 441.671 922.884C443.589 922.653 448.728 922.116 449.495 921.196V925.338C449.495 929.02 446.58 932.625 441.211 932.625ZM498.332 913.142C496.913 908.962 493.73 906.162 487.9 906.162C481.687 906.162 477.085 909.69 477.085 914.676C477.085 918.741 479.501 921.464 484.909 922.73L489.818 923.881C492.79 924.571 494.19 925.99 494.19 928.023C494.19 930.554 491.505 932.625 487.286 932.625C483.585 932.625 481.265 931.033 480.46 927.869L476.164 928.943C477.219 933.948 481.342 936.614 487.363 936.614C494.209 936.614 498.869 932.874 498.869 927.793C498.869 923.689 496.299 921.1 491.045 919.815L486.673 918.741C483.183 917.879 481.61 916.709 481.61 914.446C481.61 911.915 484.295 910.074 487.9 910.074C491.85 910.074 493.48 912.26 494.267 914.293L498.332 913.142ZM505.681 936H510.207V906.545H505.681V936ZM507.982 901.636C509.746 901.636 511.204 900.256 511.204 898.568C511.204 896.881 509.746 895.5 507.982 895.5C506.218 895.5 504.761 896.881 504.761 898.568C504.761 900.256 506.218 901.636 507.982 901.636ZM523.021 918.281C523.021 913.142 526.204 910.227 530.538 910.227C534.738 910.227 537.288 912.969 537.288 917.591V936H541.814V917.284C541.814 909.767 537.806 906.162 531.842 906.162C527.393 906.162 524.632 908.156 523.251 911.148H522.868V906.545H518.496V936H523.021V918.281ZM577.62 936.614C583.603 936.614 587.975 933.622 589.356 929.173L584.984 927.946C583.833 931.014 581.168 932.548 577.62 932.548C572.309 932.548 568.646 929.116 568.435 922.807H589.816V920.889C589.816 909.92 583.297 906.162 577.16 906.162C569.183 906.162 563.89 912.452 563.89 921.503C563.89 930.554 569.106 936.614 577.62 936.614ZM568.435 918.895C568.742 914.312 571.983 910.227 577.16 910.227C582.069 910.227 585.214 913.909 585.214 918.895H568.435ZM601.226 896.727H596.701V936H601.226V896.727ZM614.041 896.727H609.515V936H614.041V896.727ZM630.997 936.69C636.136 936.69 638.821 933.929 639.741 932.011H639.972V936H644.497V916.594C644.497 907.236 637.364 906.162 633.605 906.162C629.156 906.162 624.094 907.696 621.793 913.065L626.088 914.599C627.085 912.452 629.444 910.151 633.759 910.151C637.92 910.151 639.972 912.356 639.972 916.134V916.287C639.972 918.473 637.747 918.281 632.378 918.972C626.913 919.681 620.949 920.889 620.949 927.639C620.949 933.392 625.398 936.69 630.997 936.69ZM631.688 932.625C628.082 932.625 625.474 931.014 625.474 927.869C625.474 924.418 628.619 923.344 632.148 922.884C634.065 922.653 639.205 922.116 639.972 921.196V925.338C639.972 929.02 637.057 932.625 631.688 932.625ZM656.056 936.307C657.954 936.307 659.507 934.754 659.507 932.855C659.507 930.957 657.954 929.403 656.056 929.403C654.157 929.403 652.604 930.957 652.604 932.855C652.604 934.754 654.157 936.307 656.056 936.307Z" fill="#B9BBBE"/>
</svg>
