<svg width="1035" height="950" viewBox="0 0 1035 950" fill="none" xmlns="http://www.w3.org/2000/svg">
<path fill-rule="evenodd" clip-rule="evenodd" d="M260.619 44.0975C259.302 45.5535 259.095 48.3751 259.108 64.6139C259.124 87.882 260.425 91.6217 266.761 86.6355L269.236 84.6907V65.4622V46.2337L266.805 44.3225C263.818 41.9742 262.584 41.9277 260.619 44.0975ZM266.029 47.3871C267.977 50.3587 267.824 80.4157 265.843 83.6717C261.971 90.0441 260.937 86.1338 260.937 65.1105C260.937 45.2458 262.062 41.3302 266.029 47.3871ZM195.658 73.9449C192.741 76.8596 194.386 79.4432 207.687 92.8605C221.053 106.34 223.314 107.907 226.735 106.076C231.748 103.394 229.601 99.6467 214.595 84.8872C202.007 72.5096 198.894 70.7096 195.658 73.9449ZM213.827 86.4364C220.376 92.9019 225.82 99.0234 225.923 100.037C226.684 107.444 223.148 105.851 209.991 92.8683C198.216 81.2458 195.883 78.2691 196.755 75.9932C198.146 72.3699 201.922 74.6794 213.827 86.4364ZM278.917 121.208C269.803 122.648 251.717 134.703 251.717 139.337C251.717 139.803 250.695 141.73 249.448 143.62C243.914 152.007 243.435 157.627 243.404 214.366C243.376 273.068 243.854 269.25 235.374 278.23C232.852 280.899 229.616 285.257 228.184 287.91C226.753 290.563 224.265 294.394 222.657 296.424C219.827 299.99 217.818 303.414 209.94 318.091C195.733 344.556 188.321 363.585 179.956 395.077C164.576 452.985 166.57 527.215 184.925 579.94C188.191 589.32 190.866 597.412 190.868 597.919C190.871 598.423 191.53 600.084 192.335 601.604C193.139 603.128 195.229 608.313 196.98 613.131C198.731 617.947 201.146 623.342 202.349 625.116C204.271 627.953 208.665 636.195 217.58 653.699C219 656.486 221.214 659.745 222.496 660.935C223.779 662.127 225.349 664.408 225.983 666.006C227.294 669.309 232.089 676.183 237.215 682.108C239.129 684.319 241.26 687.441 241.948 689.047C245.158 696.506 250.431 700.682 253.491 698.184L255.467 696.57L255.423 430.071C255.394 253.565 255.697 161.907 256.315 158.643C258.032 149.592 266.332 137.747 272.218 135.952C273.367 135.6 276.176 134.431 278.457 133.35L282.605 131.385L476.373 131.142C602.477 130.984 670.976 131.217 672.535 131.811L674.935 132.722V155.103C674.935 183.016 676.598 188.881 687.569 199.679C699.309 211.229 705.731 213.225 732.561 213.665C751.679 213.975 754.848 214.231 755.851 215.532C756.774 216.735 757.005 265.394 756.989 455.559C756.976 610.804 757.287 694.912 757.881 696.475C759.963 701.952 766.09 697.941 770.412 688.274C771.545 685.739 773.601 682.625 774.98 681.358C776.358 680.091 779.089 676.77 781.047 673.982C783.008 671.194 785.858 667.253 787.381 665.223C788.904 663.195 790.601 660.503 791.152 659.243C791.703 657.984 793.989 654.167 796.231 650.763C798.474 647.357 800.998 642.787 801.844 640.607C802.687 638.427 804.267 635.396 805.356 633.875C808.116 630.022 813.65 618.327 817.018 609.242C818.575 605.042 820.897 598.91 822.177 595.612C823.46 592.317 825.255 586.923 826.168 583.625C827.079 580.33 828.439 575.973 829.192 573.945C832.091 566.132 835.329 552.13 837.61 537.526C838.919 529.16 840.61 518.993 841.371 514.938C842.997 506.259 843.308 457.09 841.797 447.171C841.293 443.874 840.24 436.428 839.454 430.625C838.668 424.821 837.827 419.755 837.587 419.367C837.346 418.979 836.369 413.879 835.417 408.034C833.606 396.945 828.473 379.449 822.415 363.73C820.463 358.658 817.558 350.776 815.962 346.211C814.364 341.646 810.953 334.18 808.379 329.615C805.806 325.051 801.906 317.817 799.713 313.542C797.519 309.264 794.894 304.881 793.878 303.8C792.864 302.721 792.034 301.433 792.034 300.942C792.034 298.883 780.494 282.034 774.343 275.116C768.32 268.343 768.071 266.858 768.059 237.414C768.046 209.046 767.446 204.906 762.125 196.477C758.709 191.067 695.561 127.93 691.501 125.866C689.742 124.971 687.722 123.773 687.013 123.202C683.183 120.124 675.403 120.005 479.921 120.023C328.391 120.039 284.69 120.295 278.917 121.208ZM679.084 122.936C688.966 124.932 691.353 126.872 724.575 159.869C756.723 191.801 762.591 198.626 765.084 206.99C766.905 213.101 768.048 680.437 766.261 688.431C764.895 694.54 763.124 696.193 760.623 693.694C758.841 691.912 758.82 688.918 758.836 453.665C758.849 232.956 758.737 215.32 757.32 213.753C755.921 212.209 754.004 212.059 735.352 212.059C708.527 212.059 698.101 208.932 688.19 197.91C678.541 187.177 676.712 180.267 677.048 155.819C677.377 131.951 677.343 131.752 672.626 130.332C668.128 128.977 300.355 128.602 287.648 129.942C271.153 131.677 259.822 140.354 255.413 154.627C253.548 160.663 253.54 161.884 253.553 426.151C253.563 607.892 253.266 692.176 252.609 693.4C251.158 696.112 249.223 695.559 246.673 691.706L244.369 688.224L244.511 480.8C244.69 223.614 245.233 161.315 247.364 153.38C250.085 143.242 258.089 132.538 266.009 128.444C267.529 127.658 269.397 126.484 270.157 125.84C274.888 121.821 272.412 121.867 478.54 121.842C627.766 121.823 674.85 122.08 679.084 122.936ZM187.542 137.297C171.166 137.861 168.734 138.473 168.734 142.035C168.734 146.674 172.278 147.52 191.735 147.52C211.644 147.52 213.912 146.907 213.912 141.523C213.912 137.116 210.196 136.521 187.542 137.297ZM685.604 137.905C683.217 140.292 683.522 170.219 686.01 178.079C689.465 188.99 695.936 196.136 706.809 201.042L713.2 203.925L731.816 204.075C756.195 204.269 756.919 203.548 744.425 191.501C740.638 187.849 726.685 173.969 713.42 160.658C688.793 135.947 688.115 135.393 685.604 137.905ZM209.704 139.2C212.622 140.31 212.748 142.449 209.994 144.145C203.963 147.856 170.578 145.686 170.578 141.582C170.578 138.642 203.039 136.666 209.704 139.2ZM719.265 169.159C755.305 205.128 754.33 202.423 731.178 202.255C707.052 202.076 697.175 197.545 689.936 183.331L686.959 177.484L686.77 159.461C686.592 142.205 686.954 138.771 688.883 139.415C689.362 139.575 703.033 152.959 719.265 169.159ZM603.475 317.349C593.593 322.951 609.493 338.326 627.311 340.392C639.637 341.822 645.428 340.426 645.428 336.021C645.428 332.258 643.364 331.301 633.738 330.611C624.011 329.91 614.635 326.579 613.59 323.45C613.045 321.815 607.114 316.226 605.979 316.273C605.617 316.288 604.489 316.772 603.475 317.349ZM404.907 323.763C397.428 330.345 391.461 332.768 382.621 332.812C373.269 332.858 369.715 336.877 374.495 342.008C383.019 351.158 420.914 332.478 415.41 321.838C413.16 317.483 411.748 317.742 404.907 323.763ZM610.417 322.407C616.588 329.437 621.504 331.529 634.175 332.522C642.257 333.153 645.123 334.948 642.707 337.86C636.634 345.176 603.015 332.853 603.015 323.313C603.015 318.259 606.408 317.845 610.417 322.407ZM413.065 322.226C419.486 329.964 397.027 342.528 379.512 340.995C370.333 340.19 373.742 334.687 383.42 334.687C391.914 334.687 398.561 332.005 405.251 325.876C411.303 320.333 411.44 320.269 413.065 322.226ZM605.904 356.69C592.543 370.051 600.472 394.441 617.55 392.517C628.288 391.307 634.806 376.635 630.262 363.898C626.501 353.354 613.182 349.413 605.904 356.69ZM395.953 355.958C387.509 358.41 382.96 372.334 386.86 383.783C390.362 394.056 401.956 398.372 409.87 392.352C426.537 379.671 415.317 350.333 395.953 355.958ZM622.795 357.332C629.794 361.917 631.943 373.764 627.399 382.728C621.926 393.531 608.547 393.365 603.457 382.433C595.84 366.068 609.354 348.526 622.795 357.332ZM407.615 358.912C418.387 366.169 418.964 382.827 408.725 390.934C403.374 395.171 393.662 392.305 389.793 385.348C381.302 370.071 394.694 350.204 407.615 358.912ZM477.575 419.59C474.808 424.762 480.149 436.462 486.377 438.867C487.897 439.454 491.324 440.975 493.993 442.245C510.983 450.334 540.317 438.903 540.317 424.196C540.317 417.096 534.591 415.395 531.265 421.503C522.164 438.213 499.057 439.327 486.584 423.66C481.726 417.559 479.259 416.445 477.575 419.59ZM484.119 423.733C492.364 437.077 514.03 440.437 526.643 430.327C528.505 428.835 530.533 426.399 531.151 424.909C533.882 418.317 540.969 419.858 538.445 426.497C533.528 439.431 508.88 447.632 495.33 440.848C493.448 439.904 490.815 438.872 489.478 438.552C488.143 438.231 486.066 436.884 484.869 435.559C483.669 434.238 481.946 432.35 481.038 431.367C478.69 428.822 477.524 425.279 478.178 422.672C478.998 419.398 481.742 419.89 484.119 423.733Z" fill="#FFB8B8"/>
<path fill-rule="evenodd" clip-rule="evenodd" d="M0 461V922H517.265H1034.53V461V0H517.265H0V461ZM266.805 44.3225L269.237 46.2337V65.4622V84.6907L266.761 86.6355C260.425 91.6217 259.124 87.8821 259.109 64.6139C259.09 42.0984 260.213 39.1371 266.805 44.3225ZM214.595 84.8872C229.601 99.6467 231.748 103.394 226.735 106.076C223.314 107.907 221.053 106.34 207.687 92.8605C194.386 79.4432 192.741 76.8596 195.658 73.945C198.894 70.7096 202.008 72.5096 214.595 84.8872ZM679.637 121.086C682.984 121.679 686.302 122.633 687.014 123.202C687.722 123.774 689.742 124.971 691.501 125.866C695.561 127.93 758.709 191.067 762.126 196.477C767.446 204.906 768.046 209.046 768.059 237.414C768.072 266.858 768.32 268.343 774.343 275.116C780.494 282.034 792.034 298.883 792.034 300.942C792.034 301.433 792.864 302.721 793.878 303.8C794.894 304.881 797.52 309.264 799.713 313.542C801.906 317.817 805.806 325.051 808.38 329.615C810.953 334.18 814.364 341.646 815.963 346.211C817.558 350.776 820.463 358.658 822.416 363.73C828.473 379.449 833.607 396.945 835.417 408.034C836.369 413.879 837.346 418.979 837.587 419.367C837.827 419.755 838.668 424.821 839.454 430.625C840.241 436.428 841.293 443.874 841.798 447.172C843.308 457.09 842.998 506.259 841.371 514.938C840.61 518.993 838.919 529.16 837.61 537.526C835.329 552.13 832.091 566.132 829.192 573.945C828.439 575.973 827.079 580.33 826.168 583.625C825.255 586.923 823.46 592.317 822.178 595.612C820.897 598.91 818.575 605.042 817.018 609.242C813.65 618.327 808.116 630.022 805.356 633.875C804.267 635.396 802.687 638.427 801.844 640.607C800.998 642.787 798.474 647.357 796.232 650.763C793.989 654.167 791.703 657.984 791.152 659.243C790.601 660.503 788.905 663.195 787.381 665.223C785.858 667.253 783.008 671.194 781.047 673.982C779.089 676.77 776.358 680.091 774.98 681.358C773.601 682.625 771.545 685.739 770.412 688.274C766.091 697.941 759.964 701.952 757.882 696.475C757.287 694.913 756.976 610.804 756.989 455.559C757.005 265.394 756.775 216.735 755.851 215.532C754.848 214.231 751.68 213.975 732.561 213.665C705.731 213.225 699.309 211.229 687.57 199.679C676.598 188.881 674.936 183.016 674.936 155.103V132.722L672.535 131.811C670.976 131.217 602.477 130.984 476.373 131.142L282.605 131.385L278.457 133.35C276.176 134.431 273.367 135.6 272.219 135.952C266.332 137.747 258.033 149.592 256.315 158.643C255.697 161.907 255.395 253.565 255.423 430.072L255.467 696.57L253.491 698.184C250.431 700.682 245.158 696.506 241.948 689.047C241.26 687.441 239.129 684.319 237.215 682.108C232.089 676.183 227.294 669.309 225.983 666.006C225.349 664.408 223.779 662.127 222.496 660.935C221.214 659.745 219 656.487 217.58 653.699C208.665 636.195 204.271 627.953 202.349 625.116C201.146 623.342 198.731 617.947 196.98 613.131C195.229 608.313 193.139 603.128 192.335 601.605C191.53 600.084 190.871 598.424 190.868 597.919C190.866 597.412 188.191 589.32 184.925 579.94C166.57 527.215 164.576 452.985 179.957 395.077C188.321 363.585 195.733 344.556 209.94 318.091C217.818 303.414 219.827 299.99 222.657 296.424C224.266 294.394 226.754 290.563 228.184 287.91C229.617 285.257 232.852 280.899 235.374 278.23C243.854 269.251 243.376 273.068 243.404 214.366C243.435 157.627 243.914 152.007 249.449 143.62C250.695 141.73 251.717 139.803 251.717 139.337C251.717 134.703 269.803 122.649 278.917 121.208C289.221 119.579 670.49 119.462 679.637 121.086ZM212.185 138.362C214.52 139.611 214.373 143.333 211.895 145.64C206.309 150.843 168.735 147.704 168.735 142.035C168.735 137.408 204.721 134.367 212.185 138.362ZM687.298 140.281C686.905 140.915 686.667 149.548 686.771 159.461L686.959 177.484L689.936 183.331C697.175 197.545 707.053 202.076 731.178 202.255C754.331 202.423 755.306 205.128 719.265 169.159C688.49 138.442 688.454 138.411 687.298 140.281ZM609.853 319.069C611.622 320.62 613.303 322.591 613.59 323.45C614.635 326.579 624.011 329.91 633.738 330.611C643.364 331.301 645.428 332.258 645.428 336.021C645.428 340.426 639.637 341.822 627.311 340.392C609.494 338.326 593.593 322.951 603.475 317.349C606.08 315.872 606.271 315.924 609.853 319.069ZM415.411 321.839C420.914 332.478 383.019 351.158 374.495 342.008C369.715 336.877 373.269 332.858 382.621 332.812C391.461 332.768 397.428 330.345 404.908 323.763C411.748 317.742 413.16 317.483 415.411 321.839ZM622.185 354.872C628.77 358.234 631.49 363.495 631.558 373.014C631.739 397.896 600.985 399.777 599.492 374.975C598.517 358.821 609.998 348.652 622.185 354.872ZM407.481 356.437C419.712 361.33 421.204 383.729 409.871 392.352C401.956 398.372 390.362 394.056 386.86 383.783C380.865 366.187 392.682 350.514 407.481 356.437ZM486.584 423.66C499.058 439.328 522.164 438.213 531.265 421.503C534.591 415.395 540.317 417.096 540.317 424.196C540.317 438.903 510.983 450.334 493.994 442.245C491.324 440.975 487.898 439.454 486.377 438.867C480.149 436.462 474.808 424.762 477.576 419.59C479.259 416.445 481.727 417.559 486.584 423.66Z" fill="#181820"/>
<path fill-rule="evenodd" clip-rule="evenodd" d="M262.044 46.2856C259.502 48.8252 260.696 85.746 263.319 85.746C266.337 85.746 267.103 81.8692 267.292 65.5968C267.504 47.4261 266.092 42.2356 262.044 46.2856ZM196.755 75.9934C195.883 78.2692 198.216 81.246 209.992 92.8684C223.148 105.851 226.684 107.444 225.923 100.037C225.297 93.9624 198.376 71.7701 196.755 75.9934ZM277.533 123.267C274.238 124.035 270.918 125.193 270.157 125.84C269.397 126.484 267.53 127.658 266.009 128.444C258.089 132.538 250.085 143.243 247.364 153.381C245.233 161.315 244.69 223.614 244.511 480.8L244.369 688.225L246.673 691.706C249.223 695.559 251.158 696.113 252.609 693.4C253.266 692.176 253.563 607.892 253.553 426.151C253.54 161.884 253.548 160.663 255.413 154.627C259.822 140.354 271.153 131.677 287.649 129.942C300.355 128.602 668.128 128.977 672.626 130.332C677.343 131.752 677.377 131.951 677.048 155.819C676.712 180.267 678.541 187.177 688.19 197.91C698.101 208.932 708.527 212.059 735.352 212.059C754.005 212.059 755.921 212.209 757.32 213.753C758.738 215.32 758.849 232.956 758.836 453.666C758.82 688.918 758.841 691.913 760.623 693.695C763.124 696.193 764.896 694.54 766.261 688.432C768.048 680.438 766.905 213.101 765.084 206.99C762.591 198.626 756.723 191.801 724.575 159.869C691.353 126.872 688.966 124.932 679.084 122.936C669.871 121.074 285.574 121.389 277.533 123.267ZM713.42 160.658C726.685 173.969 740.638 187.85 744.425 191.501C756.919 203.548 756.195 204.269 731.816 204.075L713.2 203.926L706.809 201.042C689.367 193.169 684.156 182.757 684.156 155.786C684.156 138.9 684.663 136.456 688.175 136.456C688.793 136.456 700.155 147.347 713.42 160.658ZM173.113 139.371C170.004 140.506 169.865 142.4 172.751 144.29C178.325 147.944 212.068 145.534 212.068 141.484C212.068 138.44 180.37 136.72 173.113 139.371ZM604.122 320.119C596.877 327.363 624.14 342.585 639.024 339.609C647.394 337.935 644.228 333.309 634.175 332.522C621.504 331.529 616.588 329.437 610.417 322.408C607.259 318.813 605.917 318.324 604.122 320.119ZM405.251 325.876C398.561 332.005 391.914 334.687 383.42 334.687C373.742 334.687 370.333 340.19 379.512 340.995C397.027 342.528 419.487 329.965 413.065 322.227C411.44 320.269 411.303 320.333 405.251 325.876ZM608.198 356.944C596.019 366.311 601.277 390.888 615.463 390.888C629.786 390.888 635.323 365.54 622.795 357.332C618.784 354.704 611.369 354.505 608.198 356.944ZM395.956 358.118C387.786 361.674 384.558 375.932 389.793 385.348C393.662 392.305 403.374 395.171 408.725 390.934C423.873 378.94 412.902 350.737 395.956 358.118ZM478.178 422.672C477.524 425.279 478.69 428.822 481.039 431.367C481.946 432.35 483.669 434.238 484.869 435.56C486.066 436.884 488.143 438.231 489.478 438.552C490.815 438.872 493.448 439.904 495.331 440.848C508.88 447.632 533.528 439.431 538.445 426.497C540.969 419.859 533.882 418.317 531.151 424.91C530.533 426.399 528.505 428.835 526.643 430.328C514.03 440.437 492.364 437.078 484.119 423.733C481.742 419.89 478.998 419.398 478.178 422.672Z" fill="#FFB8B8"/>
<path d="M180.514 882.727H175.835V913.639H175.451L153.974 882.727H149.372V922H154.128V891.165H154.511L175.912 922H180.514V882.727ZM201.382 922.614C209.36 922.614 214.729 916.554 214.729 907.426C214.729 898.222 209.36 892.162 201.382 892.162C193.405 892.162 188.036 898.222 188.036 907.426C188.036 916.554 193.405 922.614 201.382 922.614ZM201.382 918.548C195.323 918.548 192.561 913.332 192.561 907.426C192.561 901.52 195.323 896.227 201.382 896.227C207.442 896.227 210.203 901.52 210.203 907.426C210.203 913.332 207.442 918.548 201.382 918.548ZM241.35 904.281C241.35 899.142 244.629 896.227 249.097 896.227C253.354 896.227 255.924 898.912 255.924 903.591V922H260.45V903.284C260.45 895.71 256.423 892.162 250.401 892.162C245.761 892.162 243.114 894.099 241.734 897.148H241.35V882.727H236.825V922H241.35V904.281ZM277.397 922.69C282.536 922.69 285.22 919.929 286.141 918.011H286.371V922H290.897V902.594C290.897 893.236 283.763 892.162 280.005 892.162C275.556 892.162 270.493 893.696 268.192 899.065L272.487 900.599C273.485 898.452 275.843 896.151 280.158 896.151C284.319 896.151 286.371 898.356 286.371 902.134V902.287C286.371 904.473 284.147 904.281 278.777 904.972C273.312 905.681 267.348 906.889 267.348 913.639C267.348 919.392 271.797 922.69 277.397 922.69ZM278.087 918.625C274.482 918.625 271.874 917.014 271.874 913.869C271.874 910.418 275.019 909.344 278.547 908.884C280.465 908.653 285.604 908.116 286.371 907.196V911.338C286.371 915.02 283.456 918.625 278.087 918.625ZM301.017 933.045C305.101 933.045 307.978 930.879 309.684 926.295L322.226 892.622L317.278 892.545L309.147 916.017H308.841L300.71 892.545H295.801L306.693 922.153L305.849 924.455C304.2 928.942 302.167 929.364 298.869 928.52L297.718 932.509C298.179 932.739 299.483 933.045 301.017 933.045ZM352.068 922.69C357.208 922.69 359.892 919.929 360.813 918.011H361.043V922H365.568V902.594C365.568 893.236 358.435 892.162 354.676 892.162C350.228 892.162 345.165 893.696 342.864 899.065L347.159 900.599C348.157 898.452 350.515 896.151 354.83 896.151C358.991 896.151 361.043 898.356 361.043 902.134V902.287C361.043 904.473 358.818 904.281 353.449 904.972C347.984 905.681 342.02 906.889 342.02 913.639C342.02 919.392 346.469 922.69 352.068 922.69ZM352.759 918.625C349.154 918.625 346.546 917.014 346.546 913.869C346.546 910.418 349.691 909.344 353.219 908.884C355.137 908.653 360.276 908.116 361.043 907.196V911.338C361.043 915.02 358.128 918.625 352.759 918.625ZM373.829 922H378.354V903.361C378.354 899.372 381.499 896.457 385.794 896.457C387.003 896.457 388.249 896.688 388.556 896.764V892.162C388.038 892.124 386.849 892.085 386.178 892.085C382.65 892.085 379.581 894.08 378.508 896.994H378.201V892.545H373.829V922ZM404.99 922.614C411.51 922.614 415.805 918.625 416.572 913.409H412.047C411.203 916.631 408.518 918.548 404.99 918.548C399.62 918.548 396.169 914.099 396.169 907.273C396.169 900.599 399.697 896.227 404.99 896.227C408.978 896.227 411.356 898.682 412.047 901.366H416.572C415.805 895.844 411.126 892.162 404.913 892.162C396.936 892.162 391.643 898.452 391.643 907.426C391.643 916.247 396.706 922.614 404.99 922.614ZM427.714 904.281C427.714 899.142 430.993 896.227 435.461 896.227C439.718 896.227 442.287 898.912 442.287 903.591V922H446.813V903.284C446.813 895.71 442.786 892.162 436.765 892.162C432.124 892.162 429.478 894.099 428.097 897.148H427.714V882.727H423.188V922H427.714V904.281ZM455.092 922H459.618V892.545H455.092V922ZM457.393 887.636C459.158 887.636 460.615 886.256 460.615 884.568C460.615 882.881 459.158 881.5 457.393 881.5C455.629 881.5 454.172 882.881 454.172 884.568C454.172 886.256 455.629 887.636 457.393 887.636ZM491.992 892.545H487.083L478.952 916.017H478.645L470.515 892.545H465.606L476.498 922H481.1L491.992 892.545ZM508.877 922.614C516.854 922.614 522.223 916.554 522.223 907.426C522.223 898.222 516.854 892.162 508.877 892.162C500.899 892.162 495.53 898.222 495.53 907.426C495.53 916.554 500.899 922.614 508.877 922.614ZM508.877 918.548C502.817 918.548 500.055 913.332 500.055 907.426C500.055 901.52 502.817 896.227 508.877 896.227C514.936 896.227 517.698 901.52 517.698 907.426C517.698 913.332 514.936 918.548 508.877 918.548ZM549.995 899.142C548.576 894.962 545.393 892.162 539.563 892.162C533.35 892.162 528.748 895.69 528.748 900.676C528.748 904.741 531.164 907.464 536.572 908.73L541.481 909.881C544.453 910.571 545.853 911.99 545.853 914.023C545.853 916.554 543.168 918.625 538.949 918.625C535.248 918.625 532.928 917.033 532.123 913.869L527.827 914.943C528.882 919.948 533.005 922.614 539.026 922.614C545.872 922.614 550.532 918.874 550.532 913.793C550.532 909.689 547.962 907.1 542.708 905.815L538.336 904.741C534.846 903.879 533.273 902.709 533.273 900.446C533.273 897.915 535.958 896.074 539.563 896.074C543.513 896.074 545.143 898.26 545.93 900.293L549.995 899.142ZM584.498 922.614C591.017 922.614 595.313 918.625 596.08 913.409H591.554C590.711 916.631 588.026 918.548 584.498 918.548C579.128 918.548 575.677 914.099 575.677 907.273C575.677 900.599 579.205 896.227 584.498 896.227C588.486 896.227 590.864 898.682 591.554 901.366H596.08C595.313 895.844 590.634 892.162 584.421 892.162C576.444 892.162 571.151 898.452 571.151 907.426C571.151 916.247 576.214 922.614 584.498 922.614ZM614.662 922.614C622.639 922.614 628.008 916.554 628.008 907.426C628.008 898.222 622.639 892.162 614.662 892.162C606.684 892.162 601.315 898.222 601.315 907.426C601.315 916.554 606.684 922.614 614.662 922.614ZM614.662 918.548C608.602 918.548 605.841 913.332 605.841 907.426C605.841 901.52 608.602 896.227 614.662 896.227C620.721 896.227 623.483 901.52 623.483 907.426C623.483 913.332 620.721 918.548 614.662 918.548ZM634.916 922H639.442V903.591C639.442 899.276 642.587 896.227 646.115 896.227C649.548 896.227 651.945 898.471 651.945 901.827V922H656.547V902.824C656.547 899.027 658.925 896.227 663.067 896.227C666.289 896.227 669.05 897.934 669.05 902.287V922H673.576V902.287C673.576 895.364 669.855 892.162 664.601 892.162C660.382 892.162 657.295 894.099 655.78 897.148H655.473C654.016 894.003 651.446 892.162 647.573 892.162C643.737 892.162 640.899 894.003 639.672 897.148H639.289V892.545H634.916V922ZM681.85 933.045H686.376V917.474H686.759C687.756 919.085 689.674 922.614 695.35 922.614C702.714 922.614 707.853 916.707 707.853 907.349C707.853 898.068 702.714 892.162 695.273 892.162C689.521 892.162 687.756 895.69 686.759 897.224H686.222V892.545H681.85V933.045ZM686.299 907.273C686.299 900.676 689.214 896.227 694.736 896.227C700.489 896.227 703.327 901.06 703.327 907.273C703.327 913.562 700.413 918.548 694.736 918.548C689.29 918.548 686.299 913.946 686.299 907.273ZM723.424 922.69C728.563 922.69 731.248 919.929 732.168 918.011H732.398V922H736.924V902.594C736.924 893.236 729.79 892.162 726.032 892.162C721.583 892.162 716.521 893.696 714.219 899.065L718.515 900.599C719.512 898.452 721.871 896.151 726.185 896.151C730.347 896.151 732.398 898.356 732.398 902.134V902.287C732.398 904.473 730.174 904.281 724.805 904.972C719.339 905.681 713.376 906.889 713.376 913.639C713.376 919.392 717.824 922.69 723.424 922.69ZM724.114 918.625C720.509 918.625 717.901 917.014 717.901 913.869C717.901 910.418 721.046 909.344 724.574 908.884C726.492 908.653 731.631 908.116 732.398 907.196V911.338C732.398 915.02 729.484 918.625 724.114 918.625ZM745.184 922H749.71V903.361C749.71 899.372 752.854 896.457 757.15 896.457C758.358 896.457 759.604 896.688 759.911 896.764V892.162C759.394 892.124 758.205 892.085 757.533 892.085C754.005 892.085 750.937 894.08 749.863 896.994H749.556V892.545H745.184V922ZM779.931 892.545H773.641V885.489H769.116V892.545H764.667V896.381H769.116V914.79C769.116 919.929 773.258 922.384 777.093 922.384C778.781 922.384 779.854 922.077 780.468 921.847L779.548 917.781C779.164 917.858 778.551 918.011 777.553 918.011C775.559 918.011 773.641 917.398 773.641 913.562V896.381H779.931V892.545ZM786.739 922H791.264V892.545H786.739V922ZM789.04 887.636C790.804 887.636 792.261 886.256 792.261 884.568C792.261 882.881 790.804 881.5 789.04 881.5C787.276 881.5 785.818 882.881 785.818 884.568C785.818 886.256 787.276 887.636 789.04 887.636ZM810.675 922.614C816.351 922.614 818.269 919.085 819.266 917.474H819.803V922H824.175V882.727H819.65V897.224H819.266C818.269 895.69 816.505 892.162 810.752 892.162C803.312 892.162 798.172 898.068 798.172 907.349C798.172 916.707 803.312 922.614 810.675 922.614ZM811.289 918.548C805.613 918.548 802.698 913.562 802.698 907.273C802.698 901.06 805.536 896.227 811.289 896.227C816.812 896.227 819.726 900.676 819.726 907.273C819.726 913.946 816.735 918.548 811.289 918.548ZM845.058 922.614C853.035 922.614 858.405 916.554 858.405 907.426C858.405 898.222 853.035 892.162 845.058 892.162C837.081 892.162 831.712 898.222 831.712 907.426C831.712 916.554 837.081 922.614 845.058 922.614ZM845.058 918.548C838.998 918.548 836.237 913.332 836.237 907.426C836.237 901.52 838.998 896.227 845.058 896.227C851.118 896.227 853.879 901.52 853.879 907.426C853.879 913.332 851.118 918.548 845.058 918.548ZM886.177 899.142C884.758 894.962 881.574 892.162 875.745 892.162C869.532 892.162 864.929 895.69 864.929 900.676C864.929 904.741 867.346 907.464 872.753 908.73L877.662 909.881C880.635 910.571 882.035 911.99 882.035 914.023C882.035 916.554 879.35 918.625 875.131 918.625C871.43 918.625 869.11 917.033 868.304 913.869L864.009 914.943C865.064 919.948 869.187 922.614 875.208 922.614C882.054 922.614 886.714 918.874 886.714 913.793C886.714 909.689 884.144 907.1 878.89 905.815L874.517 904.741C871.027 903.879 869.455 902.709 869.455 900.446C869.455 897.915 872.14 896.074 875.745 896.074C879.695 896.074 881.325 898.26 882.111 900.293L886.177 899.142Z" fill="#B9BBBE"/>
</svg>
