<svg width="26" height="26" viewBox="0 0 26 26" fill="none" xmlns="http://www.w3.org/2000/svg">
<rect width="26" height="26" fill="#161616"/>
<path d="M5.76215 15.7121L4.85713 19.0907L1.54929 19.1607C0.560727 17.3271 0 15.2293 0 13C0 10.8443 0.524266 8.81141 1.45356 7.02142H1.45427L4.39918 7.56133L5.68923 10.4886C5.41922 11.2757 5.27206 12.1207 5.27206 13C5.27216 13.9543 5.44502 14.8686 5.76215 15.7121Z" fill="white"/>
<path d="M25.7729 10.5714C25.9222 11.3578 26 12.17 26 13C26 13.9307 25.9021 14.8386 25.7157 15.7143C25.0829 18.6943 23.4293 21.2964 21.1386 23.1379L21.1379 23.1372L17.4286 22.9479L16.9037 19.6707C18.4236 18.7793 19.6115 17.3843 20.2372 15.7143H13.2858V10.5714H20.3387H25.7729Z" fill="white"/>
<path d="M21.1378 23.1372L21.1386 23.1379C18.9107 24.9286 16.0807 26 13 26C8.04929 26 3.74502 23.2329 1.54929 19.1607L5.76215 15.7122C6.85999 18.6422 9.68642 20.7279 13 20.7279C14.4243 20.7279 15.7586 20.3429 16.9036 19.6707L21.1378 23.1372Z" fill="white"/>
<path d="M21.2978 2.99284L17.0864 6.44069C15.9014 5.69999 14.5007 5.27211 13 5.27211C9.61141 5.27211 6.73211 7.45352 5.68927 10.4886L1.45426 7.02142H1.45355C3.61714 2.85 7.97569 0 13 0C16.1543 0 19.0464 1.12359 21.2978 2.99284Z" fill="white"/>
</svg>
