<svg width="422" height="306" viewBox="0 0 422 306" fill="none" xmlns="http://www.w3.org/2000/svg">
<rect width="422" height="306" fill="#FFB8B8"/>
<path d="M268.92 229.399V303.163H84.1819C63.1335 303.163 46.0083 286.617 46.0083 266.281C46.0083 245.945 63.1334 229.399 84.1819 229.399H268.92Z" fill="#F2F2F2"/>
<path d="M273.457 302.595C273.457 303.348 273.158 304.069 272.626 304.601C272.094 305.133 271.373 305.432 270.621 305.433H80.8914C70.5868 305.433 60.7043 301.338 53.4178 294.048C46.1314 286.759 42.0379 276.873 42.0379 266.565C42.0379 256.256 46.1314 246.37 53.4178 239.081C60.7043 231.791 70.5868 227.696 80.8914 227.696H270.621C271.373 227.696 272.095 227.995 272.627 228.527C273.158 229.059 273.457 229.781 273.457 230.534C273.457 231.286 273.158 232.008 272.627 232.54C272.095 233.072 271.373 233.371 270.621 233.371H80.8914C72.0911 233.371 63.6513 236.868 57.4286 243.093C51.2058 249.318 47.7099 257.761 47.7099 266.565C47.7099 275.368 51.2058 283.811 57.4286 290.036C63.6513 296.261 72.0911 299.758 80.8914 299.758H270.621C271.373 299.759 272.094 300.058 272.626 300.59C273.158 301.122 273.457 301.843 273.457 302.595Z" fill="#161616"/>
<path d="M268.92 246.421H70.3981C70.2477 246.421 70.1034 246.361 69.997 246.255C69.8907 246.149 69.8309 246.004 69.8309 245.854C69.8309 245.703 69.8907 245.559 69.997 245.453C70.1034 245.346 70.2477 245.286 70.3981 245.286H268.92C269.07 245.286 269.214 245.346 269.321 245.453C269.427 245.559 269.487 245.703 269.487 245.854C269.487 246.004 269.427 246.149 269.321 246.255C269.214 246.361 269.07 246.421 268.92 246.421Z" fill="#CCCCCC"/>
<path d="M268.92 260.039H70.3981C70.2477 260.039 70.1034 259.979 69.997 259.873C69.8907 259.767 69.8309 259.622 69.8309 259.472C69.8309 259.321 69.8907 259.177 69.997 259.071C70.1034 258.964 70.2477 258.904 70.3981 258.904H268.92C269.07 258.904 269.214 258.964 269.321 259.071C269.427 259.177 269.487 259.321 269.487 259.472C269.487 259.622 269.427 259.767 269.321 259.873C269.214 259.979 269.07 260.039 268.92 260.039Z" fill="#CCCCCC"/>
<path d="M268.92 273.657H70.3981C70.2477 273.657 70.1034 273.597 69.997 273.491C69.8907 273.385 69.8309 273.24 69.8309 273.09C69.8309 272.939 69.8907 272.795 69.997 272.689C70.1034 272.582 70.2477 272.522 70.3981 272.522H268.92C269.07 272.522 269.214 272.582 269.321 272.689C269.427 272.795 269.487 272.939 269.487 273.09C269.487 273.24 269.427 273.385 269.321 273.491C269.214 273.597 269.07 273.657 268.92 273.657Z" fill="#CCCCCC"/>
<path d="M268.92 287.275H70.3981C70.2477 287.275 70.1034 287.215 69.997 287.109C69.8907 287.003 69.8309 286.858 69.8309 286.708C69.8309 286.557 69.8907 286.413 69.997 286.307C70.1034 286.2 70.2477 286.14 70.3981 286.14H268.92C269.07 286.14 269.214 286.2 269.321 286.307C269.427 286.413 269.487 286.557 269.487 286.708C269.487 286.858 269.427 287.003 269.321 287.109C269.214 287.215 269.07 287.275 268.92 287.275Z" fill="#CCCCCC"/>
<path d="M411.695 243.284L365.431 300.723L221.579 184.771C205.189 171.56 202.232 147.927 214.986 132.092C227.741 116.256 251.453 114.121 267.843 127.332L411.695 243.284Z" fill="#F2F2F2"/>
<path d="M369.32 303.129C368.848 303.715 368.163 304.089 367.415 304.169C366.667 304.25 365.918 304.03 365.332 303.558L217.594 184.473C209.57 178.005 204.443 168.614 203.34 158.364C202.238 148.115 205.251 137.847 211.717 129.82C218.182 121.793 227.57 116.665 237.815 115.562C248.061 114.459 258.325 117.474 266.349 123.941L414.087 243.026C414.378 243.26 414.619 243.549 414.798 243.876C414.976 244.203 415.089 244.562 415.129 244.932C415.169 245.303 415.136 245.678 415.031 246.035C414.926 246.393 414.751 246.727 414.518 247.017C414.284 247.307 413.995 247.548 413.668 247.727C413.341 247.905 412.982 248.018 412.612 248.058C412.241 248.097 411.867 248.064 411.509 247.959C411.152 247.853 410.819 247.679 410.529 247.445L262.79 128.36C259.397 125.623 255.498 123.581 251.317 122.352C247.135 121.122 242.752 120.729 238.418 121.195C234.085 121.66 229.885 122.975 226.06 125.065C222.234 127.154 218.858 129.977 216.123 133.372C213.388 136.768 211.349 140.668 210.122 144.852C208.895 149.036 208.503 153.421 208.97 157.756C209.437 162.091 210.754 166.291 212.844 170.117C214.934 173.944 217.757 177.32 221.152 180.055L368.891 299.14C369.477 299.612 369.851 300.297 369.931 301.045C370.012 301.793 369.792 302.543 369.32 303.129Z" fill="#CCCCCC"/>
<path d="M401.019 256.539L246.434 131.936C246.376 131.889 246.328 131.831 246.292 131.766C246.256 131.701 246.234 131.629 246.226 131.555C246.218 131.481 246.224 131.406 246.245 131.334C246.266 131.263 246.301 131.196 246.348 131.138C246.395 131.08 246.452 131.032 246.518 130.996C246.583 130.96 246.655 130.938 246.729 130.93C246.803 130.922 246.878 130.929 246.949 130.949C247.021 130.97 247.087 131.005 247.145 131.052L401.73 255.655C401.788 255.702 401.837 255.76 401.872 255.825C401.908 255.891 401.931 255.962 401.939 256.037C401.947 256.111 401.94 256.186 401.919 256.257C401.898 256.329 401.863 256.396 401.817 256.454C401.77 256.512 401.712 256.56 401.647 256.596C401.581 256.631 401.509 256.654 401.435 256.662C401.361 256.67 401.286 256.663 401.215 256.642C401.143 256.621 401.077 256.586 401.019 256.539V256.539Z" fill="#CCCCCC"/>
<path d="M392.478 267.143L237.893 142.54C237.776 142.445 237.701 142.308 237.685 142.159C237.669 142.009 237.713 141.86 237.807 141.742C237.902 141.625 238.039 141.551 238.188 141.534C238.338 141.518 238.487 141.562 238.604 141.656L393.189 266.259C393.247 266.306 393.296 266.364 393.331 266.429C393.367 266.495 393.39 266.567 393.398 266.641C393.406 266.715 393.399 266.79 393.378 266.861C393.357 266.933 393.322 267 393.276 267.058C393.229 267.116 393.171 267.164 393.106 267.2C393.04 267.236 392.968 267.258 392.894 267.266C392.82 267.274 392.745 267.267 392.674 267.246C392.602 267.225 392.536 267.19 392.478 267.143Z" fill="#CCCCCC"/>
<path d="M383.937 277.747L229.352 153.144C229.235 153.049 229.16 152.912 229.144 152.763C229.128 152.613 229.172 152.463 229.266 152.346C229.36 152.229 229.497 152.154 229.647 152.138C229.797 152.122 229.946 152.166 230.063 152.26L384.648 276.864C384.706 276.91 384.755 276.968 384.79 277.033C384.826 277.099 384.848 277.171 384.856 277.245C384.864 277.319 384.858 277.394 384.837 277.465C384.816 277.537 384.781 277.603 384.734 277.661C384.687 277.719 384.63 277.768 384.564 277.803C384.499 277.839 384.427 277.862 384.353 277.869C384.279 277.877 384.204 277.871 384.133 277.85C384.061 277.829 383.995 277.794 383.937 277.747V277.747Z" fill="#CCCCCC"/>
<path d="M375.395 288.351L220.811 163.748C220.753 163.701 220.704 163.644 220.669 163.578C220.633 163.513 220.611 163.441 220.603 163.367C220.595 163.293 220.601 163.218 220.622 163.146C220.643 163.075 220.678 163.008 220.725 162.95C220.772 162.892 220.829 162.844 220.895 162.808C220.96 162.772 221.032 162.75 221.106 162.742C221.18 162.734 221.255 162.741 221.326 162.762C221.398 162.783 221.464 162.818 221.522 162.864L376.107 287.468C376.165 287.514 376.214 287.572 376.249 287.637C376.285 287.703 376.308 287.775 376.316 287.849C376.324 287.923 376.317 287.998 376.296 288.07C376.275 288.141 376.24 288.208 376.194 288.266C376.147 288.324 376.089 288.372 376.024 288.408C375.958 288.444 375.886 288.466 375.812 288.474C375.738 288.482 375.663 288.475 375.592 288.454C375.52 288.433 375.453 288.398 375.395 288.351Z" fill="#CCCCCC"/>
<path d="M191.761 221.646L185.277 221.645L182.193 196.624L191.763 196.625L191.761 221.646Z" fill="#FFB8B8"/>
<path d="M180.645 219.792H193.15V227.668H172.771C172.771 226.634 172.974 225.61 173.37 224.654C173.766 223.698 174.346 222.83 175.077 222.099C175.808 221.367 176.676 220.787 177.631 220.391C178.587 219.995 179.611 219.792 180.645 219.792Z" fill="#161616"/>
<path d="M125.514 221.646L119.03 221.645L115.946 196.624L125.517 196.625L125.514 221.646Z" fill="#FFB8B8"/>
<path d="M114.398 219.792H126.904V227.668H106.524C106.524 226.634 106.728 225.61 107.124 224.654C107.519 223.698 108.099 222.83 108.831 222.099C109.562 221.367 110.43 220.787 111.385 220.391C112.34 219.995 113.364 219.792 114.398 219.792Z" fill="#161616"/>
<path d="M147.173 36.0497V33.2126C147.173 28.3594 149.1 23.7049 152.531 20.2731C155.961 16.8414 160.614 14.9134 165.465 14.9134H165.465C170.317 14.9134 174.969 16.8414 178.4 20.2731C181.83 23.7049 183.758 28.3594 183.758 33.2126V36.0497C183.758 39.5486 182.368 42.9042 179.895 45.3782C177.422 47.8523 174.068 49.2422 170.57 49.2422H160.361C158.629 49.2422 156.914 48.901 155.314 48.238C153.714 47.575 152.26 46.6032 151.036 45.3782C149.811 44.1532 148.84 42.6989 148.177 41.0983C147.514 39.4977 147.173 37.7822 147.173 36.0497Z" fill="#161616"/>
<path d="M165.465 50.2184C173.159 50.2184 179.396 43.9789 179.396 36.2821C179.396 28.5852 173.159 22.3457 165.465 22.3457C157.771 22.3457 151.534 28.5852 151.534 36.2821C151.534 43.9789 157.771 50.2184 165.465 50.2184Z" fill="#FFB8B8"/>
<path d="M89.6889 84.1794C90.2543 83.6454 90.9298 83.2419 91.6679 82.9973C92.406 82.7527 93.1887 82.6729 93.961 82.7637C94.7332 82.8544 95.4762 83.1134 96.1375 83.5225C96.7989 83.9315 97.3625 84.4807 97.7888 85.1312L109.731 82.8714L112.874 89.7965L95.9642 92.7508C94.8243 93.3947 93.4879 93.5979 92.2082 93.322C90.9285 93.046 89.7944 92.31 89.0209 91.2535C88.2474 90.1969 87.8881 88.8933 88.0113 87.5895C88.1344 86.2857 88.7313 85.0724 89.6889 84.1794V84.1794Z" fill="#FFB8B8"/>
<path d="M154.604 58.995L154.761 59.2318L135.177 72.1373L102.133 82.6931C101.695 82.8339 101.319 83.1223 101.07 83.509C100.82 83.8957 100.713 84.357 100.765 84.8143L101.486 91.0256C101.518 91.3005 101.607 91.5657 101.747 91.8041C101.888 92.0426 102.076 92.2491 102.301 92.4103C102.526 92.5716 102.782 92.6841 103.053 92.7406C103.324 92.797 103.603 92.7963 103.874 92.7383L134.973 86.0696C136.479 85.7487 137.902 85.1219 139.155 84.2281L161.155 68.5691C161.953 67.9984 162.589 67.2308 163.002 66.3412C163.416 65.4516 163.592 64.4701 163.514 63.4922C163.433 62.5129 163.099 61.5716 162.544 60.7607C161.99 59.9498 161.234 59.2973 160.35 58.8675C159.467 58.4376 158.487 58.2451 157.507 58.309C156.527 58.3729 155.58 58.6909 154.76 59.2318L154.604 58.995Z" fill="#CCCCCC"/>
<path d="M185.393 214.545C184.895 214.545 184.408 214.4 183.991 214.128C183.574 213.856 183.246 213.468 183.046 213.013L153.319 139.532C153.249 139.372 153.133 139.238 152.985 139.147C152.837 139.056 152.664 139.012 152.491 139.022C152.317 139.032 152.151 139.094 152.014 139.201C151.877 139.309 151.777 139.455 151.725 139.621L127.473 211.158C127.37 211.491 127.201 211.799 126.975 212.064C126.749 212.329 126.471 212.545 126.159 212.699C125.846 212.852 125.506 212.94 125.158 212.958C124.81 212.975 124.463 212.92 124.137 212.798L116.004 209.747C115.562 209.583 115.175 209.3 114.885 208.929C114.595 208.558 114.414 208.113 114.361 207.645C110.702 175.761 142.608 95.2797 142.93 94.4707L143.02 94.2465L172.104 100.683L172.165 100.749C183.768 113.412 193.306 193.284 195.101 209.167C195.168 209.741 195.037 210.32 194.731 210.81C194.424 211.299 193.96 211.67 193.415 211.86L186.237 214.4C185.966 214.496 185.68 214.545 185.393 214.545Z" fill="#161616"/>
<path d="M160.333 103.273C153.286 103.273 145.43 101.868 143.012 96.0665L142.956 95.9333L143.031 95.8097C144.94 92.6767 147.463 87.3322 146.107 86.329C143.436 84.3533 142.14 81.1031 142.255 76.6685C142.505 67.0418 149.062 58.4948 158.571 55.4003H158.571C161.225 54.5506 163.927 53.8548 166.661 53.3166C168.655 52.9142 170.712 52.9584 172.687 53.4462C174.661 53.9339 176.503 54.8531 178.08 56.1376C179.677 57.4305 180.968 59.0612 181.86 60.9126C182.752 62.7639 183.223 64.79 183.24 66.8451C183.339 77.1329 181.756 91.4615 173.647 101.299C173.267 101.755 172.738 102.063 172.154 102.168C168.252 102.874 164.298 103.243 160.333 103.273Z" fill="#CCCCCC"/>
<path d="M157.712 102.888C158.095 101.512 159.006 100.343 160.247 99.6345C161.487 98.9265 162.956 98.7367 164.336 99.1065C164.617 99.1853 164.892 99.287 165.157 99.4108L174.225 91.1555L180.531 95.4056L167.564 106.885C166.978 107.941 166.056 108.771 164.945 109.243C163.834 109.714 162.596 109.8 161.43 109.488C160.751 109.302 160.115 108.983 159.56 108.55C159.005 108.116 158.541 107.577 158.195 106.964C157.849 106.35 157.629 105.674 157.546 104.974C157.463 104.275 157.519 103.565 157.712 102.888Z" fill="#FFB8B8"/>
<path d="M172.788 102.993C172.2 102.993 171.63 102.79 171.174 102.417L167.599 99.4935C167.301 99.2498 167.061 98.9418 166.899 98.5925C166.737 98.2433 166.656 97.8619 166.662 97.4769C166.668 97.0918 166.761 96.7131 166.934 96.369C167.106 96.025 167.355 95.7246 167.66 95.4902L182.658 83.9831C182.836 83.8461 182.953 83.6444 182.983 83.4219C183.013 83.1994 182.954 82.974 182.819 82.7945L173.562 70.5519C172.487 69.1342 171.947 67.3816 172.039 65.6044C172.131 63.8271 172.849 62.1397 174.065 60.8409C175.346 59.4569 177.101 58.6053 178.98 58.4549C180.86 58.3045 182.727 58.8664 184.211 60.0291L184.27 60.0909L193.936 73.9373C194.982 74.7571 195.823 75.8076 196.396 77.0067C196.968 78.2057 197.255 79.521 197.236 80.8496C197.216 82.1782 196.889 83.4842 196.282 84.6657C195.674 85.8472 194.801 86.8722 193.732 87.6605L174.308 102.492C173.868 102.817 173.335 102.993 172.788 102.993Z" fill="#CCCCCC"/>
<path d="M153.125 32.3615V25.4469L165.465 20.0564L177.232 25.4469V32.3615C177.232 32.6625 177.112 32.9511 176.899 33.164C176.687 33.3768 176.398 33.4963 176.097 33.4963H154.26C153.959 33.4963 153.67 33.3768 153.458 33.164C153.245 32.9511 153.125 32.6625 153.125 32.3615Z" fill="#161616"/>
<path d="M164.899 15.8307C163.084 10.0212 166.895 3.36325 172.528 1.0637C178.161 -1.23585 184.901 0.371606 189.654 4.17081C194.408 7.97002 197.357 13.6605 198.919 19.5428C200.482 25.4251 200.778 31.5589 201.067 37.6385C207.988 38.9103 212.696 47.1225 210.299 53.7408C207.901 60.3592 199.027 63.6473 192.898 60.188C186.769 56.7288 184.994 47.4299 189.417 41.9548C191.51 39.3641 192.68 36.149 192.74 32.8186C192.8 29.4881 191.748 26.2329 189.75 23.5683C187.751 20.9037 184.922 18.9821 181.709 18.1079C178.496 17.2337 175.083 17.4568 172.011 18.7419C168.6 20.1689 164.32 16.4613 164.899 15.8307Z" fill="#161616"/>
<path d="M87.1306 57.3561C78.8441 57.3017 70.6612 55.5088 63.1106 52.0934C62.6611 51.893 62.2796 51.5661 62.0125 51.1527C61.7455 50.7392 61.6044 50.257 61.6064 49.7647V29.1005C61.6072 28.4236 61.8763 27.7745 62.3549 27.2958C62.8334 26.8172 63.4821 26.5479 64.1589 26.5471H110.102C110.779 26.5479 111.428 26.8172 111.906 27.2959C112.385 27.7745 112.654 28.4236 112.655 29.1005V49.7647C112.657 50.257 112.516 50.7392 112.249 51.1527C111.982 51.5661 111.6 51.893 111.151 52.0934C103.6 55.5089 95.4171 57.3017 87.1306 57.3561Z" fill="#161616"/>
<path d="M87.1243 40.6156C86.7837 40.6159 86.4465 40.5481 86.1325 40.4161L49.6998 25.0394C49.23 24.8411 48.8303 24.5066 48.5523 24.079C48.2743 23.6513 48.1307 23.1502 48.14 22.6402C48.1494 22.1301 48.3113 21.6346 48.6047 21.2175C48.8982 20.8003 49.3099 20.4807 49.7867 20.2997L86.2198 6.47307C86.8066 6.24935 87.4554 6.25073 88.0412 6.47695L123.986 20.3036C124.46 20.486 124.869 20.8057 125.161 21.2218C125.452 21.638 125.613 22.1317 125.622 22.6397C125.631 23.1477 125.489 23.647 125.213 24.0736C124.937 24.5002 124.541 24.8349 124.074 25.0346L88.1282 40.4112C87.8108 40.5464 87.4693 40.6159 87.1243 40.6156Z" fill="#161616"/>
<path d="M65.8604 53.4994C67.74 53.4994 69.2637 51.9752 69.2637 50.0949C69.2637 48.2147 67.74 46.6904 65.8604 46.6904C63.9809 46.6904 62.4572 48.2147 62.4572 50.0949C62.4572 51.9752 63.9809 53.4994 65.8604 53.4994Z" fill="#161616"/>
<path opacity="0.2" d="M124.198 22.852L88.2523 38.2286C87.972 38.3484 87.6705 38.4106 87.3658 38.4113C87.061 38.4121 86.7592 38.3514 86.4784 38.2329L50.0458 22.8565C49.5882 22.668 49.2065 22.3324 48.9609 21.9026C48.8003 22.1813 48.7007 22.491 48.6689 22.8111C48.637 23.1312 48.6736 23.4544 48.7762 23.7593C48.8788 24.0642 49.0451 24.3437 49.264 24.5794C49.4829 24.8151 49.7493 25.0015 50.0458 25.1262L86.4784 40.5025C86.7592 40.621 87.061 40.6817 87.3658 40.681C87.6705 40.6803 87.972 40.6181 88.2523 40.4982L124.198 25.1217C124.493 24.9959 124.758 24.8089 124.975 24.5731C125.192 24.3373 125.357 24.0581 125.459 23.7539C125.56 23.4497 125.596 23.1274 125.564 22.8083C125.532 22.4891 125.432 22.1805 125.272 21.9026C125.029 22.3289 124.651 22.6627 124.198 22.852Z" fill="#161616"/>
<path d="M66.1464 50.0816C66.2969 50.0816 66.4411 50.0218 66.5475 49.9154C66.6539 49.809 66.7136 49.6647 66.7136 49.5142V30.5276L85.4207 23.71C85.5712 23.7123 85.7163 23.6546 85.8243 23.5498C85.9322 23.445 85.9941 23.3016 85.9964 23.1511C85.9986 23.0006 85.941 22.8554 85.8362 22.7474C85.7314 22.6394 85.588 22.5774 85.4376 22.5752L66.7305 29.3928C66.58 29.3893 66.4303 29.4165 66.2906 29.4726C66.1508 29.5287 66.0239 29.6126 65.9175 29.7192C65.81 29.8245 65.7247 29.9503 65.6666 30.0891C65.6085 30.228 65.5788 30.3771 65.5792 30.5276V49.5142C65.5792 49.6647 65.639 49.809 65.7454 49.9154C65.8517 50.0218 65.996 50.0816 66.1464 50.0816Z" fill="#161616"/>
</svg>
