<svg width="1308" height="2416" viewBox="0 0 1308 2416" fill="none" xmlns="http://www.w3.org/2000/svg">
<path fill-rule="evenodd" clip-rule="evenodd" d="M745.958 11.0353C741.718 11.4593 726.352 13.2437 711.812 15.0006C697.272 16.763 671.993 19.7755 655.635 21.6976C608.855 27.1885 600.615 29.0721 584.038 38.0602C575.556 42.6589 560.19 49.1136 549.891 52.4125C538.348 56.1025 526.848 61.6485 519.909 66.864C513.718 71.5233 502.086 78.3084 494.062 81.9434C486.037 85.5838 477.225 90.9645 474.477 93.9055C471.729 96.8464 464.696 102.216 458.852 105.84C444.065 115.004 392.432 164.323 385.823 175.592C382.827 180.702 377.38 187.102 373.718 189.812C370.05 192.521 364.47 199.912 361.315 206.24C358.159 212.568 351.781 221.711 347.144 226.557C341.851 232.087 336.14 241.884 331.805 252.855C328.011 262.471 321.98 274.031 318.406 278.542C310.414 288.632 307.066 296.694 302.032 317.981C299.884 327.068 295.874 339.008 293.126 344.51C284.937 360.9 281.549 376.172 275.563 423.723C269.169 474.568 267.979 480.73 260.114 504.176C257.036 513.351 253.054 531.465 251.269 544.435C240.309 624.067 238.365 635.153 232.516 651.284C226.177 668.748 222.25 691.373 216.043 746.188C213.515 768.565 210.249 784.118 203.877 804.182C196.938 826.04 194.278 839.49 190.753 870.54C185.141 919.953 182.894 932.312 176.384 949.605C169.582 967.68 165.011 992.012 160.968 1031.74C157.278 1067.98 152.63 1091.8 146.451 1106.23C140.299 1120.57 138.503 1130.19 132.472 1181.05C128.336 1215.92 125.274 1232.43 119.502 1250.94C110.602 1279.49 111.076 1276.93 102.859 1340.16C98.1883 1376.11 94.8618 1393.81 90.7587 1404.6C85.086 1419.49 77.7445 1456.47 75.1174 1483.35C72.0718 1514.53 66.6579 1542.75 59.6854 1563.76C53.8364 1581.38 51.4076 1594.6 47.5358 1629.85C44.4957 1657.53 40.646 1680.87 37.1817 1692.63C19.8662 1751.43 13.505 1799.58 16.8646 1846.42C19.9543 1889.5 22.1628 1902 31.9441 1931.72C38.2667 1950.92 41.9072 1967.68 45.3328 1993.34C51.2203 2037.42 55.2739 2056.95 61.96 2073.4C64.8459 2080.5 68.2275 2092.65 69.4722 2100.41C78.4439 2156.19 81.8255 2174.3 86.6997 2192.71C96.2331 2228.71 100.254 2247.88 104.968 2279.73C114.683 2345.32 130.699 2376.53 151.297 2370C155.692 2368.6 178.317 2348.23 190.802 2334.42C193.832 2331.08 199.157 2325.82 202.638 2322.75C208.085 2317.95 227.785 2298.9 309.792 2219.14C317.893 2211.27 329.079 2200.36 334.658 2194.91C340.232 2189.46 345.585 2184.33 346.555 2183.5C349.149 2181.3 406.773 2125.08 419.182 2112.65C425.036 2106.78 431.315 2100.53 433.132 2098.76C534.773 1999.75 558.109 1974.28 565.841 1953.92C568.176 1947.79 573.486 1938.13 577.644 1932.47C581.802 1926.8 588.471 1913.39 592.459 1902.68C596.446 1891.96 603.358 1877.9 607.814 1871.43C612.269 1864.96 617.909 1852.97 620.343 1844.78C622.783 1836.59 629.144 1823.25 634.476 1815.12C639.812 1807.01 645.16 1797.68 646.361 1794.41C647.567 1791.14 650.233 1783.73 652.292 1777.95C654.352 1772.17 659.948 1761.58 664.728 1754.42C669.509 1747.27 675.826 1734.33 678.767 1725.68C681.708 1717.03 688.031 1704.08 692.817 1696.92C697.597 1689.76 704.14 1676 707.356 1666.35C710.567 1656.7 715.574 1645.53 718.471 1641.53C726.996 1629.76 730.769 1622.23 736.364 1605.78C739.267 1597.25 744.438 1586.79 747.864 1582.52C755.899 1572.52 759.667 1564.94 765.642 1546.75C768.319 1538.61 774.399 1526.22 779.158 1519.22C783.916 1512.21 789.435 1501.53 791.423 1495.47C795.531 1482.93 803.154 1468 810.886 1457.35C813.794 1453.35 818.795 1442.19 822.011 1432.54C825.222 1422.89 831.451 1409.81 835.852 1403.46C840.252 1397.12 847.087 1382.59 851.036 1371.17C854.99 1359.75 860.608 1347.85 863.527 1344.73C870.593 1337.16 874.52 1328.97 880.132 1310.07C883.222 1299.67 887.688 1290.82 893.24 1284.1C898.362 1277.9 904.062 1267.01 907.78 1256.35C911.139 1246.7 917.313 1234.32 921.499 1228.83C925.685 1223.35 932.31 1209.72 936.215 1198.55C940.258 1187 946.751 1173.78 951.267 1167.9C955.882 1161.89 961.726 1149.89 965.217 1139.26C968.77 1128.43 974.63 1116.47 979.565 1109.95C984.56 1103.36 990.244 1091.7 993.719 1080.93C997.2 1070.12 1002.57 1059.11 1007.16 1053.39C1012.13 1047.19 1017.06 1036.67 1021.29 1023.24C1025.79 1009 1030.32 999.552 1035.96 992.679C1041.1 986.395 1046.44 975.798 1050.42 963.946C1053.89 953.62 1059.53 941.603 1062.96 937.235C1071.34 926.573 1075.09 918.83 1080.29 901.443C1082.72 893.286 1088.64 881.236 1093.64 874.252C1098.58 867.357 1104.72 855.406 1107.28 847.701C1109.84 839.996 1116.31 827.043 1121.65 818.914C1126.99 810.79 1133.96 796.333 1137.13 786.789C1140.31 777.245 1145.09 766.747 1147.76 763.454C1156.39 752.797 1159.73 746.265 1165.34 729.071C1168.38 719.78 1174.42 707.328 1178.77 701.402C1183.12 695.481 1189.52 682.104 1193 671.684C1196.48 661.264 1203.33 646.069 1208.23 637.912C1213.13 629.761 1219.22 617.48 1221.76 610.623C1224.3 603.766 1230.83 591.375 1236.28 583.086C1241.72 574.797 1248.14 561.414 1250.55 553.346C1252.95 545.272 1258.48 533.497 1262.83 527.18C1272.95 512.459 1275.36 506.527 1282.27 479.254C1285.4 466.934 1291.15 447.664 1295.06 436.434L1302.17 416.013L1302.14 369.75L1302.12 323.488L1294.75 305.864C1290.71 296.171 1285.04 279.561 1282.17 268.953C1276.28 247.128 1270.77 235.182 1263.66 228.76C1260.97 226.337 1255.81 218.489 1252.19 211.318C1248.57 204.148 1241.26 193.739 1235.95 188.187C1203.52 154.278 1187.33 138.896 1180.26 135.261C1175.85 132.992 1169.26 127.974 1165.63 124.108C1161.99 120.247 1152.48 113.782 1144.49 109.734C1136.5 105.686 1127.08 99.9747 1123.56 97.0337C1114.75 89.6758 1106.48 85.7215 1088.95 80.4839C1080.7 78.0221 1067.3 71.9914 1059.19 67.0843C1047.52 60.0348 1038.42 56.7965 1015.8 51.647C1000.06 48.0617 980.236 42.1632 971.744 38.5393C952.396 30.2727 931.22 26.2192 883.646 21.6701C863.048 19.7039 832.316 16.1682 815.353 13.8165C787.055 9.89523 765.962 9.04708 745.958 11.0353ZM863.819 59.2032C880.782 61.2189 898.131 64.1489 902.371 65.7185C906.612 67.2881 916.013 70.7468 923.256 73.4124C930.504 76.0724 950.154 80.5334 966.93 83.3257C992.193 87.5279 1000.61 89.9622 1016.04 97.5349C1026.27 102.558 1042.74 108.682 1052.64 111.149C1072.58 116.111 1081.4 119.978 1089.63 127.363C1095.86 132.959 1102.87 136.852 1120.83 144.695C1127.69 147.691 1134.93 152.615 1136.91 155.633C1138.89 158.656 1144.18 163.569 1148.67 166.548C1153.15 169.528 1164.75 181.132 1174.44 192.334C1184.14 203.542 1196.69 217.806 1202.33 224.04C1207.98 230.275 1214.6 240.656 1217.05 247.111C1219.51 253.566 1225.58 265.082 1230.54 272.704C1248.67 300.527 1253.9 373.473 1242.78 443.407C1239.12 466.439 1237.35 471.175 1227.17 485.258C1224.16 489.416 1219.16 501.163 1216.05 511.357C1212.26 523.793 1208.04 532.539 1203.22 537.942C1199.28 542.364 1192.35 552.674 1187.82 560.847C1183.29 569.014 1175.65 579.424 1170.84 583.978C1166.03 588.527 1159.18 596.783 1155.62 602.329C1152.06 607.869 1144.68 615.613 1139.22 619.534C1133.76 623.455 1128.27 628.572 1127.02 630.912C1125.77 633.253 1119.07 639.306 1112.14 644.356C1105.21 649.412 1094.8 657.915 1089 663.258C1083.21 668.6 1072.8 675.418 1065.87 678.414C1050.91 684.885 1046.76 687.171 1034.96 695.437C1000.43 719.62 867.283 720.672 821.362 697.128C799.194 685.755 794.524 667.168 808.474 645.826C810.314 643.018 813.932 626.341 816.509 608.773C823.443 561.574 826.461 549.248 835.163 532.495C841.475 520.34 844.499 509.733 850.463 478.753C856.395 447.945 859.49 437.051 865.785 424.781C872.009 412.648 874.878 402.663 879.372 377.461C883.844 352.418 887.044 341.233 894.182 325.691C908.193 295.202 904.602 279.676 880.022 264.481C845.429 243.091 681.697 245.068 650.442 267.246C645.424 270.809 632.559 276.862 621.858 280.706C609.058 285.299 599.007 290.625 592.497 296.259C587.051 300.968 579.582 306.382 575.898 308.288C567.383 312.693 532.389 347.456 526.231 357.634C523.659 361.875 518.521 368.252 514.803 371.81C498.462 387.44 475.771 461.779 468.689 522.89C466.497 541.786 464.663 548.152 454.364 572.534C450.415 581.88 447.353 596.37 444.125 620.999C440.628 647.644 437.395 662.332 430.764 681.768C424.601 699.805 419.419 722.402 413.256 758.035C407.379 792.032 402.67 812.817 398.925 821.288C395.285 829.516 390.741 849.111 385.878 877.524C381.758 901.575 375.425 929.883 371.746 940.639C367.907 951.874 362.234 977.627 358.363 1001.36C353.769 1029.55 349.551 1047.86 345.018 1059.27C336.702 1080.2 334.917 1088.23 329.432 1129.35C326.254 1153.16 322.591 1169.71 316.451 1188C311.075 1204.02 305.777 1226.58 302.197 1248.74C293.225 1304.19 292.333 1308.25 284.188 1330.77C278.862 1345.48 274.858 1362.92 271.184 1387.4C265.726 1423.81 264.608 1428.42 255.422 1452.1C252.057 1460.79 247.959 1480.5 244.512 1504.61C241.262 1527.37 236.696 1549.69 233.392 1559C223.142 1587.84 217.696 1610.47 215.195 1634.61C211.775 1667.58 209.335 1678.5 200.49 1700.44C195.737 1712.23 191.568 1727.91 189.492 1741.83C178.333 1816.59 176.186 1824 161.932 1836.88C151.716 1846.1 148.191 1846.42 137.429 1839.11C132.957 1836.07 119.59 1830.48 107.727 1826.69C76.7531 1816.78 55.7145 1792.98 62.8026 1775.87C68.927 1761.09 74.0379 1737.69 76.3566 1713.86C80.4376 1671.94 84.9208 1646.38 91.6454 1626.74C98.3811 1607.06 105.667 1567.69 108.206 1537.32C110.255 1512.74 114.568 1491.27 122.3 1467.13C127.015 1452.41 130.798 1431.96 135.436 1396.06C140.271 1358.64 143.614 1340.85 148.417 1326.94C156.116 1304.65 158.573 1291.69 164.477 1242.13C168.877 1205.2 172.005 1189.47 178.708 1170.47C183.285 1157.49 190.164 1117.67 192.961 1087.92C195.566 1060.27 200.523 1035.26 206.334 1020.48C212.166 1005.64 216.33 982.941 221.639 937.048C224.998 907.991 228.182 890.769 232.731 876.957C241.025 851.788 244.969 832.28 249.099 795.926C254.205 750.974 256.848 737.062 263.931 717.82C270.165 700.873 274.412 675.732 280.982 616.891C282.348 604.642 286.649 585.058 290.901 571.73C300.303 542.248 302.346 531.801 306.498 492.015C310.849 450.307 313.653 434.523 319.799 417.114C326.672 397.64 328.655 389.483 333.975 358.735C339.527 326.622 341.636 319.721 347.535 314.39C353.086 309.378 360.676 294.574 365.941 278.503C368.144 271.762 373.437 262.642 378.079 257.575C382.607 252.629 388.819 243.63 391.892 237.572C394.96 231.514 400.622 223.583 404.466 219.948C408.31 216.314 416.852 205.657 423.445 196.266C430.043 186.876 436.266 179.193 437.285 179.193C438.304 179.193 447.182 171.786 457.018 162.726C466.855 153.672 479.131 143.621 484.308 140.394C489.48 137.161 498.226 130.343 503.739 125.237C510.012 119.432 518.262 114.514 525.769 112.113C532.372 109.998 544.219 103.94 552.094 98.6529C563.484 91.0031 571.657 87.7041 592.024 82.5216C606.107 78.9418 622.662 73.4619 628.808 70.3447C659.37 54.8578 779.334 49.1687 863.819 59.2032ZM805.996 290.339C849.731 293.28 859.842 324.215 833.886 375.643C829.309 384.708 825.123 400.025 819.693 427.589C813.976 456.58 810 470.867 804.305 482.884C798.731 494.648 795.107 507.463 791.092 529.625C785.089 562.758 784.191 565.765 774.278 585.933C769.762 595.125 766.254 607.721 763.296 625.361C755.828 669.921 747.049 676.338 715.116 660.57C709.664 657.877 700.246 653.867 694.188 651.659C688.13 649.45 677.599 643.53 670.781 638.496C663.968 633.462 652.248 627.046 644.736 624.237C635.109 620.636 629.133 616.703 624.479 610.915C620.845 606.393 612.996 600.038 607.032 596.794C600.896 593.451 593.395 586.886 589.744 581.659C586.197 576.582 580.249 570.441 576.526 568.018C572.797 565.594 566.816 558.104 563.225 551.369C559.634 544.639 553.736 535.408 550.123 530.854C529.084 504.385 529.69 429.39 551.131 405.659C555.212 401.143 561.022 392.573 564.04 386.614C567.058 380.655 573.48 372.647 578.31 368.825C583.135 365.003 589.099 358.609 591.567 354.627C594.029 350.64 601.166 344.592 607.428 341.183C613.696 337.774 622.563 331.353 627.134 326.914C633.969 320.277 640.088 317.435 661.517 310.942C675.848 306.597 694.023 300.285 701.898 296.92C716.218 290.801 754.01 286.77 780.105 288.582C784.951 288.918 796.6 289.711 805.996 290.339ZM527.217 574.076C529.712 576.802 533.33 582.161 535.264 585.977C537.191 589.799 542.275 595.092 546.565 597.741C550.85 600.396 557.365 606.933 561.039 612.275C564.718 617.612 570.842 623.599 574.653 625.565C578.464 627.536 586.593 633.864 592.723 639.625C598.853 645.38 610.309 653.328 618.184 657.276C626.06 661.225 636.794 668.231 642.037 672.84C648.316 678.359 657.337 683.145 668.479 686.851C677.781 689.952 690.3 695.977 696.297 700.24C703.039 705.031 715.656 710.583 729.337 714.774C741.508 718.502 756.571 724.445 762.811 727.981C769.294 731.654 786.824 737.602 803.727 741.859C819.996 745.957 839.178 752.269 846.36 755.887C882.203 773.946 978.727 773.511 1015 755.127C1021.52 751.828 1035.99 746.271 1047.17 742.774C1062.36 738.026 1069.33 734.562 1074.71 729.088C1086.7 716.894 1100.74 713.078 1111.8 718.998C1116.24 721.377 1117.58 728.735 1113.98 730.966C1112.82 731.676 1109.25 740.896 1106.03 751.459C1102.47 763.124 1096.82 775.427 1091.64 782.818C1086.95 789.51 1080.59 802.408 1077.52 811.479C1074.44 820.544 1067.57 834.412 1062.26 842.287C1056.95 850.163 1050.89 862.059 1048.78 868.723C1044.23 883.174 1037.97 896.034 1031.09 905.072C1028.32 908.707 1023.65 918.334 1020.7 926.463C1017.75 934.597 1011.22 948.057 1006.19 956.379C1001.16 964.701 994.479 979.152 991.34 988.504C988.195 997.85 981.839 1011.17 977.213 1018.1C972.587 1025.02 965.807 1038.89 962.15 1048.91C958.493 1058.94 952.6 1070.82 949.064 1075.32C940.858 1085.77 937.179 1093.19 931.209 1111.37C928.56 1119.43 922.964 1130.42 918.767 1135.81C914.422 1141.38 908.347 1153.85 904.652 1164.79C901.083 1175.35 894.755 1188.64 890.591 1194.33C886.433 1200.02 879.884 1213.6 876.046 1224.5C872.207 1235.4 865.691 1248.65 861.572 1253.94C857.452 1259.23 852.551 1267.9 850.689 1273.22C848.822 1278.53 845.771 1287.23 843.904 1292.55C842.042 1297.86 837.168 1306.54 833.082 1311.82C828.973 1317.14 822.452 1330.64 818.498 1342.02C814.268 1354.2 808.43 1366.1 804.2 1371.17C799.866 1376.35 794.402 1387.62 790.327 1399.77C785.75 1413.42 781.157 1422.53 775.936 1428.3C770.285 1434.56 766.501 1442.53 761.534 1458.61C757.618 1471.31 752.854 1482.2 750.15 1484.65C743.436 1490.72 736.128 1504.37 730.791 1520.81C728.23 1528.68 722.711 1539.95 718.52 1545.84C714.334 1551.73 708.32 1564.32 705.159 1573.81C701.998 1583.31 697.035 1594.34 694.133 1598.34C685.734 1609.92 679.687 1621.95 675.038 1636.32C672.665 1643.67 667.972 1653.15 664.618 1657.39C656.329 1667.87 652.546 1675.64 647.066 1693.43C644.455 1701.9 637.576 1715.77 631.413 1724.98C625.366 1734.03 618.906 1746.56 617.061 1752.83C615.216 1759.1 609.334 1771.5 603.986 1780.39C598.644 1789.27 592.25 1803.15 589.782 1811.23C587.188 1819.73 581.565 1830.86 576.443 1837.66C571.525 1844.17 565.648 1855.66 563.236 1863.47C558.202 1879.77 553.245 1890.17 547.529 1896.45C545.298 1898.89 539.703 1907.79 535.093 1916.23C522.602 1939.09 513.311 1939.74 438.805 1923.01C420.542 1918.91 390.229 1913.9 371.448 1911.88C331.866 1907.63 313.306 1903.81 300.556 1897.31C289.188 1891.51 276.262 1887.71 253.39 1883.44C231.448 1879.34 225.032 1876.53 221.887 1869.63C216.181 1857.1 221.942 1808.93 232.648 1779.65C241.818 1754.56 243.652 1747.03 248.108 1716.03C253.153 1680.97 257.355 1662.59 264.922 1642.46C271.641 1624.58 273.883 1614.26 278.933 1578.08C282.816 1550.23 285.372 1540.14 296.221 1509.79C298.601 1503.12 303.183 1479.85 306.394 1458.08C309.61 1436.31 314.22 1413.01 316.638 1406.31C327.306 1376.73 329.602 1367.16 335.011 1329.74C341.366 1285.78 341.697 1284.4 351.302 1260.69C356.496 1247.88 359.15 1235.59 362.73 1207.82C365.924 1183.04 369.466 1165.73 373.949 1152.91C385.63 1119.53 388.797 1106.13 393.451 1070.56C395.962 1051.33 399.851 1030.51 402.081 1024.3C404.312 1018.1 408.233 1007.38 410.794 1000.5C413.349 993.609 417.998 970.858 421.126 949.935C425.383 921.424 428.732 906.9 434.493 891.986C439.174 879.859 443.85 861.74 446.455 845.619C455.212 791.426 457.696 779.69 463.143 766.748C469.427 751.817 473.288 733.593 479.379 690.167C482.188 670.147 486.06 653.421 491.143 639.377C495.312 627.856 500.302 610.799 502.235 601.464C508.431 571.487 516.637 562.499 527.217 574.076ZM573.348 805.432C570.908 807.211 570.021 809.667 570.941 812.074C573.882 819.734 608.271 822.213 608.271 814.761C608.271 807.695 580.425 800.255 573.348 805.432ZM630.852 833.69C625.702 836.637 625.972 841.582 631.435 844.507C638.331 848.197 667.752 846.407 667.752 842.298C667.752 836.516 638.022 829.576 630.852 833.69ZM707.406 861.365C686.257 867.021 714.577 880.063 739.421 876.108C753.988 873.79 755.53 868.971 743.023 864.873C733.054 861.607 713.646 859.696 707.406 861.365ZM830.096 892.185C822.639 893.815 825.404 898.05 835.34 900.236C854.335 904.417 898.555 899.416 892.871 893.732C891.07 891.937 837.328 890.61 830.096 892.185ZM517.397 947.286C512.501 949.258 514.17 958.973 519.771 961.104C525.945 963.451 539.3 961.071 540.523 957.404C542.341 951.957 524.816 944.29 517.397 947.286ZM565.544 976.481C557.183 981.774 573.094 992.089 589.617 992.089C609.444 992.089 611.73 983.255 593.324 977.787C580.789 974.064 570.148 973.562 565.544 976.481ZM631.529 1008.46C627.911 1012.82 633.605 1015.58 653.085 1018.92C668.919 1021.64 679.868 1019.65 679.868 1014.05C679.868 1006.49 637.257 1001.56 631.529 1008.46ZM713.894 1036.34C709.135 1044.04 735.268 1047.6 795.058 1047.38C838.088 1047.23 850.805 1045.38 845.479 1040.06C840.704 1035.28 716.719 1031.78 713.894 1036.34ZM506.421 1119.84C499.349 1122.79 502.263 1127.79 513.575 1132.11C528.699 1137.88 543.42 1130.93 531.854 1123.47C525.069 1119.1 512.507 1117.31 506.421 1119.84ZM567.515 1150.52C564.618 1152.47 564.679 1153.21 568.033 1156.57C572.599 1161.14 605.016 1162.44 606.508 1158.11C608.342 1152.79 574.053 1146.12 567.515 1150.52ZM634.745 1177.94C621.158 1187.87 672.45 1195.74 706.855 1188.99C720.932 1186.23 709.658 1181.04 681.361 1177.24C657.635 1174.07 639.675 1174.34 634.745 1177.94ZM450.723 1266.4C448.454 1269.13 448.647 1270.52 451.781 1273.99C459.37 1282.37 474.989 1281.61 474.989 1272.86C474.989 1264.22 456.589 1259.33 450.723 1266.4ZM490.41 1294.73C490.41 1302.49 530.208 1307.9 531.739 1300.35C532.813 1295.04 522.767 1291.69 505.727 1291.69C494.178 1291.69 490.41 1292.44 490.41 1294.73ZM568.661 1322.47C565.803 1327.09 571.029 1329.56 587.684 1331.43C605.605 1333.45 613.778 1332.36 613.778 1327.95C613.778 1322.53 571.773 1317.43 568.661 1322.47ZM677.115 1350.36C664.69 1354.02 685.359 1360.92 704.581 1359.52C718.36 1358.53 721.698 1356.87 717.804 1352.98C715.194 1350.37 683.927 1348.35 677.115 1350.36ZM428.633 1436.1C423.665 1442.08 431.078 1446.66 447.441 1447.7C471.332 1449.23 475.226 1439.86 452.706 1435.04C437.72 1431.82 431.97 1432.08 428.633 1436.1ZM489 1464.64C486.748 1470.5 493.214 1474.02 509.466 1475.76C535.555 1478.55 550.954 1473.12 535.412 1466.61C521.869 1460.94 490.923 1459.62 489 1464.64ZM593.28 1493.61C587.618 1495.21 589.799 1499.33 597.399 1501.38C621.549 1507.91 651.097 1504.52 642.863 1496.17C639.967 1493.23 601.612 1491.25 593.28 1493.61ZM375.304 1578.26C364.641 1584.46 375.546 1592.47 392.008 1590.52C410.772 1588.3 410.276 1583.14 390.851 1578.4C378.707 1575.44 380.123 1575.45 375.304 1578.26ZM445.42 1606.48C433.931 1608.26 433.028 1612.43 443.459 1615.55C467.125 1622.61 510.193 1619.35 495.703 1611.6C491.853 1609.54 459.288 1604.05 455.553 1604.83C454.733 1605 450.173 1605.74 445.42 1606.48ZM558.858 1635.57C553.984 1637.52 553.813 1638.02 556.98 1641.18C562.311 1646.51 579.07 1647.73 582.942 1643.06C589.303 1635.4 572.434 1630.15 558.858 1635.57ZM364.162 1749.13C361.926 1749.78 360.488 1751.89 360.885 1753.95C362.725 1763.55 408.899 1767.19 408.899 1757.74C408.899 1751.97 376.174 1745.68 364.162 1749.13ZM443.046 1777.97C421.793 1780.92 436.756 1787.71 467.483 1789.07C520.481 1791.41 515.475 1781.61 461.771 1777.89C455.107 1777.43 446.681 1777.47 443.046 1777.97ZM102.798 1870.07C115.107 1880.35 116.473 1881 136.609 1886.16C146.109 1888.59 159.569 1894.11 166.608 1898.46C175.271 1903.8 187.768 1908.5 205.469 1913.06C219.816 1916.75 238.002 1922.8 245.877 1926.5C265.627 1935.77 268.183 1936.43 313.152 1943.79C335.005 1947.37 358.649 1952.28 365.693 1954.7C383.559 1960.85 409.902 1965.56 440.375 1968.05C497.658 1972.74 496.937 1976.9 427.179 2044.01C403.243 2067.03 364.707 2104.58 341.532 2127.47C294.668 2173.75 293.143 2174.9 278.405 2175.01C263.199 2175.12 217.035 2164.86 193.98 2156.24C183.004 2152.14 167.241 2147.21 158.947 2145.28C120.202 2136.3 113.147 2125.99 105.965 2067.87C102.33 2038.49 101.553 2035 89.8334 1995.43C86.226 1983.25 81.7209 1961.35 79.8318 1946.75C76.3676 1920.09 70.9703 1887.07 68.3927 1876.79C64.901 1862.88 88.6438 1858.24 102.798 1870.07ZM445.343 2219.45C416.158 2222.59 410.177 2251.41 437.621 2256.71C461.05 2261.23 1008.63 2259.14 1016.23 2254.5C1030.7 2245.68 1030.78 2237.43 1016.51 2224.54L1007.47 2216.37L732.966 2217.2C581.995 2217.67 452.563 2218.68 445.343 2219.45ZM214.044 2371.34C193.931 2373.68 189.101 2381.54 197.351 2398.54C206.168 2416.72 150.493 2414.71 655.2 2415.05L981.905 2415.26L991.372 2408.75C1013.98 2393.19 1013.39 2379.36 989.803 2372.27C979.074 2369.03 241.51 2368.16 214.044 2371.34Z" fill="white"/>
<path fill-rule="evenodd" clip-rule="evenodd" d="M1252 547.782C1287.81 496.481 1308 438.394 1308 376.864C1308 168.728 1076.98 0 792 0C507.021 0 276 168.728 276 376.864C276 421.433 286.593 464.195 306.041 503.881C309.55 306.176 537.226 65 800.529 65C1065.89 65 1281 225.954 1281 424.5C1281 467.809 1270.76 509.33 1252 547.782Z" fill="white"/>
<line x1="32.0755" y1="1780.91" x2="312.076" y2="312.911" stroke="white" stroke-width="65"/>
<line x1="25.5552" y1="1769.21" x2="135.736" y2="2357.18" stroke="white" stroke-width="52"/>
<path d="M569.087 809L712.611 869.512C718.946 872.183 725.54 874.193 732.288 875.511L896 907.493" stroke="white" stroke-width="30"/>
<path d="M514.087 953L660.879 1014.54C667.099 1017.15 673.566 1019.12 680.183 1020.42L847.395 1053.42" stroke="white" stroke-width="30"/>
<path d="M421.087 1259L564.179 1319.38C570.53 1322.06 577.14 1324.07 583.906 1325.39L747.155 1357.24" stroke="white" stroke-width="30"/>
<path d="M489.076 1119L608.283 1168.62C614.357 1171.15 620.667 1173.07 627.119 1174.36L762.814 1201.47" stroke="white" stroke-width="30"/>
<path d="M416.076 1428L535.472 1472.67L667.862 1503.86" stroke="white" stroke-width="30"/>
<path d="M354.401 1569L473.798 1613.67L606.187 1644.86" stroke="white" stroke-width="30"/>
<path d="M333.401 1739L412.055 1770.58C417.405 1772.73 422.93 1774.41 428.569 1775.61L517.582 1794.49" stroke="white" stroke-width="30"/>
<line x1="180.777" y1="1878.22" x2="498.156" y2="510.554" stroke="white" stroke-width="60"/>
<line x1="529.067" y1="1970.79" x2="1157.87" y2="689.185" stroke="white" stroke-width="60"/>
<line x1="540.683" y1="1967.13" x2="147.683" y2="2349.13" stroke="white" stroke-width="45"/>
<path d="M167 2354C171.5 2363.5 145.5 2382 139.5 2382.5C134 2382.5 120.5 2379 110 2362C110 2348.47 122.737 2328 138.477 2328C154.217 2328 167 2340.47 167 2354Z" fill="white"/>
<path fill-rule="evenodd" clip-rule="evenodd" d="M729.819 667.931C721.725 663.05 712.665 657.902 703.038 652.433C641.318 617.364 556.352 569.088 554 493.5C554 381.662 648.244 291 764.5 291C810.296 297.542 854.36 305.663 891.265 316.63C848.419 279.179 789.126 256 723.615 256C592.936 256 487 348.229 487 462C487 575.771 592.936 668 723.615 668C725.69 668 727.758 667.977 729.819 667.931Z" fill="white"/>
<path d="M500.449 494.218L487 476.5L478.5 507" stroke="white" stroke-width="20"/>
<line x1="874.395" y1="305.486" x2="773.144" y2="682.418" stroke="white" stroke-width="50"/>
<path d="M34.1955 1801.92L83.1942 1835.58L127.073 1863.09L265.889 1916.09L538.226 1960.91" stroke="white" stroke-width="60"/>
</svg>
