<svg width="1268" height="713" viewBox="0 0 1268 713" fill="none" xmlns="http://www.w3.org/2000/svg">
<rect x="453" y="13" width="279" height="532" rx="139.5" fill="white"/>
<path fill-rule="evenodd" clip-rule="evenodd" d="M568.453 3.09547C561.789 4.37616 554.372 6.12225 551.971 6.97255C549.574 7.82634 545.209 9.36597 542.276 10.3947C530.552 14.5132 514.147 23.8315 501.109 33.7762C497.315 36.6735 480.47 53.4695 477.043 57.777C471.076 65.2722 469.767 67.1232 468.129 70.3774C467.188 72.2425 465.858 74.426 465.172 75.2238C463.187 77.5368 456.379 90.935 455.602 94.0598C454.58 98.1678 450.279 105.145 448.032 106.349C446.821 106.996 430.126 107.693 403.295 108.214C330.264 109.635 328.381 109.922 317.17 121.266C307.066 131.494 307.657 127.736 304.098 204.14C301.7 255.574 301.186 382.265 303.195 426.11C304.038 444.501 305.169 470.892 305.704 484.752C306.898 515.524 307.087 517.029 310.678 524.086C316.936 536.407 326.697 542.461 343.522 544.462C354.568 545.778 356.129 547.373 356.129 557.36C356.129 573.505 360.43 572.473 295.344 571.945C39.5645 569.873 0.311963 570.307 0.311963 575.195C0.311963 580.063 -14.661 579.646 202.622 580.846C643.171 583.285 1264.63 584.472 1266.22 582.876C1268.07 581.028 1267.12 577.743 1264.27 576.109C1262.61 575.16 1233.39 574.845 1129.33 574.66C978.478 574.387 948.7 574.128 946.397 573.068C943.891 571.917 942.694 567.151 942.694 558.329C942.694 547.475 944.216 545.624 953.841 544.77C970.862 543.265 981.089 537.387 987.809 525.255C992.117 517.473 991.302 527.46 996.132 423.202C997.392 395.926 997.392 256.925 996.128 230.797C995.589 219.603 994.672 199.756 994.091 186.693C991.557 129.548 991.442 129.023 978.8 118.218C968.272 109.215 962.91 108.84 823.414 107.28C733.32 106.272 738.217 106.716 735.361 99.2736C730.503 86.6171 725.592 76.7669 719.943 68.3374C718.211 65.7551 716.794 63.3616 716.794 63.0222C716.794 62.2979 712.685 57.0981 708.551 52.5842C706.952 50.8381 704.081 47.6643 702.17 45.5334C696.08 38.7345 680.883 26.3019 675.102 23.3941C673.236 22.4529 670.835 20.9307 669.771 20.0069C668.703 19.0867 665.868 17.575 663.467 16.6477C661.07 15.724 658.452 14.4013 657.65 13.7084C656.852 13.0191 654.014 11.7909 651.351 10.9826C648.683 10.1743 644.319 8.63465 641.656 7.55691C624.635 0.681046 591.525 -1.33448 568.453 3.09547ZM629.048 13.4565C641.088 16.6337 648.883 19.3701 655.229 22.6418C656.828 23.4676 659.446 24.7973 661.045 25.5951C665.42 27.7786 676.62 35.2598 678.003 36.9254C678.671 37.7337 679.756 38.3916 680.418 38.3916C681.986 38.3916 699.818 56.1358 704.19 62.0459C706.055 64.5688 708.722 68.019 710.119 69.7161C711.512 71.4132 713.587 74.545 714.732 76.6795C715.876 78.8104 717.221 81.2109 717.721 82.0087C720.388 86.2812 724.129 95.0256 726.219 101.88C734.72 129.762 734.346 120.755 734.031 289.922L733.758 436.289L731.518 440.834C727.188 449.624 715.393 450.999 708.621 443.504C706.717 441.398 705.121 439.351 705.072 438.952C705.026 438.553 704.68 431.467 704.302 423.202C703.269 400.45 698.009 393.963 680.075 393.298C655.865 392.402 651.812 398.046 650.952 433.864C650.297 461.077 649.681 463.568 642.625 467.522C629.346 474.965 615.962 465.412 615.962 448.497C615.962 437.94 613.085 432.937 603.946 427.576C597.842 424 583.916 423.303 578.635 426.313C577.035 427.226 574.634 428.458 573.3 429.053C571.971 429.647 569.363 432.17 567.508 434.665L564.138 439.197L563.63 456.724L563.122 474.251L559.822 478.048C555.3 483.248 554.526 483.58 546.707 483.668C531.304 483.842 529.715 480.672 529.375 449.127C529.078 421.473 528.129 417.418 520.517 411.182C502.565 396.475 482.906 408.824 481.271 435.83C480.333 451.37 470.072 458.886 459.372 451.878C452.53 447.399 453.089 461.682 453.082 290.72C453.079 132.939 453.223 126.669 456.95 118.176C457.934 115.944 459.26 111.584 459.9 108.483C460.541 105.383 461.878 101.324 462.868 99.4555C463.859 97.5905 465.57 94.1018 466.673 91.7014C469.406 85.7423 474.341 77.1239 477.586 72.6414C488.065 58.1584 491.52 54.3373 502.04 45.5544C507.374 41.1034 512.516 36.7819 513.471 35.9491C514.427 35.1198 516.824 33.5382 518.805 32.4395C520.783 31.3407 523.055 29.9166 523.856 29.2797C528.766 25.3607 551.429 15.9619 560.253 14.1878C563.43 13.5475 568.211 12.4277 570.878 11.6999C584.287 8.03279 611.629 8.85859 629.048 13.4565ZM843.801 117.91C973.067 119.989 969.836 119.583 978.611 134.916L981.677 140.273L982.996 172.448C983.724 190.147 984.767 213.784 985.313 224.981C987.963 279.138 987.494 391.237 984.375 449.859C983.836 459.989 983.01 478.608 982.542 491.236L981.684 514.198L978.625 519.544C971.66 531.715 966.322 533.604 935.907 534.668C844.134 537.87 457.562 537.915 362.915 534.734C321.44 533.342 317.982 529.871 316.418 488.07C315.893 473.985 315.224 457.879 314.934 452.28C312.305 401.742 311.497 286.461 313.436 238.785C313.971 225.586 315.088 198.122 315.914 177.746C318.203 121.381 318.332 121.234 367.763 119.807C453.873 117.319 445.05 116.042 443.895 130.826C442.642 146.817 445.214 145.949 393.18 147.943L368.662 148.885L362.639 151.985C348.866 159.071 344.05 168.015 342.468 189.458C341.891 197.268 340.557 213.906 339.504 226.433C335.405 275.079 334.936 386.622 338.699 417.386C339.189 421.386 340.253 434.469 341.061 446.464C343.445 481.781 344.768 487.412 352.545 495.418C360.028 503.119 365.323 504.852 384.244 505.789C393.575 506.251 416.262 507.539 434.658 508.652C499.643 512.588 663.17 512.273 734.727 508.078C748.594 507.262 767.354 506.227 776.419 505.775C812.021 504.001 816.711 496.684 820.05 437.741C820.365 432.146 821.359 420.151 822.259 411.088C824.677 386.667 824.677 269.91 822.259 243.884C821.342 234.019 820.117 217.881 819.539 208.017C817.208 168.305 814.146 160.38 797.976 152.177L791.42 148.853L770.613 148.031C743.544 146.964 744.048 147.3 742.494 129.338C741.273 115.254 733.474 116.136 843.801 117.91ZM495.544 130.36C493.57 130.78 490.2 132.285 488.051 133.705C485.906 135.126 483.809 136.298 483.399 136.305C481.67 136.344 474.562 144.99 471.457 150.83C462.553 167.577 470.995 194.822 487.06 201.194C488.901 201.925 491.215 203.213 492.206 204.06C496.034 207.331 515.512 206.201 522.922 202.275C546.833 189.608 551.772 159.743 533.152 140.417C530.971 138.156 528.889 136.302 528.525 136.298C528.161 136.295 525.693 134.944 523.044 133.296C517.85 130.066 503.927 128.583 495.544 130.36ZM596.761 130.476C586.313 132.694 576.954 141.383 570.826 154.56C568.719 159.092 568.708 176.458 570.808 180.99C581.217 203.426 603.513 212.622 623.169 202.579C665.375 181.025 643.245 120.604 596.761 130.476ZM518.63 139.297C544.314 152.825 543.61 185.465 517.395 196.522C491.803 207.317 465.619 180.048 477.687 155.166C485.786 138.457 503.787 131.483 518.63 139.297ZM620.092 139.531C645.31 152.216 644.704 184.559 619.021 196.449C594.136 207.968 566.503 179.604 578.722 155.082C587.171 138.132 604.419 131.648 620.092 139.531ZM508.736 153.465C494.774 155.204 492.367 176.959 505.408 183.544C517.979 189.895 530.614 179.299 527.555 164.97C526.474 159.904 520.496 153.738 516.66 153.738C515.372 153.738 513.737 153.591 513.027 153.413C512.316 153.234 510.384 153.259 508.736 153.465ZM610.162 153.812C605.199 154.903 599.806 161.083 598.973 166.629C595.987 186.532 623.858 193.058 629.896 173.872L631.61 168.417L628.877 162.783C625.076 154.952 618.758 151.922 610.162 153.812ZM517.538 255.903C513.373 258.976 517.108 259.304 557.953 259.444C598.455 259.581 603.278 259.234 599.876 256.411C597.346 254.308 520.342 253.832 517.538 255.903ZM894.702 359.811C892.567 360.619 888.86 361.977 886.459 362.831C867.027 369.752 852.061 399.656 858.918 417.873C859.723 420.004 861.036 423.842 861.837 426.404C862.695 429.14 865.375 433.503 868.333 436.989C895.245 468.653 944.563 456.829 952.588 416.788L954.632 406.591L952.536 396.836C949.116 380.964 938.294 367.481 925.239 362.831C922.842 361.977 919.132 360.619 917 359.811C914.795 358.978 909.986 358.345 905.849 358.345C901.712 358.345 896.907 358.978 894.702 359.811ZM911.19 368.923C915.24 370.466 914.365 371.607 891.825 394.145C867.213 418.758 867.486 418.643 867.643 404.338C867.784 391.958 873.817 381.418 885.147 373.773C892.297 368.947 905.023 366.578 911.19 368.923ZM933.79 379.196C938.165 384.134 938.196 384.232 936.327 387.139C934.168 390.495 889.739 434.9 886.281 437.153C883.281 439.109 881.696 438.556 877.415 434.06C872.62 429.018 873.051 428.395 900.386 400.916C928.361 372.789 928.207 372.891 933.79 379.196ZM943.663 400.422C948.192 405.881 941.938 426.719 933.296 434.966C924.658 443.21 906.539 448.977 900.102 445.534C896.711 443.718 897.477 442.741 919.863 420.305C942.459 397.658 941.815 398.197 943.663 400.422ZM860.017 481.432C851.732 488.258 858.323 501.363 868.673 498.637C874.752 497.034 877.321 489.389 873.733 483.584C870.139 477.768 865.372 477.019 860.017 481.432ZM896.931 481.617C893.589 484.542 892.83 486.47 893.141 491.247C893.53 497.223 904.628 501.03 908.821 496.628C914.529 490.638 914.617 487.776 909.276 481.949C905.142 477.439 901.814 477.348 896.931 481.617ZM933.552 482.086C927.206 488.78 931 498.808 939.876 498.808C948.84 498.808 953.043 488.57 946.684 482.215C941.63 477.163 938.252 477.131 933.552 482.086ZM521.917 548.273C634.946 549.084 826.301 548.486 912.289 547.048C931.637 546.726 932.029 546.925 932.029 557.038C932.029 565.055 931.571 566.346 928.081 568.148C925.691 569.383 889.637 569.565 649.047 569.565H372.757L369.775 567.056C367.024 564.743 366.793 564.075 366.793 558.413C366.793 547.779 369.058 546.033 381.819 546.831C386.085 547.1 449.131 547.748 521.917 548.273Z" fill="#181820"/>
<path fill-rule="evenodd" clip-rule="evenodd" d="M748.367 120.114C745.154 121.185 744.643 124.53 746.281 133.75C748.286 145.028 747.359 144.598 772.45 145.928C787.08 146.704 794.623 147.495 796.688 148.478C813.491 156.453 819.084 166.363 820.575 190.776C821.135 199.993 822.504 215.166 823.613 224.494C827.642 258.401 827.25 397.406 823.022 434.35C822.227 441.278 821.121 454.488 820.565 463.704C818.654 495.344 808.469 506.412 779.811 507.993C773.679 508.333 760.62 509.257 750.792 510.044C693.823 514.614 468.874 514.617 409.815 510.051C399.749 509.271 386.715 508.35 380.849 508C351.53 506.265 342.451 496.296 340.057 463.186C339.297 452.658 338.237 441.667 337.701 438.762C333.13 413.894 333.148 242.736 337.722 215.288C338.258 212.09 339.311 201.074 340.067 190.811C342.619 156.184 351.141 147.926 386.26 146.04C432.912 143.531 439.912 142.421 440.85 137.376C442.477 128.607 442.509 125.429 440.979 123.096L439.404 120.695L423.703 121.29C415.065 121.619 392.074 122.242 372.61 122.679C334.845 123.526 333.911 123.655 328.101 128.747C320.478 135.427 319.421 140.161 318.353 172.294C313.94 305.185 313.94 349.285 318.353 482.162C319.417 514.274 319.984 516.958 327.313 524.649C333.498 531.144 323.785 530.388 445.323 533.831C498.166 535.329 799.985 535.339 853.496 533.845C943.054 531.347 960.792 530.692 964.023 529.772C972.895 527.246 979.013 517.21 979.948 503.654C984.68 434.987 984.683 214.802 979.958 150.343C978.492 130.363 970.998 123.872 948.525 123.13C876.145 120.734 752.108 118.865 748.367 120.114ZM926.443 360.577C950.408 371.907 962.213 398.074 954.111 421.889C945.375 447.563 916.143 464.621 894.702 456.552C892.567 455.751 888.811 454.463 886.354 453.69C876.379 450.558 866.296 440.526 859.6 427.079C854.998 417.827 854.102 398.077 857.952 390.729C859.068 388.598 860.542 385.159 861.221 383.087C862.911 377.94 877.062 363.796 882.207 362.11C884.279 361.427 886.967 360.227 888.181 359.44C895.258 354.835 915.579 355.44 926.443 360.577ZM872.347 478.051C879.582 485.284 880.31 489.64 875.371 496.107C867.356 506.601 851.641 499.536 854.07 486.536C855.596 478.369 867.251 472.956 872.347 478.051ZM911.467 480.668C922.656 492.069 906.871 508.392 894.856 497.846C886.473 490.487 891.765 476.606 902.983 476.539C906.903 476.515 907.834 476.97 911.467 480.668ZM947.905 479.724C956.823 487.264 951.759 500.747 940.006 500.747C934.994 500.747 934.388 500.484 930.909 496.827C920.185 485.56 935.998 469.649 947.905 479.724ZM371.707 550.046C369.219 551.747 369.093 562.174 371.532 564.61L373.58 566.657H649.194C897.078 566.657 925.026 566.506 926.965 565.149C929.663 563.259 930.171 552.261 927.654 550.172C926.492 549.207 911.173 549.133 852.758 549.812C760.893 550.879 545.314 550.918 447.262 549.882C399.221 549.374 372.607 549.434 371.707 550.046Z" fill="#FFB8B8"/>
<path d="M332.503 645.727H327.824V676.639H327.441L305.963 645.727H301.361V685H306.117V654.165H306.5L327.901 685H332.503V645.727ZM350.073 685.69C355.213 685.69 357.897 682.929 358.818 681.011H359.048V685H363.573V665.594C363.573 656.236 356.44 655.162 352.681 655.162C348.232 655.162 343.17 656.696 340.869 662.065L345.164 663.599C346.161 661.452 348.52 659.151 352.835 659.151C356.996 659.151 359.048 661.356 359.048 665.134V665.287C359.048 667.473 356.823 667.281 351.454 667.972C345.989 668.681 340.025 669.889 340.025 676.639C340.025 682.392 344.474 685.69 350.073 685.69ZM350.764 681.625C347.159 681.625 344.551 680.014 344.551 676.869C344.551 673.418 347.695 672.344 351.224 671.884C353.142 671.653 358.281 671.116 359.048 670.196V674.338C359.048 678.02 356.133 681.625 350.764 681.625ZM382.956 685.614C388.632 685.614 390.549 682.085 391.547 680.474H392.083V685H396.456V645.727H391.93V660.224H391.547C390.549 658.69 388.785 655.162 383.032 655.162C375.592 655.162 370.453 661.068 370.453 670.349C370.453 679.707 375.592 685.614 382.956 685.614ZM383.569 681.548C377.893 681.548 374.978 676.562 374.978 670.273C374.978 664.06 377.816 659.227 383.569 659.227C389.092 659.227 392.007 663.676 392.007 670.273C392.007 676.946 389.015 681.548 383.569 681.548ZM405.373 685H409.898V655.545H405.373V685ZM407.674 650.636C409.438 650.636 410.895 649.256 410.895 647.568C410.895 645.881 409.438 644.5 407.674 644.5C405.909 644.5 404.452 645.881 404.452 647.568C404.452 649.256 405.909 650.636 407.674 650.636ZM430.536 685.614C436.519 685.614 440.892 682.622 442.272 678.173L437.9 676.946C436.749 680.014 434.084 681.548 430.536 681.548C425.225 681.548 421.562 678.116 421.351 671.807H442.732V669.889C442.732 658.92 436.213 655.162 430.076 655.162C422.099 655.162 416.806 661.452 416.806 670.503C416.806 679.554 422.022 685.614 430.536 685.614ZM421.351 667.895C421.658 663.312 424.899 659.227 430.076 659.227C434.985 659.227 438.13 662.909 438.13 667.895H421.351ZM477.154 685.614C483.137 685.614 487.509 682.622 488.889 678.173L484.517 676.946C483.367 680.014 480.701 681.548 477.154 681.548C471.842 681.548 468.179 678.116 467.968 671.807H489.35V669.889C489.35 658.92 482.83 655.162 476.693 655.162C468.716 655.162 463.423 661.452 463.423 670.503C463.423 679.554 468.639 685.614 477.154 685.614ZM467.968 667.895C468.275 663.312 471.516 659.227 476.693 659.227C481.602 659.227 484.747 662.909 484.747 667.895H467.968ZM517.097 662.142C515.678 657.962 512.495 655.162 506.666 655.162C500.453 655.162 495.85 658.69 495.85 663.676C495.85 667.741 498.267 670.464 503.674 671.73L508.583 672.881C511.556 673.571 512.955 674.99 512.955 677.023C512.955 679.554 510.271 681.625 506.052 681.625C502.351 681.625 500.031 680.033 499.225 676.869L494.93 677.943C495.985 682.948 500.107 685.614 506.129 685.614C512.975 685.614 517.634 681.874 517.634 676.793C517.634 672.689 515.065 670.1 509.811 668.815L505.438 667.741C501.948 666.879 500.376 665.709 500.376 663.446C500.376 660.915 503.061 659.074 506.666 659.074C510.616 659.074 512.246 661.26 513.032 663.293L517.097 662.142ZM537.256 655.545H530.967V648.489H526.441V655.545H521.992V659.381H526.441V677.79C526.441 682.929 530.583 685.384 534.418 685.384C536.106 685.384 537.18 685.077 537.793 684.847L536.873 680.781C536.489 680.858 535.876 681.011 534.879 681.011C532.884 681.011 530.967 680.398 530.967 676.562V659.381H537.256V655.545ZM552.732 685.69C557.871 685.69 560.555 682.929 561.476 681.011H561.706V685H566.232V665.594C566.232 656.236 559.098 655.162 555.339 655.162C550.891 655.162 545.828 656.696 543.527 662.065L547.822 663.599C548.82 661.452 551.178 659.151 555.493 659.151C559.654 659.151 561.706 661.356 561.706 665.134V665.287C561.706 667.473 559.482 667.281 554.112 667.972C548.647 668.681 542.683 669.889 542.683 676.639C542.683 682.392 547.132 685.69 552.732 685.69ZM553.422 681.625C549.817 681.625 547.209 680.014 547.209 676.869C547.209 673.418 550.354 672.344 553.882 671.884C555.8 671.653 560.939 671.116 561.706 670.196V674.338C561.706 678.02 558.791 681.625 553.422 681.625ZM601.645 685.614C608.165 685.614 612.46 681.625 613.227 676.409H608.702C607.858 679.631 605.173 681.548 601.645 681.548C596.276 681.548 592.824 677.099 592.824 670.273C592.824 663.599 596.352 659.227 601.645 659.227C605.634 659.227 608.012 661.682 608.702 664.366H613.227C612.46 658.844 607.781 655.162 601.568 655.162C593.591 655.162 588.298 661.452 588.298 670.426C588.298 679.247 593.361 685.614 601.645 685.614ZM631.809 685.614C639.786 685.614 645.156 679.554 645.156 670.426C645.156 661.222 639.786 655.162 631.809 655.162C623.832 655.162 618.463 661.222 618.463 670.426C618.463 679.554 623.832 685.614 631.809 685.614ZM631.809 681.548C625.749 681.548 622.988 676.332 622.988 670.426C622.988 664.52 625.749 659.227 631.809 659.227C637.869 659.227 640.63 664.52 640.63 670.426C640.63 676.332 637.869 681.548 631.809 681.548ZM652.064 685H656.589V666.591C656.589 662.276 659.734 659.227 663.263 659.227C666.695 659.227 669.092 661.471 669.092 664.827V685H673.695V665.824C673.695 662.027 676.072 659.227 680.214 659.227C683.436 659.227 686.197 660.934 686.197 665.287V685H690.723V665.287C690.723 658.364 687.003 655.162 681.749 655.162C677.53 655.162 674.442 657.099 672.928 660.148H672.621C671.163 657.003 668.594 655.162 664.72 655.162C660.885 655.162 658.047 657.003 656.82 660.148H656.436V655.545H652.064V685ZM698.998 696.045H703.523V680.474H703.907C704.904 682.085 706.821 685.614 712.498 685.614C719.861 685.614 725 679.707 725 670.349C725 661.068 719.861 655.162 712.421 655.162C706.668 655.162 704.904 658.69 703.907 660.224H703.37V655.545H698.998V696.045ZM703.446 670.273C703.446 663.676 706.361 659.227 711.884 659.227C717.637 659.227 720.475 664.06 720.475 670.273C720.475 676.562 717.56 681.548 711.884 681.548C706.438 681.548 703.446 676.946 703.446 670.273ZM740.571 685.69C745.711 685.69 748.395 682.929 749.316 681.011H749.546V685H754.071V665.594C754.071 656.236 746.938 655.162 743.179 655.162C738.73 655.162 733.668 656.696 731.367 662.065L735.662 663.599C736.659 661.452 739.018 659.151 743.333 659.151C747.494 659.151 749.546 661.356 749.546 665.134V665.287C749.546 667.473 747.321 667.281 741.952 667.972C736.487 668.681 730.523 669.889 730.523 676.639C730.523 682.392 734.972 685.69 740.571 685.69ZM741.262 681.625C737.657 681.625 735.049 680.014 735.049 676.869C735.049 673.418 738.194 672.344 741.722 671.884C743.64 671.653 748.779 671.116 749.546 670.196V674.338C749.546 678.02 746.631 681.625 741.262 681.625ZM762.331 685H766.857V666.361C766.857 662.372 770.002 659.457 774.297 659.457C775.506 659.457 776.752 659.688 777.059 659.764V655.162C776.541 655.124 775.352 655.085 774.681 655.085C771.153 655.085 768.084 657.08 767.01 659.994H766.704V655.545H762.331V685ZM797.079 655.545H790.789V648.489H786.263V655.545H781.814V659.381H786.263V677.79C786.263 682.929 790.405 685.384 794.241 685.384C795.928 685.384 797.002 685.077 797.616 684.847L796.695 680.781C796.312 680.858 795.698 681.011 794.701 681.011C792.706 681.011 790.789 680.398 790.789 676.562V659.381H797.079V655.545ZM803.886 685H808.412V655.545H803.886V685ZM806.187 650.636C807.952 650.636 809.409 649.256 809.409 647.568C809.409 645.881 807.952 644.5 806.187 644.5C804.423 644.5 802.966 645.881 802.966 647.568C802.966 649.256 804.423 650.636 806.187 650.636ZM829.05 685.614C835.033 685.614 839.405 682.622 840.786 678.173L836.414 676.946C835.263 680.014 832.598 681.548 829.05 681.548C823.738 681.548 820.076 678.116 819.865 671.807H841.246V669.889C841.246 658.92 834.726 655.162 828.59 655.162C820.613 655.162 815.32 661.452 815.32 670.503C815.32 679.554 820.536 685.614 829.05 685.614ZM819.865 667.895C820.172 663.312 823.412 659.227 828.59 659.227C833.499 659.227 836.644 662.909 836.644 667.895H819.865ZM852.656 667.281C852.656 662.142 855.839 659.227 860.173 659.227C864.373 659.227 866.923 661.969 866.923 666.591V685H871.449V666.284C871.449 658.767 867.441 655.162 861.477 655.162C857.028 655.162 854.267 657.156 852.886 660.148H852.502V655.545H848.13V685H852.656V667.281ZM890.84 685.614C896.517 685.614 898.434 682.085 899.431 680.474H899.968V685H904.34V645.727H899.815V660.224H899.431C898.434 658.69 896.67 655.162 890.917 655.162C883.477 655.162 878.338 661.068 878.338 670.349C878.338 679.707 883.477 685.614 890.84 685.614ZM891.454 681.548C885.778 681.548 882.863 676.562 882.863 670.273C882.863 664.06 885.701 659.227 891.454 659.227C896.977 659.227 899.892 663.676 899.892 670.273C899.892 676.946 896.9 681.548 891.454 681.548ZM925.223 685.614C933.2 685.614 938.57 679.554 938.57 670.426C938.57 661.222 933.2 655.162 925.223 655.162C917.246 655.162 911.877 661.222 911.877 670.426C911.877 679.554 917.246 685.614 925.223 685.614ZM925.223 681.548C919.164 681.548 916.402 676.332 916.402 670.426C916.402 664.52 919.164 659.227 925.223 659.227C931.283 659.227 934.044 664.52 934.044 670.426C934.044 676.332 931.283 681.548 925.223 681.548ZM951.461 645.727H946.245L946.629 673.955H951.077L951.461 645.727ZM948.853 685.307C950.751 685.307 952.305 683.754 952.305 681.855C952.305 679.957 950.751 678.403 948.853 678.403C946.955 678.403 945.401 679.957 945.401 681.855C945.401 683.754 946.955 685.307 948.853 685.307ZM966.49 645.727H961.274L961.658 673.955H966.107L966.49 645.727ZM963.882 685.307C965.781 685.307 967.334 683.754 967.334 681.855C967.334 679.957 965.781 678.403 963.882 678.403C961.984 678.403 960.431 679.957 960.431 681.855C960.431 683.754 961.984 685.307 963.882 685.307Z" fill="#B9BBBE"/>
</svg>
